<!-- Generated by IcoMoon.io -->
<svg version="1.1" xmlns="http://www.w3.org/2000/svg" width="27" height="32" viewBox="0 0 27 32">
<title>arrow-clockwise</title>
<path d="M13.329 7.361c-2.401 0.001-4.737 0.78-6.659 2.22s-3.324 3.464-3.999 5.768c-0.675 2.304-0.585 4.765 0.257 7.014s2.389 4.165 4.41 5.461c2.021 1.296 4.408 1.902 6.803 1.727s4.669-1.12 6.481-2.696c1.812-1.575 3.065-3.695 3.572-6.042s0.238-4.795-0.763-6.977c-0.109-0.265-0.111-0.563-0.006-0.829s0.309-0.483 0.57-0.602c0.261-0.12 0.557-0.134 0.828-0.040s0.495 0.29 0.625 0.545c1.202 2.619 1.523 5.557 0.916 8.373s-2.112 5.361-4.287 7.251c-2.175 1.89-4.903 3.025-7.777 3.234s-5.738-0.518-8.164-2.074c-2.426-1.555-4.282-3.855-5.291-6.554s-1.117-5.652-0.307-8.417c0.81-2.765 2.494-5.194 4.8-6.921s5.11-2.662 7.991-2.662v2.222z"></path>
<path d="M13.33 10.618v-8.737c0-0.106 0.030-0.209 0.087-0.298s0.138-0.16 0.233-0.205c0.096-0.045 0.202-0.061 0.307-0.048s0.203 0.057 0.284 0.124l5.244 4.368c0.267 0.222 0.267 0.631 0 0.853l-5.244 4.368c-0.081 0.068-0.18 0.111-0.284 0.124s-0.211-0.003-0.307-0.048c-0.096-0.045-0.176-0.116-0.233-0.205s-0.087-0.192-0.087-0.298v0z"></path>
</svg>
