<!-- Generated by IcoMoon.io -->
<svg version="1.1" xmlns="http://www.w3.org/2000/svg" width="30" height="32" viewBox="0 0 30 32">
<title>box-seam</title>
<path d="M15.592 2.501c-0.227-0.091-0.48-0.091-0.707 0l-11.368 4.547 4.579 1.831 11.721-4.689-4.225-1.69zM22.381 5.216l-11.721 4.689 4.579 1.831 11.721-4.689-4.578-1.831zM28.571 8.454l-12.381 4.952v15.091l12.381-4.952v-15.091zM14.286 28.498v-15.091l-12.381-4.952v15.091l12.381 4.952zM14.177 0.732c0.681-0.272 1.441-0.272 2.122 0l13.578 5.431c0.362 0.145 0.599 0.495 0.599 0.884v16.498c0 0.779-0.474 1.479-1.197 1.769l-13.687 5.475c-0.227 0.091-0.48 0.091-0.707 0l-13.687-5.475c-0.723-0.289-1.197-0.99-1.197-1.769v-16.498c0-0.389 0.237-0.74 0.599-0.884l13.578-5.431z"></path>
</svg>
