<!-- Generated by IcoMoon.io -->
<svg version="1.1" xmlns="http://www.w3.org/2000/svg" width="30" height="32" viewBox="0 0 30 32">
<title>calendar</title>
<path d="M26.667 0.762h-22.857c-2.104 0-3.81 1.706-3.81 3.81v22.857c0 2.104 1.706 3.81 3.81 3.81h22.857c2.104 0 3.81-1.706 3.81-3.81v-22.857c0-2.104-1.706-3.81-3.81-3.81zM1.905 8.109c0-0.902 0.853-1.633 1.905-1.633h22.857c1.052 0 1.905 0.731 1.905 1.633v19.592c0 0.902-0.853 1.633-1.905 1.633h-22.857c-1.052 0-1.905-0.731-1.905-1.633v-19.592z"></path>
<path d="M12.381 14.095c1.052 0 1.905-0.853 1.905-1.905s-0.853-1.905-1.905-1.905c-1.052 0-1.905 0.853-1.905 1.905s0.853 1.905 1.905 1.905z"></path>
<path d="M18.095 14.095c1.052 0 1.905-0.853 1.905-1.905s-0.853-1.905-1.905-1.905c-1.052 0-1.905 0.853-1.905 1.905s0.853 1.905 1.905 1.905z"></path>
<path d="M23.81 14.095c1.052 0 1.905-0.853 1.905-1.905s-0.853-1.905-1.905-1.905c-1.052 0-1.905 0.853-1.905 1.905s0.853 1.905 1.905 1.905z"></path>
<path d="M6.667 19.81c1.052 0 1.905-0.853 1.905-1.905s-0.853-1.905-1.905-1.905c-1.052 0-1.905 0.853-1.905 1.905s0.853 1.905 1.905 1.905z"></path>
<path d="M12.381 19.81c1.052 0 1.905-0.853 1.905-1.905s-0.853-1.905-1.905-1.905c-1.052 0-1.905 0.853-1.905 1.905s0.853 1.905 1.905 1.905z"></path>
<path d="M18.095 19.81c1.052 0 1.905-0.853 1.905-1.905s-0.853-1.905-1.905-1.905c-1.052 0-1.905 0.853-1.905 1.905s0.853 1.905 1.905 1.905z"></path>
<path d="M23.81 19.81c1.052 0 1.905-0.853 1.905-1.905s-0.853-1.905-1.905-1.905c-1.052 0-1.905 0.853-1.905 1.905s0.853 1.905 1.905 1.905z"></path>
<path d="M6.667 25.524c1.052 0 1.905-0.853 1.905-1.905s-0.853-1.905-1.905-1.905c-1.052 0-1.905 0.853-1.905 1.905s0.853 1.905 1.905 1.905z"></path>
<path d="M12.381 25.524c1.052 0 1.905-0.853 1.905-1.905s-0.853-1.905-1.905-1.905c-1.052 0-1.905 0.853-1.905 1.905s0.853 1.905 1.905 1.905z"></path>
<path d="M18.095 25.524c1.052 0 1.905-0.853 1.905-1.905s-0.853-1.905-1.905-1.905c-1.052 0-1.905 0.853-1.905 1.905s0.853 1.905 1.905 1.905z"></path>
</svg>
