<!-- Generated by IcoMoon.io -->
<svg version="1.1" xmlns="http://www.w3.org/2000/svg" width="32" height="32" viewBox="0 0 32 32">
<title>chevron-double-right</title>
<path d="M7.293 3.293c0.391-0.391 1.024-0.391 1.414 0l12 12c0.391 0.391 0.391 1.024 0 1.414l-12 12c-0.391 0.391-1.024 0.391-1.414 0s-0.391-1.024 0-1.414l11.293-11.293-11.293-11.293c-0.391-0.391-0.391-1.024 0-1.414z"></path>
<path d="M15.293 3.293c0.391-0.391 1.024-0.391 1.414 0l12 12c0.391 0.391 0.391 1.024 0 1.414l-12 12c-0.39 0.391-1.024 0.391-1.414 0s-0.391-1.024 0-1.414l11.293-11.293-11.293-11.293c-0.391-0.391-0.391-1.024 0-1.414z"></path>
</svg>
