<!-- Generated by IcoMoon.io -->
<svg version="1.1" xmlns="http://www.w3.org/2000/svg" width="34" height="32" viewBox="0 0 34 32">
<title>clock</title>
<path d="M16.8 7c0-0.552-0.448-1-1-1s-1 0.448-1 1v11c0 0.359 0.192 0.69 0.504 0.868l7 4c0.48 0.274 1.090 0.107 1.364-0.372s0.107-1.090-0.372-1.364l-6.496-3.712v-10.42z"></path>
<path d="M16.8 32c8.836 0 16-7.164 16-16s-7.164-16-16-16c-8.837 0-16 7.163-16 16s7.163 16 16 16zM30.8 16c0 7.732-6.268 14-14 14s-14-6.268-14-14c0-7.732 6.268-14 14-14s14 6.268 14 14z"></path>
</svg>
