<!-- Generated by IcoMoon.io -->
<svg version="1.1" xmlns="http://www.w3.org/2000/svg" width="46" height="32" viewBox="0 0 46 32">
<title>cloud-arrow-up</title>
<path d="M21.185 9.479c0.541-0.541 1.418-0.541 1.959 0l5.541 5.541c0.541 0.541 0.541 1.418 0 1.959s-1.418 0.541-1.959 0l-3.176-3.176v10.508c0 0.765-0.62 1.385-1.385 1.385s-1.385-0.62-1.385-1.385v-10.508l-3.176 3.176c-0.541 0.541-1.418 0.541-1.959 0s-0.541-1.418 0-1.959l5.541-5.541z"></path>
<path d="M12.206 4.479c2.51-2.165 6.006-3.718 9.958-3.718 7.453 0 13.64 5.54 14.312 12.686 4.412 0.624 7.853 4.315 7.853 8.848 0 4.978-4.149 8.941-9.177 8.941h-24.675c-5.745 0-10.476-4.527-10.476-10.201 0-4.885 3.507-8.93 8.152-9.955 0.395-2.392 1.933-4.773 4.055-6.603zM14.016 6.578c-2.096 1.808-3.193 3.987-3.193 5.695v1.241l-1.234 0.136c-3.871 0.425-6.818 3.605-6.818 7.388 0 4.064 3.409 7.43 7.706 7.43h24.675c3.579 0 6.407-2.803 6.407-6.171s-2.828-6.171-6.407-6.171h-1.385v-1.385c0-6.15-5.154-11.208-11.602-11.208-3.221 0-6.088 1.268-8.149 3.045z"></path>
</svg>
