<!-- Generated by IcoMoon.io -->
<svg version="1.1" xmlns="http://www.w3.org/2000/svg" width="30" height="32" viewBox="0 0 30 32">
<title>eye-slash</title>
<path d="M25.445 22.731c3.243-2.889 5.031-6.167 5.031-6.167s-5.714-10.476-15.238-10.476c-1.934 0-3.711 0.432-5.315 1.121l1.468 1.468c1.199-0.431 2.484-0.684 3.847-0.684 4.037 0 7.389 2.225 9.844 4.68 1.211 1.211 2.152 2.428 2.79 3.343 0.139 0.199 0.262 0.382 0.371 0.548-0.108 0.165-0.232 0.349-0.371 0.548-0.638 0.915-1.579 2.132-2.79 3.343-0.314 0.314-0.643 0.624-0.985 0.926l1.349 1.349z"></path>
<path d="M21.519 18.805c0.25-0.7 0.386-1.454 0.386-2.24 0-3.682-2.985-6.667-6.667-6.667-0.786 0-1.54 0.136-2.24 0.386l1.566 1.566c0.22-0.031 0.445-0.047 0.674-0.047 2.63 0 4.762 2.132 4.762 4.762 0 0.229-0.016 0.454-0.047 0.674l1.566 1.566z"></path>
<path d="M15.912 21.279l1.566 1.566c-0.7 0.25-1.454 0.386-2.24 0.386-3.682 0-6.667-2.985-6.667-6.667 0-0.786 0.136-1.54 0.386-2.24l1.566 1.566c-0.031 0.22-0.047 0.445-0.047 0.674 0 2.63 2.132 4.762 4.762 4.762 0.229 0 0.454-0.016 0.674-0.047z"></path>
<path d="M6.38 11.747c-0.343 0.302-0.671 0.612-0.985 0.926-1.211 1.211-2.152 2.428-2.79 3.343-0.139 0.199-0.262 0.382-0.371 0.548 0.108 0.165 0.232 0.349 0.371 0.548 0.638 0.915 1.579 2.132 2.79 3.343 2.455 2.455 5.807 4.68 9.844 4.68 1.363 0 2.648-0.254 3.847-0.684l1.468 1.468c-1.604 0.689-3.381 1.121-5.315 1.121-9.524 0-15.238-10.476-15.238-10.476s1.788-3.278 5.031-6.167l1.349 1.349z"></path>
<path d="M25.993 28.666l-22.857-22.857 1.347-1.347 22.857 22.857-1.347 1.347z"></path>
</svg>
