<!-- Generated by IcoMoon.io -->
<svg version="1.1" xmlns="http://www.w3.org/2000/svg" width="30" height="32" viewBox="0 0 30 32">
<title>eye</title>
<path d="M30.476 16.564c0 0-5.714-10.476-15.238-10.476s-15.238 10.476-15.238 10.476c0 0 5.714 10.476 15.238 10.476s15.238-10.476 15.238-10.476zM2.234 16.564c0.108-0.165 0.232-0.349 0.371-0.548 0.638-0.915 1.579-2.132 2.79-3.343 2.455-2.455 5.807-4.68 9.844-4.68s7.389 2.225 9.844 4.68c1.211 1.211 2.152 2.428 2.79 3.343 0.139 0.199 0.262 0.382 0.371 0.548-0.108 0.165-0.232 0.349-0.371 0.548-0.638 0.915-1.579 2.132-2.79 3.344-2.455 2.455-5.807 4.68-9.844 4.68s-7.388-2.225-9.844-4.68c-1.211-1.211-2.152-2.428-2.79-3.344-0.139-0.199-0.262-0.382-0.371-0.548z"></path>
<path d="M15.238 11.802c-2.63 0-4.762 2.132-4.762 4.762s2.132 4.762 4.762 4.762 4.762-2.132 4.762-4.762c0-2.63-2.132-4.762-4.762-4.762zM8.571 16.564c0-3.682 2.985-6.667 6.667-6.667s6.667 2.985 6.667 6.667c0 3.682-2.985 6.667-6.667 6.667s-6.667-2.985-6.667-6.667z"></path>
</svg>
