<!-- Generated by IcoMoon.io -->
<svg version="1.1" xmlns="http://www.w3.org/2000/svg" width="32" height="32" viewBox="0 0 32 32">
<title>file-earmark-text</title>
<path d="M8.8 11.2c-0.442 0-0.8 0.358-0.8 0.8s0.358 0.8 0.8 0.8h8c0.442 0 0.8-0.358 0.8-0.8s-0.358-0.8-0.8-0.8h-8z"></path>
<path d="M8 15.2c0-0.442 0.358-0.8 0.8-0.8h8c0.442 0 0.8 0.358 0.8 0.8s-0.358 0.8-0.8 0.8h-8c-0.442 0-0.8-0.358-0.8-0.8z"></path>
<path d="M8 18.4c0-0.442 0.358-0.8 0.8-0.8h3.2c0.442 0 0.8 0.358 0.8 0.8s-0.358 0.8-0.8 0.8h-3.2c-0.442 0-0.8-0.358-0.8-0.8z"></path>
<path d="M15.2 0h-8.8c-1.767 0-3.2 1.433-3.2 3.2v19.2c0 1.767 1.433 3.2 3.2 3.2h12.8c1.767 0 3.2-1.433 3.2-3.2v-15.2l-7.2-7.2zM15.2 1.6v3.2c0 1.325 1.075 2.4 2.4 2.4h3.2v15.2c0 0.884-0.716 1.6-1.6 1.6h-12.8c-0.884 0-1.6-0.716-1.6-1.6v-19.2c0-0.884 0.716-1.6 1.6-1.6h8.8z"></path>
</svg>
