<!-- Generated by IcoMoon.io -->
<svg version="1.1" xmlns="http://www.w3.org/2000/svg" width="32" height="32" viewBox="0 0 32 32">
<title>forward</title>
<path d="M19.004 11.026c-0.186-0.083-0.404 0.052-0.404 0.268v2.007c0 0.552-0.448 1-1 1h-12.6v5.8h12.6c0.552 0 1 0.448 1 1v2.007c0 0.216 0.219 0.351 0.404 0.268l7.967-5.866c0.027-0.020 0.056-0.039 0.085-0.056 0.191-0.113 0.191-0.392 0-0.505-0.029-0.017-0.058-0.036-0.085-0.056l-7.967-5.866zM16.6 11.293c0-1.791 1.939-2.866 3.449-1.976 0.029 0.017 0.058 0.036 0.085 0.056l7.987 5.88c1.438 0.894 1.438 2.997 0 3.891l-7.987 5.88c-0.028 0.020-0.056 0.039-0.085 0.056-1.511 0.89-3.449-0.185-3.449-1.976v-1.007h-12.6c-0.552 0-1-0.448-1-1v-7.8c0-0.552 0.448-1 1-1h12.6v-1.007z"></path>
</svg>
