<!-- Generated by IcoMoon.io -->
<svg version="1.1" xmlns="http://www.w3.org/2000/svg" width="34" height="32" viewBox="0 0 34 32">
<title>gear</title>
<path d="M16.8 9.508c-3.585 0-6.491 2.906-6.491 6.492s2.906 6.492 6.491 6.492c3.585 0 6.492-2.906 6.492-6.492s-2.906-6.492-6.492-6.492zM12.309 16c0-2.481 2.011-4.492 4.491-4.492s4.492 2.011 4.492 4.492c0 2.481-2.011 4.492-4.492 4.492s-4.491-2.011-4.491-4.492z"></path>
<path d="M20.393 2.687c-1.056-3.582-6.13-3.582-7.186 0l-0.188 0.637c-0.314 1.067-1.533 1.572-2.51 1.040l-0.583-0.318c-3.28-1.786-6.868 1.801-5.081 5.081l0.318 0.583c0.532 0.977 0.027 2.195-1.040 2.51l-0.637 0.188c-3.582 1.056-3.582 6.13 0 7.186l0.637 0.188c1.067 0.314 1.572 1.533 1.040 2.51l-0.318 0.583c-1.786 3.28 1.801 6.868 5.081 5.081l0.583-0.317c0.977-0.532 2.195-0.027 2.51 1.040l0.188 0.637c1.056 3.582 6.13 3.582 7.186 0l0.188-0.637c0.314-1.067 1.533-1.572 2.51-1.040l0.583 0.317c3.28 1.787 6.868-1.801 5.081-5.081l-0.317-0.583c-0.532-0.977-0.027-2.195 1.040-2.51l0.637-0.188c3.582-1.056 3.582-6.13 0-7.186l-0.637-0.188c-1.067-0.314-1.572-1.533-1.040-2.51l0.317-0.583c1.787-3.28-1.801-6.868-5.081-5.081l-0.583 0.318c-0.977 0.532-2.195 0.027-2.51-1.040l-0.188-0.637zM15.125 3.252c0.492-1.67 2.857-1.67 3.349 0l0.188 0.637c0.675 2.289 3.289 3.372 5.385 2.23l0.583-0.318c1.529-0.833 3.201 0.84 2.368 2.368l-0.318 0.583c-1.141 2.096-0.058 4.71 2.231 5.385l0.637 0.188c1.67 0.492 1.67 2.857 0 3.349l-0.637 0.188c-2.289 0.675-3.372 3.289-2.231 5.385l0.318 0.583c0.833 1.529-0.84 3.201-2.368 2.368l-0.583-0.318c-2.096-1.141-4.71-0.058-5.385 2.231l-0.188 0.637c-0.492 1.67-2.857 1.67-3.349 0l-0.188-0.637c-0.675-2.289-3.289-3.372-5.385-2.231l-0.583 0.318c-1.529 0.833-3.201-0.84-2.368-2.368l0.318-0.583c1.141-2.096 0.059-4.71-2.23-5.385l-0.637-0.188c-1.67-0.492-1.67-2.857 0-3.349l0.637-0.188c2.289-0.675 3.372-3.289 2.23-5.385l-0.318-0.583c-0.833-1.529 0.84-3.201 2.368-2.368l0.583 0.318c2.096 1.141 4.71 0.059 5.385-2.23l0.188-0.637z"></path>
</svg>
