<!-- Generated by IcoMoon.io -->
<svg version="1.1" xmlns="http://www.w3.org/2000/svg" width="32" height="32" viewBox="0 0 32 32">
<title>grid</title>
<path d="M2 5c0-1.657 1.343-3 3-3h6c1.657 0 3 1.343 3 3v6c0 1.657-1.343 3-3 3h-6c-1.657 0-3-1.343-3-3v-6zM5 4c-0.552 0-1 0.448-1 1v6c0 0.552 0.448 1 1 1h6c0.552 0 1-0.448 1-1v-6c0-0.552-0.448-1-1-1h-6zM18 5c0-1.657 1.343-3 3-3h6c1.657 0 3 1.343 3 3v6c0 1.657-1.343 3-3 3h-6c-1.657 0-3-1.343-3-3v-6zM21 4c-0.552 0-1 0.448-1 1v6c0 0.552 0.448 1 1 1h6c0.552 0 1-0.448 1-1v-6c0-0.552-0.448-1-1-1h-6zM2 21c0-1.657 1.343-3 3-3h6c1.657 0 3 1.343 3 3v6c0 1.657-1.343 3-3 3h-6c-1.657 0-3-1.343-3-3v-6zM5 20c-0.552 0-1 0.448-1 1v6c0 0.552 0.448 1 1 1h6c0.552 0 1-0.448 1-1v-6c0-0.552-0.448-1-1-1h-6zM18 21c0-1.657 1.343-3 3-3h6c1.657 0 3 1.343 3 3v6c0 1.657-1.343 3-3 3h-6c-1.657 0-3-1.343-3-3v-6zM21 20c-0.552 0-1 0.448-1 1v6c0 0.552 0.448 1 1 1h6c0.552 0 1-0.448 1-1v-6c0-0.552-0.448-1-1-1h-6z"></path>
</svg>
