<!-- Generated by IcoMoon.io -->
<svg version="1.1" xmlns="http://www.w3.org/2000/svg" width="30" height="32" viewBox="0 0 30 32">
<title>heart</title>
<path d="M15.238 5.996l-1.365-1.403c-3.208-3.298-9.084-2.159-11.206 1.984-0.998 1.949-1.222 4.761 0.598 8.352 1.753 3.458 5.397 7.598 11.973 12.109 6.576-4.511 10.22-8.65 11.973-12.109 1.82-3.591 1.596-6.403 0.598-8.352-2.122-4.143-7.997-5.281-11.206-1.984l-1.365 1.403zM15.238 29.333c-29.206-19.298-8.993-34.364-0.335-26.394 0.114 0.105 0.225 0.213 0.335 0.326 0.109-0.113 0.221-0.221 0.335-0.326 8.658-7.969 28.871 7.096-0.335 26.394z"></path>
</svg>
