<!-- Generated by IcoMoon.io -->
<svg version="1.1" xmlns="http://www.w3.org/2000/svg" width="32" height="32" viewBox="0 0 32 32">
<title>icon-briefcase</title>
<path d="M13.143 2.667c-1.578 0-2.857 1.278-2.857 2.857v0.953h-6.667c-1.578 0-2.857 1.279-2.857 2.857v15.238c0 1.578 1.279 2.857 2.857 2.857h24.762c1.578 0 2.857-1.279 2.857-2.857v-15.238c0-1.578-1.279-2.857-2.857-2.857h-6.667v-0.953c0-1.578-1.28-2.857-2.857-2.857h-5.714zM13.143 4.571h5.714c0.526 0 0.952 0.428 0.952 0.954v0.951h-7.619v-0.953c0-0.526 0.426-0.952 0.952-0.952zM16.736 17.742l12.597-3.359v10.189c0 0.526-0.426 0.952-0.952 0.952h-24.762c-0.526 0-0.952-0.426-0.952-0.952v-10.189l12.597 3.359c0.482 0.129 0.99 0.129 1.472 0zM3.619 8.381h24.762c0.526 0 0.952 0.426 0.952 0.952v3.078l-13.088 3.49c-0.161 0.043-0.33 0.043-0.491 0l-13.088-3.49v-3.078c0-0.526 0.426-0.952 0.952-0.952z"></path>
</svg>
