<!-- Generated by IcoMoon.io -->
<svg version="1.1" xmlns="http://www.w3.org/2000/svg" width="32" height="32" viewBox="0 0 32 32">
<title>list-check</title>
<path d="M10 23c0-0.552 0.448-1 1-1h18c0.552 0 1 0.448 1 1s-0.448 1-1 1h-18c-0.552 0-1-0.448-1-1z"></path>
<path d="M10 15c0-0.552 0.448-1 1-1h18c0.552 0 1 0.448 1 1s-0.448 1-1 1h-18c-0.552 0-1-0.448-1-1z"></path>
<path d="M10 7c0-0.552 0.448-1 1-1h18c0.552 0 1 0.448 1 1s-0.448 1-1 1h-18c-0.552 0-1-0.448-1-1z"></path>
<path d="M7.707 4.293c0.391 0.391 0.391 1.024 0 1.414l-3 3c-0.391 0.391-1.024 0.391-1.414 0l-1-1c-0.391-0.391-0.391-1.024 0-1.414s1.024-0.391 1.414 0l0.293 0.293 2.293-2.293c0.391-0.391 1.024-0.391 1.414 0z"></path>
<path d="M7.707 12.293c0.391 0.391 0.391 1.024 0 1.414l-3 3c-0.391 0.391-1.024 0.391-1.414 0l-1-1c-0.391-0.39-0.391-1.024 0-1.414s1.024-0.391 1.414 0l0.293 0.293 2.293-2.293c0.391-0.391 1.024-0.391 1.414 0z"></path>
<path d="M7.707 20.293c0.391 0.39 0.391 1.024 0 1.414l-3 3c-0.391 0.391-1.024 0.391-1.414 0l-1-1c-0.391-0.39-0.391-1.024 0-1.414s1.024-0.391 1.414 0l0.293 0.293 2.293-2.293c0.391-0.391 1.024-0.391 1.414 0z"></path>
</svg>
