<!-- Generated by IcoMoon.io -->
<svg version="1.1" xmlns="http://www.w3.org/2000/svg" width="32" height="32" viewBox="0 0 32 32">
<title>list-stars</title>
<path d="M10 23c0-0.552 0.448-1 1-1h18c0.552 0 1 0.448 1 1s-0.448 1-1 1h-18c-0.552 0-1-0.448-1-1z"></path>
<path d="M10 15c0-0.552 0.448-1 1-1h18c0.552 0 1 0.448 1 1s-0.448 1-1 1h-18c-0.552 0-1-0.448-1-1z"></path>
<path d="M10 7c0-0.552 0.448-1 1-1h18c0.552 0 1 0.448 1 1s-0.448 1-1 1h-18c-0.552 0-1-0.448-1-1z"></path>
<path d="M4.483 4.387c0.157-0.516 0.877-0.516 1.034 0l0.323 1.062c0.070 0.23 0.28 0.387 0.517 0.387h1.101c0.517 0 0.74 0.667 0.328 0.986l-0.937 0.727c-0.18 0.14-0.255 0.379-0.188 0.599l0.347 1.139c0.155 0.511-0.427 0.923-0.845 0.599l-0.834-0.647c-0.194-0.15-0.463-0.15-0.657 0l-0.834 0.647c-0.419 0.325-1.001-0.088-0.845-0.599l0.347-1.139c0.067-0.22-0.008-0.459-0.188-0.599l-0.937-0.727c-0.411-0.319-0.189-0.986 0.328-0.986h1.101c0.237 0 0.447-0.157 0.517-0.387l0.323-1.062z"></path>
<path d="M4.483 12.387c0.157-0.516 0.877-0.516 1.034 0l0.323 1.062c0.070 0.23 0.28 0.387 0.517 0.387h1.101c0.517 0 0.74 0.667 0.328 0.986l-0.937 0.727c-0.18 0.14-0.255 0.379-0.188 0.599l0.347 1.139c0.155 0.511-0.427 0.923-0.845 0.599l-0.834-0.647c-0.194-0.15-0.463-0.15-0.657 0l-0.834 0.647c-0.419 0.325-1.001-0.088-0.845-0.599l0.347-1.139c0.067-0.22-0.008-0.459-0.188-0.599l-0.937-0.727c-0.411-0.319-0.189-0.986 0.328-0.986h1.101c0.237 0 0.447-0.157 0.517-0.387l0.323-1.062z"></path>
<path d="M4.483 20.387c0.157-0.516 0.877-0.516 1.034 0l0.323 1.062c0.070 0.23 0.28 0.387 0.517 0.387h1.101c0.517 0 0.74 0.667 0.328 0.986l-0.937 0.727c-0.18 0.14-0.255 0.379-0.188 0.599l0.347 1.139c0.155 0.511-0.427 0.923-0.845 0.599l-0.834-0.647c-0.194-0.15-0.463-0.15-0.657 0l-0.834 0.647c-0.419 0.325-1.001-0.088-0.845-0.599l0.347-1.139c0.067-0.22-0.008-0.459-0.188-0.599l-0.937-0.727c-0.411-0.319-0.189-0.986 0.328-0.986h1.101c0.237 0 0.447-0.157 0.517-0.387l0.323-1.062z"></path>
</svg>
