<!-- Generated by IcoMoon.io -->
<svg version="1.1" xmlns="http://www.w3.org/2000/svg" width="32" height="32" viewBox="0 0 32 32">
<title>person</title>
<path d="M16 16c3.314 0 6-2.686 6-6s-2.686-6-6-6c-3.314 0-6 2.686-6 6s2.686 6 6 6zM20 10c0 2.209-1.791 4-4 4s-4-1.791-4-4c0-2.209 1.791-4 4-4s4 1.791 4 4z"></path>
<path d="M28 26c0 2-2 2-2 2h-20c0 0-2 0-2-2s2-8 12-8c10 0 12 6 12 8zM26 25.993c-0.003-0.493-0.308-1.972-1.664-3.329-1.305-1.304-3.758-2.664-8.336-2.664s-7.031 1.36-8.336 2.664c-1.357 1.357-1.661 2.835-1.664 3.329h20z"></path>
</svg>
