<!-- Generated by IcoMoon.io -->
<svg version="1.1" xmlns="http://www.w3.org/2000/svg" width="30" height="32" viewBox="0 0 30 32">
<title>plus-circle</title>
<path d="M15.238 28.952c-7.364 0-13.333-5.97-13.333-13.333s5.97-13.333 13.333-13.333c7.364 0 13.333 5.97 13.333 13.333s-5.97 13.333-13.333 13.333zM15.238 30.857c8.416 0 15.238-6.822 15.238-15.238s-6.822-15.238-15.238-15.238c-8.416 0-15.238 6.822-15.238 15.238s6.822 15.238 15.238 15.238z"></path>
<path d="M15.238 8c0.526 0 0.952 0.426 0.952 0.952v5.714h5.714c0.526 0 0.952 0.426 0.952 0.952s-0.426 0.952-0.952 0.952h-5.714v5.714c0 0.526-0.426 0.952-0.952 0.952s-0.952-0.426-0.952-0.952v-5.714h-5.714c-0.526 0-0.952-0.426-0.952-0.952s0.426-0.952 0.952-0.952h5.714v-5.714c0-0.526 0.426-0.952 0.952-0.952z"></path>
</svg>
