<!-- Generated by IcoMoon.io -->
<svg version="1.1" xmlns="http://www.w3.org/2000/svg" width="29" height="32" viewBox="0 0 29 32">
<title>shield-lock</title>
<path d="M8.676 3.182c-2.172 0.589-4.372 1.285-5.673 1.71-0.358 0.117-0.61 0.427-0.657 0.781-1.108 8.313 1.452 14.38 4.506 18.376 1.533 2.006 3.192 3.489 4.575 4.465 0.692 0.488 1.304 0.841 1.785 1.067 0.241 0.113 0.438 0.19 0.587 0.236 0.123 0.038 0.186 0.047 0.202 0.049 0.015-0.002 0.078-0.011 0.202-0.049 0.15-0.046 0.346-0.123 0.587-0.236 0.481-0.226 1.093-0.579 1.785-1.067 1.383-0.975 3.042-2.459 4.575-4.465 3.054-3.995 5.614-10.063 4.506-18.376-0.047-0.354-0.299-0.665-0.657-0.781-1.302-0.425-3.501-1.121-5.673-1.71-2.221-0.602-4.262-1.048-5.324-1.048s-3.103 0.446-5.324 1.048zM8.143 1.119c2.171-0.589 4.478-1.119 5.857-1.119s3.685 0.531 5.857 1.119c2.22 0.602 4.457 1.31 5.773 1.739 1.098 0.358 1.929 1.329 2.088 2.526 1.193 8.955-1.574 15.59-4.93 19.98-1.672 2.187-3.488 3.817-5.034 4.907-0.772 0.545-1.488 0.962-2.096 1.248-0.562 0.264-1.162 0.481-1.658 0.481s-1.096-0.216-1.658-0.481c-0.608-0.286-1.324-0.704-2.096-1.248-1.546-1.090-3.363-2.72-5.034-4.907-3.356-4.39-6.123-11.025-4.93-19.98 0.159-1.197 0.99-2.167 2.088-2.526 1.316-0.429 3.553-1.137 5.773-1.739z"></path>
<path d="M17 13c0 1.306-0.835 2.417-2 2.829l0.77 3.981c0.119 0.617-0.353 1.19-0.982 1.19h-1.576c-0.628 0-1.101-0.573-0.982-1.19l0.77-3.981c-1.165-0.412-2-1.523-2-2.829 0-1.657 1.343-3 3-3s3 1.343 3 3z"></path>
</svg>
