<!-- Generated by IcoMoon.io -->
<svg version="1.1" xmlns="http://www.w3.org/2000/svg" width="32" height="32" viewBox="0 0 32 32">
<title>smile</title>
<path d="M16 30c-7.732 0-14-6.268-14-14s6.268-14 14-14c7.732 0 14 6.268 14 14s-6.268 14-14 14zM16 32c8.836 0 16-7.164 16-16s-7.164-16-16-16c-8.837 0-16 7.163-16 16s7.163 16 16 16z"></path>
<path d="M8.57 19.134c0.478-0.276 1.090-0.113 1.366 0.365 1.212 2.095 3.474 3.501 6.064 3.501s4.852-1.406 6.064-3.501c0.277-0.478 0.888-0.641 1.366-0.365s0.641 0.888 0.365 1.366c-1.555 2.687-4.463 4.499-7.795 4.499s-6.241-1.812-7.795-4.499c-0.277-0.478-0.113-1.090 0.365-1.366z"></path>
<path d="M14 13c0 1.657-0.895 3-2 3s-2-1.343-2-3c0-1.657 0.895-3 2-3s2 1.343 2 3z"></path>
<path d="M22 13c0 1.657-0.895 3-2 3s-2-1.343-2-3c0-1.657 0.895-3 2-3s2 1.343 2 3z"></path>
</svg>
