<!-- Generated by IcoMoon.io -->
<svg version="1.1" xmlns="http://www.w3.org/2000/svg" width="34" height="32" viewBox="0 0 34 32">
<title>truck</title>
<path d="M1.4 7c0-1.657 1.343-3 3-3h18c1.657 0 3 1.343 3 3v3h2.039c0.911 0 1.773 0.414 2.343 1.126l2.961 3.702c0.426 0.532 0.657 1.193 0.657 1.874v4.298c0 1.657-1.343 3-3 3h-1c0 2.209-1.791 4-4 4s-4-1.791-4-4h-10c0 2.209-1.791 4-4 4s-4-1.791-4-4c0-0.057 0.001-0.113 0.004-0.169-1.167-0.411-2.004-1.523-2.004-2.831v-14zM3.988 21.911c0.703-1.147 1.968-1.911 3.412-1.911 1.481 0 2.773 0.804 3.465 2h11.070c0.351-0.607 0.858-1.114 1.465-1.465v-13.535c0-0.552-0.448-1-1-1h-18c-0.552 0-1 0.448-1 1v14c0 0.405 0.241 0.754 0.588 0.911zM25.4 20c1.481 0 2.773 0.804 3.465 2h1.535c0.552 0 1-0.448 1-1v-4.298c0-0.227-0.077-0.447-0.219-0.625l-2.961-3.701c-0.19-0.237-0.477-0.375-0.781-0.375h-2.039v8zM7.4 22c-1.105 0-2 0.895-2 2s0.895 2 2 2c1.105 0 2-0.895 2-2s-0.895-2-2-2zM25.4 22c-1.105 0-2 0.895-2 2s0.895 2 2 2c1.105 0 2-0.895 2-2s-0.895-2-2-2z"></path>
</svg>
