<!-- Generated by IcoMoon.io -->
<svg version="1.1" xmlns="http://www.w3.org/2000/svg" width="30" height="32" viewBox="0 0 30 32">
<title>x-circle</title>
<path d="M15.238 29.483c-7.364 0-13.333-5.97-13.333-13.333s5.97-13.333 13.333-13.333c7.364 0 13.333 5.97 13.333 13.333s-5.97 13.333-13.333 13.333zM15.238 31.388c8.416 0 15.238-6.822 15.238-15.238s-6.822-15.238-15.238-15.238c-8.416 0-15.238 6.822-15.238 15.238s6.822 15.238 15.238 15.238z"></path>
<path d="M8.85 9.762c0.372-0.372 0.975-0.372 1.347 0l5.041 5.041 5.041-5.041c0.372-0.372 0.975-0.372 1.347 0s0.372 0.975 0 1.347l-5.041 5.041 5.041 5.041c0.372 0.372 0.372 0.975 0 1.347s-0.975 0.372-1.347 0l-5.041-5.041-5.041 5.041c-0.372 0.372-0.975 0.372-1.347 0s-0.372-0.975 0-1.347l5.041-5.041-5.041-5.041c-0.372-0.372-0.372-0.975 0-1.347z"></path>
</svg>
