<!-- Generated by IcoMoon.io -->
<svg version="1.1" xmlns="http://www.w3.org/2000/svg" width="105" height="32" viewBox="0 0 105 32">
<title>18wheeler</title>
<path d="M75.701 5.246l3.351 0.148c0.447 0 0.819 0.37 0.819 0.814v0.962c0 0.444-0.372 0.814-0.819 0.814h-3.575c-0.447 0-0.819-0.37-0.819-0.814l0.223-1.258c0.075-0.296 0.223-0.666 0.819-0.666z"></path>
<path d="M3.612 22.925h5.213c-1.266 0.888-2.085 2.367-2.085 3.994 0 0.074 0 0.222 0 0.296h-3.128c-0.298 0-0.521-0.222-0.521-0.518v-3.329c0.074-0.222 0.298-0.444 0.521-0.444z"></path>
<path d="M14.485 22.925h2.681c-0.521 0.37-0.968 0.888-1.341 1.405-0.372-0.592-0.819-1.036-1.34-1.405z"></path>
<path d="M19.996 22.925c2.234 0 4.022 1.775 4.022 3.994s-1.787 3.994-4.022 3.994c-2.234 0-4.021-1.775-4.021-3.994s1.787-3.994 4.021-3.994zM19.996 28.547c0.894 0 1.639-0.74 1.639-1.627s-0.745-1.627-1.639-1.627c-0.894 0-1.638 0.74-1.638 1.627s0.745 1.627 1.638 1.627z"></path>
<path d="M11.655 22.925c2.234 0 4.021 1.775 4.021 3.994s-1.787 3.994-4.021 3.994c-2.234 0-4.021-1.775-4.021-3.994s1.787-3.994 4.021-3.994zM11.655 28.547c0.894 0 1.638-0.74 1.638-1.627s-0.745-1.627-1.638-1.627c-0.894 0-1.638 0.74-1.638 1.627s0.745 1.627 1.638 1.627z"></path>
<path d="M1.973 0.438h64.791c0.298 0 0.596 0.296 0.596 0.74v19.899c0 0.37-0.298 0.74-0.596 0.74h-64.791c-0.298 0-0.596-0.296-0.596-0.74v-19.899c0-0.37 0.223-0.74 0.596-0.74z"></path>
<path d="M66.541 22.926h3.277c0-1.331 0.149-6.88 0.372-11.91 0.223-4.438 0.521-8.433 0.894-8.803 0 0 0.075 0 0.075-0.074 0.447-0.222 3.798 0.37 5.213 0.962 2.383 0.222 8.564 1.405 13.256 5.326 0.819 0.37 1.713 0.592 2.383 1.479 0.074 0.148 0.223 0.444 0.074 0.444-0.521 0-1.34 0.148-0.223 2.959 0.372 0.962 0.596 1.627 1.192 2.737 1.266 0.148 8.043 1.849 10.799 3.107 0.447 0.592 0.596 2.589 0.596 2.811 0 0 0.074 3.033 0.074 3.107s0.149 0.074 0.149 0.148c0 0.074-0.075 2.145-0.075 2.145 0 0.148-0.148 0.296-0.297 0.296h-4.245c0-0.074-0.074-0.074-0.074-0.074 0.521-2.959-1.713-5.548-4.617-5.548-2.606 0-4.766 2.071-4.766 4.66 0 0.37 0 0.666 0 0.962 0 0-15.267 0-21.82-0.074 0.075-0.222 0.075-0.518 0.075-0.74 0.149-1.701-0.819-3.181-2.309-3.92zM102.437 22.334h1.042c0 0-0.223-2.293-1.712-3.033 0 0 0 0 0 0.074s0.67 1.627 0.67 2.959zM84.713 18.414h1.564c0.223 0 0.447-0.222 0.447-0.444s-0.224-0.444-0.447-0.444h-1.564c-0.223 0-0.447 0.222-0.447 0.444s0.224 0.444 0.447 0.444zM84.266 14.789c0 0.37 0.298 0.592 0.596 0.592l6.256 0.74c0.372 0 0.596-0.296 0.596-0.592l-1.564-4.216c0-0.37-0.298-0.592-0.596-0.592h-4.692c-0.372 0-0.596 0.296-0.596 0.592v3.477zM75.552 8.131h3.575c0.596 0 1.043-0.444 1.043-1.036v-0.962c0-0.592-0.447-1.036-1.043-1.036l-3.351-0.148c-0.521 0-0.894 0.296-1.043 0.814l-0.223 1.258c-0.075 0.666 0.447 1.11 1.043 1.11z"></path>
<path d="M22.827 22.925h28.225c-1.415 0.74-2.458 2.293-2.458 3.994 0 0.222 0 0.518 0.075 0.74h-1.043v-2.589h-4.841l-1.564 0.814v1.997c0 0.444-0.372 0.74-0.745 0.74h-9.979c-0.447 0-0.745-0.37-0.745-0.74v-0.592h-4.766c0-0.074 0-0.222 0-0.296-0.075-1.701-0.894-3.181-2.16-4.068z"></path>
<path d="M55.296 22.925h7c-1.415 0.74-2.457 2.293-2.457 3.994 0 0.222 0 0.518 0.075 0.74h-2.309c0-0.222 0.075-0.444 0.075-0.74 0-0.518-0.149-1.036-0.298-1.479-0.075-0.148-0.075-0.222-0.149-0.37 0 0 0 0 0-0.074-0.298-0.888-1.043-1.627-1.936-2.071z"></path>
<path d="M53.21 22.925c2.234 0 4.022 1.775 4.022 3.994s-1.787 3.994-4.022 3.994c-2.234 0-4.021-1.775-4.021-3.994s1.787-3.994 4.022-3.994zM53.21 28.547c0.894 0 1.638-0.74 1.638-1.627s-0.745-1.627-1.638-1.627c-0.894 0-1.638 0.74-1.638 1.627s0.745 1.627 1.638 1.627z"></path>
<path d="M64.457 22.925c2.234 0 4.022 1.775 4.022 3.994s-1.787 3.994-4.022 3.994-4.022-1.775-4.022-3.994c0-2.219 1.787-3.994 4.022-3.994zM64.457 28.547c0.894 0 1.638-0.74 1.638-1.627s-0.745-1.627-1.638-1.627-1.638 0.74-1.638 1.627c0 0.888 0.745 1.627 1.638 1.627z"></path>
<path d="M95.36 22.925c2.234 0 4.022 1.775 4.022 3.994s-1.787 3.994-4.022 3.994-4.021-1.775-4.021-3.994c0.074-2.219 1.862-3.994 4.021-3.994zM95.36 28.547c0.894 0 1.638-0.74 1.638-1.627s-0.745-1.627-1.638-1.627c-0.894 0-1.638 0.74-1.638 1.627 0.075 0.888 0.745 1.627 1.638 1.627z"></path>
</svg>
