<!-- Generated by IcoMoon.io -->
<svg version="1.1" xmlns="http://www.w3.org/2000/svg" width="61" height="32" viewBox="0 0 61 32">
<title>refrigerated</title>
<path d="M47.169 27.506c-0.911 0-1.64-0.739-1.64-1.629 0-0.905 0.744-1.628 1.64-1.628 0.911 0 1.64 0.739 1.64 1.628s-0.744 1.629-1.64 1.629z"></path>
<path d="M47.168 30.914c-2.809 0-5.071-2.262-5.071-5.037 0-2.79 2.277-5.037 5.071-5.037 2.809 0 5.071 2.262 5.071 5.037s-2.277 5.037-5.071 5.037zM47.168 22.846c-1.715 0-3.097 1.357-3.097 3.031s1.382 3.031 3.097 3.031 3.097-1.357 3.097-3.031c0-1.674-1.397-3.031-3.097-3.031z"></path>
<path d="M11.492 24.234c0.911 0 1.64 0.739 1.64 1.629 0 0.905-0.744 1.629-1.64 1.629-0.911 0-1.64-0.739-1.64-1.629-0.015-0.89 0.729-1.629 1.64-1.629z"></path>
<path d="M11.492 20.826c2.809 0 5.071 2.262 5.071 5.037 0 2.79-2.277 5.037-5.071 5.037-2.809 0-5.071-2.262-5.071-5.037-0.015-2.775 2.262-5.037 5.071-5.037zM11.492 28.894c1.716 0 3.097-1.357 3.097-3.031s-1.382-3.031-3.097-3.031-3.097 1.357-3.097 3.031c0 1.674 1.382 3.031 3.097 3.031z"></path>
<path d="M1.396 1.328c0-0.483 0.334-0.89 0.759-0.89h50.16c0.425 0 0.941 0.332 1.169 0.754l0.228 0.407c-0.182 0.211-0.243 0.437-0.152 0.603l3.978 7.314c0.091 0.166 0.319 0.241 0.577 0.211l1.093 2.021c0.228 0.422 0.41 1.146 0.41 1.644v3.966c-0.228 0.090-0.395 0.256-0.395 0.437v2.081c0 0.196 0.167 0.362 0.395 0.437v0.513c0 0.754 0.607 0.965 0.896 1.493 0.38 0.679 0.197 2.352 0.015 2.745-0.167 0.362-0.319 0.784-1.837 0.784l-4.737 0.015c-0.425 0-0.789-0.935-0.956-1.387-0.714-1.84-2.050-4.434-5.845-4.434-4.205 0-6.817 3.921-5.648 8.173 0.334 1.221-0.334 0.498-0.713-1.508-0.091-0.483-0.349-0.845-0.774-0.845l-21.755-0.015c-0.395 0-0.729-0.709-0.987-1.402-0.79-2.051-2.171-4.418-5.799-4.418-1.883 0-3.522 0.784-4.63 2.217-1.23 1.598-1.579 3.74-0.987 5.911 0.091 0.347 0.121 0.558 0.061 0.618-0.015 0.015-0.030 0.030-0.061 0.030-0.167 0-0.547-0.814-0.789-2.141-0.076-0.452-0.304-0.739-0.607-0.799h-2.125c-0.425 0-0.972-0.211-0.972-0.633l0.030-23.901zM43.115 14.884c0 0.302 0.243 0.528 0.562 0.528h1.579c0.304 0 0.562-0.241 0.562-0.528v-0.543c0-0.287-0.243-0.528-0.562-0.528h-1.579c-0.304 0-0.562 0.241-0.562 0.528v0.543zM41.946 9.863c0 0.588 0.364 1.071 0.835 1.071l7.135-0.015c0.455 0 0.88 0.271 1.108 0.754l2.004 3.8c0.334 0.498 0.82 0.498 1.275 0.498h1.533c0.455 0 0.789-0.347 0.789-0.95v-4.087c0-0.588-0.061-1.071-0.304-1.568l-3.644-6.786c-0.243-0.498-0.805-0.905-1.275-0.905h-8.623c-0.455 0-0.835 0.483-0.835 1.071v7.118zM28.541 17.569c0 0.588 0.471 1.056 1.063 1.056h8.092c0.592 0 1.063-0.468 1.063-1.056v-14.778c0-0.588-0.471-1.056-1.063-1.056h-8.092c-0.592 0-1.063 0.467-1.063 1.056v14.778zM16.547 17.569c0 0.588 0.471 1.056 1.063 1.056h8.092c0.592 0 1.063-0.468 1.063-1.056v-14.778c0-0.588-0.471-1.056-1.063-1.056h-8.092c-0.592 0-1.063 0.467-1.063 1.056v14.778zM4.554 17.569c0 0.588 0.471 1.056 1.063 1.056h8.092c0.592 0 1.063-0.468 1.063-1.056v-14.778c0-0.588-0.471-1.056-1.063-1.056h-8.092c-0.592 0-1.063 0.467-1.063 1.056v14.778z"></path>
</svg>
