<svg width="38" height="21" viewBox="0 0 38 21" fill="none" xmlns="http://www.w3.org/2000/svg">
<path d="M18.2159 2.51608C20.4596 0.287418 24.0729 0.287418 26.3166 2.51608L35.4372 11.5755V10.765L26.7246 2.11087C25.5298 0.924175 23.9563 0.287415 22.2662 0.287415C20.5762 0.287415 19.0027 0.924175 17.8079 2.11087L9.15356 10.7071V11.5176L18.2159 2.51608Z" fill="black"/>
<path d="M18.711 20.2874C20.1272 20.2874 21.2752 19.1471 21.2752 17.7404C21.2752 16.3337 20.1272 15.1933 18.711 15.1933C17.2948 15.1933 16.1467 16.3337 16.1467 17.7404C16.1467 19.1471 17.2948 20.2874 18.711 20.2874Z" fill="black"/>
<path d="M25.8799 20.2874C27.2961 20.2874 28.4442 19.1471 28.4442 17.7404C28.4442 16.3337 27.2961 15.1933 25.8799 15.1933C24.4637 15.1933 23.3157 16.3337 23.3157 17.7404C23.3157 19.1471 24.4637 20.2874 25.8799 20.2874Z" fill="black"/>
<path d="M37.5644 14.2672H18.1285H17.1961H6.99731V17.7405H15.6225C15.6225 16.0617 16.9921 14.7014 18.7113 14.7014C20.4014 14.7014 21.7709 16.0617 21.7709 17.7405H22.7908C22.7908 16.0617 24.1603 14.7014 25.8795 14.7014C27.5696 14.7014 28.9392 16.0617 28.9392 17.7405H37.5644V14.2672Z" fill="black"/>
<path d="M4.37524 13.7463L6.99778 17.7405V14.2673L5.8322 12.5017H4.66664L4.37524 13.7463Z" fill="black"/>
<path d="M5.11556 12.9797H0.468994V13.749H5.11556V12.9797Z" fill="black"/>
<path d="M2.7463 11.0566C2.33835 11.0566 2.01782 11.375 2.01782 11.7802V12.1854H3.44563V11.7802C3.44563 11.375 3.12511 11.0566 2.7463 11.0566Z" fill="black"/>
<path d="M35.4372 7.43634H9.15356V8.9993H35.4372V7.43634Z" fill="black"/>
<path d="M35.4372 10.0703H9.15356V11.6332H35.4372V10.0703Z" fill="black"/>
<path d="M37.5648 6.22095H35.4084V14.2673H37.5648V6.22095Z" fill="black"/>
<path d="M9.15361 6.22095H6.99731V14.2673H9.15361V6.22095Z" fill="black"/>
<path d="M23.3734 6.22095H21.217V14.2673H23.3734V6.22095Z" fill="black"/>
</svg>
