<!-- Generated by IcoMoon.io -->
<svg version="1.1" xmlns="http://www.w3.org/2000/svg" width="130" height="32" viewBox="0 0 130 32">
<title>semitruck</title>
<path d="M1.797 3.766h89.85c0.782 0 1.415 0.666 1.415 1.442v16.348c0 0.814-0.633 1.442-1.415 1.442h-16.011c-0.261 0-0.596 0.148-0.745 0.333l-3.537 3.883c-0.149 0.185-0.521 0.333-0.745 0.333h-40.14c-0.261 0-0.596-0.148-0.745-0.333l-3.537-3.883c-0.149-0.185-0.521-0.333-0.745-0.333h-23.607c-0.782 0-1.415-0.666-1.415-1.442v-16.348c-0.037-0.814 0.596-1.442 1.378-1.442z"></path>
<path d="M79.434 28.51c-0.596 0-1.080-0.48-1.080-1.073s0.483-1.072 1.080-1.072c0.596 0 1.080 0.48 1.080 1.072s-0.484 1.073-1.080 1.073z"></path>
<path d="M79.433 23.887c1.974 0 3.537 1.59 3.537 3.513 0 1.96-1.601 3.514-3.537 3.514-1.974 0-3.537-1.59-3.537-3.514s1.601-3.513 3.537-3.513zM79.433 29.546c1.192 0 2.16-0.962 2.16-2.108 0-1.184-0.968-2.108-2.16-2.108s-2.16 0.962-2.16 2.108c0 1.147 0.968 2.108 2.16 2.108z"></path>
<path d="M21.607 28.51c-0.596 0-1.080-0.48-1.080-1.073s0.483-1.072 1.080-1.072c0.596 0 1.080 0.48 1.080 1.072s-0.483 1.073-1.080 1.073z"></path>
<path d="M21.606 23.887c1.974 0 3.538 1.59 3.538 3.513 0 1.96-1.601 3.514-3.538 3.514-1.974 0-3.537-1.59-3.537-3.514s1.564-3.513 3.537-3.513zM21.606 29.546c1.192 0 2.16-0.962 2.16-2.108 0-1.184-0.968-2.108-2.16-2.108s-2.16 0.962-2.16 2.108c0 1.147 0.968 2.108 2.16 2.108z"></path>
<path d="M13.861 28.51c-0.596 0-1.080-0.48-1.080-1.073s0.483-1.072 1.080-1.072c0.596 0 1.080 0.48 1.080 1.072s-0.483 1.073-1.080 1.073z"></path>
<path d="M13.862 23.887c1.974 0 3.537 1.59 3.537 3.513 0 1.96-1.601 3.514-3.537 3.514-1.974 0-3.537-1.59-3.537-3.514s1.601-3.513 3.537-3.513zM13.862 29.546c1.191 0 2.16-0.962 2.16-2.108 0-1.184-0.968-2.108-2.16-2.108s-2.16 0.962-2.16 2.108c0 1.147 0.968 2.108 2.16 2.108z"></path>
<path d="M6.154 28.51c-0.596 0-1.080-0.48-1.080-1.073s0.483-1.072 1.080-1.072c0.596 0 1.080 0.48 1.080 1.072s-0.483 1.073-1.080 1.073z"></path>
<path d="M6.153 23.887c1.973 0 3.537 1.59 3.537 3.513 0 1.96-1.601 3.514-3.537 3.514-1.974 0-3.537-1.59-3.537-3.514s1.601-3.513 3.537-3.513zM6.153 29.546c1.192 0 2.16-0.962 2.16-2.108 0-1.184-0.968-2.108-2.16-2.108s-2.16 0.962-2.16 2.108c0 1.147 0.968 2.108 2.16 2.108z"></path>
<path d="M120.951 28.51c-0.597 0-1.081-0.48-1.081-1.073s0.484-1.072 1.081-1.072c0.596 0 1.079 0.48 1.079 1.072s-0.484 1.073-1.079 1.073z"></path>
<path d="M120.951 23.887c1.974 0 3.538 1.59 3.538 3.513 0 1.96-1.602 3.514-3.538 3.514-1.974 0-3.538-1.59-3.538-3.514-0.037-1.923 1.564-3.513 3.538-3.513zM120.951 29.546c1.191 0 2.16-0.962 2.16-2.108 0-1.184-0.969-2.108-2.16-2.108s-2.16 0.962-2.16 2.108c0 1.147 0.969 2.108 2.16 2.108z"></path>
<path d="M87.141 28.51c-0.596 0-1.080-0.48-1.080-1.073s0.484-1.072 1.080-1.072c0.596 0 1.080 0.48 1.080 1.072s-0.484 1.073-1.080 1.073z"></path>
<path d="M87.141 23.887c1.974 0 3.537 1.59 3.537 3.513 0 1.96-1.601 3.514-3.537 3.514-1.974 0-3.537-1.59-3.537-3.514s1.601-3.513 3.537-3.513zM87.141 29.546c1.192 0 2.16-0.962 2.16-2.108 0-1.184-0.968-2.108-2.16-2.108s-2.16 0.962-2.16 2.108c0 1.147 0.968 2.108 2.16 2.108z"></path>
<path d="M97.941 23.48h-1.005c-0.335 0-0.596-0.259-0.596-0.592v-19.344c0-0.259-0.149-0.592-0.298-0.777l-1.713-1.997c-0.149-0.185-0.075-0.333 0.149-0.333h1.303c0.261 0 0.596 0.148 0.745 0.333l1.713 1.997c0.149 0.185 0.298 0.555 0.298 0.777v19.344c0.037 0.333-0.224 0.592-0.596 0.592z"></path>
<path d="M99.467 24.072c0.261 0 0.447-0.259 0.447-0.555v-14.831c0-0.259 0.186-0.444 0.447-0.444h-0.075c-0.186 0-0.372-0.148-0.372-0.37v-3.773c0-0.185 0.149-0.37 0.372-0.37h2.42c0.484 0 0.745 0.111 1.117 0.296l8.937 3.736c0.297 0.111 0.446 0.259 0.409 0.333 0 0.074-0.149 0.148-0.521 0.148h0.26c0.261 0 0.559 0.185 0.707 0.37l1.081 1.664c-0.112 0.111-0.149 0.259-0.075 0.37l1.712 3.144c0.373 0.666 1.081 1.775 1.825 1.923l8.452 1.59c0.745 0.148 1.341 0.851 1.341 1.59v3.033c-0.186 0.037-0.298 0.148-0.298 0.296v1.701c0 0.148 0.112 0.259 0.298 0.296v0.296c0 0.444 0.372 0.592 0.521 0.888 0.224 0.407 0.112 1.406 0 1.627s-0.186 0.444-1.081 0.444h-2.457c0-2.182-1.787-3.994-4.022-3.994-2.122 0-3.872 1.664-3.984 3.736v1.368c0 0.037-0.037 0.074-0.075 0.074s-0.074-0.037-0.111-0.074l-0.485-1.257c-0.037-0.148-0.223-0.259-0.372-0.259h-24.352c-0.261 0-0.447-0.185-0.447-0.444 0 0 0-1.59 0-2.071 0-0.259 0.186-0.444 0.41-0.444h7.968v-0.037zM108.478 18.117c0 0.185 0.149 0.333 0.336 0.333h0.93c0.186 0 0.336-0.148 0.336-0.333v-0.333c0-0.185-0.149-0.333-0.336-0.333h-0.93c-0.186 0-0.336 0.148-0.336 0.333v0.333zM107.77 15.158c0 0.37 0.224 0.629 0.485 0.629h4.244c0.261 0 0.521 0.148 0.67 0.444l1.191 2.256c0.186 0.296 0.485 0.296 0.745 0.296h0.894c0.26 0 0.484-0.222 0.484-0.555v-2.441c0-0.37-0.037-0.629-0.186-0.925l-2.159-4.031c-0.149-0.296-0.485-0.555-0.745-0.555h-5.138c-0.261 0-0.485 0.296-0.485 0.629v4.253zM101.329 15.565c0 0.185 0.149 0.37 0.372 0.37h4.096c0.186 0 0.373-0.148 0.373-0.37v-0.481c0-0.185-0.149-0.37-0.373-0.37h-4.096c-0.186 0-0.372 0.148-0.372 0.37v0.481zM101.329 13.42c0 0.185 0.149 0.37 0.372 0.37h4.096c0.186 0 0.373-0.148 0.373-0.37v-0.481c0-0.185-0.149-0.37-0.373-0.37h-4.096c-0.186 0-0.372 0.148-0.372 0.37v0.481zM101.329 11.275c0 0.185 0.149 0.37 0.372 0.37h4.096c0.186 0 0.373-0.148 0.373-0.37v-0.481c0-0.185-0.149-0.37-0.373-0.37h-4.096c-0.186 0-0.372 0.148-0.372 0.37v0.481z"></path>
</svg>
