<!-- Generated by IcoMoon.io -->
<svg version="1.1" xmlns="http://www.w3.org/2000/svg" width="58" height="32" viewBox="0 0 58 32">
<title>tractortrailer</title>
<path d="M27.758 3.834c3.419-3.396 8.925-3.396 12.344 0l13.898 13.805v-1.235l-13.276-13.187c-1.821-1.808-4.218-2.779-6.794-2.779s-4.973 0.97-6.794 2.779l-13.188 13.099v1.235l13.809-13.717z"></path>
<path d="M28.512 30.914c2.158 0 3.907-1.738 3.907-3.881s-1.749-3.881-3.907-3.881c-2.158 0-3.907 1.738-3.907 3.881s1.75 3.881 3.907 3.881z"></path>
<path d="M39.436 30.914c2.158 0 3.907-1.738 3.907-3.881s-1.749-3.881-3.907-3.881c-2.158 0-3.907 1.738-3.907 3.881s1.749 3.881 3.907 3.881z"></path>
<path d="M57.241 21.741h-46.578v5.293h13.143c0-2.558 2.087-4.631 4.707-4.631 2.575 0 4.662 2.073 4.662 4.631h1.554c0-2.558 2.087-4.631 4.707-4.631 2.575 0 4.662 2.073 4.662 4.631h13.143v-5.293z"></path>
<path d="M6.667 20.947l3.996 6.086v-5.293l-1.776-2.69h-1.776l-0.444 1.897z"></path>
<path d="M7.795 19.779h-7.080v1.172h7.080v-1.172z"></path>
<path d="M4.185 16.848c-0.622 0-1.11 0.485-1.11 1.103v0.617h2.176v-0.617c0-0.617-0.488-1.103-1.066-1.103z"></path>
<path d="M54 11.332h-40.051v2.382h40.051v-2.382z"></path>
<path d="M54 15.345h-40.051v2.382h40.051v-2.382z"></path>
<path d="M57.242 9.48h-3.286v12.261h3.286v-12.261z"></path>
<path d="M13.948 9.48h-3.286v12.261h3.286v-12.261z"></path>
<path d="M35.617 9.48h-3.286v12.261h3.286v-12.261z"></path>
</svg>
