<!-- Generated by IcoMoon.io -->
<svg version="1.1" xmlns="http://www.w3.org/2000/svg" width="122" height="32" viewBox="0 0 122 32">
<title>trailer</title>
<path d="M7.473 20.697c-1.67 0.786-2.989 2.27-3.429 4.104-0.264-0.349-0.527-0.873-0.791-1.572s-0.352-1.397-0.352-2.183v-0.786h4.484c0.264 0 0.264 0.349 0.088 0.437z"></path>
<path d="M12.573 20.697c-0.176-0.087-0.176-0.437 0.088-0.437h5.978c0.264 0 0.352 0.349 0.088 0.437-1.231 0.524-2.286 1.485-2.901 2.707-0.088 0.175-0.264 0.175-0.352 0-0.615-1.223-1.67-2.183-2.901-2.707z"></path>
<path d="M10.023 21.309c2.637 0 4.835 2.183 4.835 4.803s-2.198 4.803-4.835 4.803-4.835-2.183-4.835-4.803c0-2.62 2.198-4.803 4.835-4.803zM10.023 28.993c1.582 0 2.813-1.223 2.813-2.794s-1.231-2.794-2.813-2.794c-1.582 0-2.813 1.223-2.813 2.794 0 1.485 1.319 2.794 2.813 2.794z"></path>
<path d="M21.363 21.309c2.637 0 4.835 2.183 4.835 4.803s-2.198 4.803-4.835 4.803-4.835-2.183-4.835-4.803c-0.088-2.62 2.11-4.803 4.835-4.803zM21.363 28.993c1.582 0 2.813-1.223 2.813-2.794s-1.231-2.794-2.813-2.794c-1.582 0-2.813 1.223-2.813 2.794 0 1.485 1.231 2.794 2.813 2.794z"></path>
<path d="M111.738 21.134c2.637 0 4.835 2.183 4.835 4.803s-2.198 4.803-4.835 4.803c-2.637 0-4.835-2.183-4.835-4.803s2.198-4.803 4.835-4.803zM111.738 28.731c1.582 0 2.813-1.223 2.813-2.794s-1.23-2.794-2.813-2.794c-1.582 0-2.813 1.223-2.813 2.794s1.319 2.794 2.813 2.794z"></path>
<path d="M76.399 21.134c2.637 0 4.835 2.183 4.835 4.803s-2.198 4.803-4.835 4.803c-2.637 0-4.835-2.183-4.835-4.803s2.198-4.803 4.835-4.803zM76.399 28.731c1.582 0 2.813-1.223 2.813-2.794s-1.231-2.794-2.813-2.794c-1.582 0-2.813 1.223-2.813 2.794s1.319 2.794 2.813 2.794z"></path>
<path d="M65.495 21.134c2.638 0 4.835 2.183 4.835 4.803s-2.198 4.803-4.835 4.803c-2.637 0-4.835-2.183-4.835-4.803-0.088-2.62 2.11-4.803 4.835-4.803zM65.495 28.731c1.583 0 2.813-1.223 2.813-2.794s-1.231-2.794-2.813-2.794c-1.582 0-2.813 1.223-2.813 2.794s1.231 2.794 2.813 2.794z"></path>
<path d="M88.266 2.359h5.099c0.088 0 0.176 0.087 0.176 0.175v1.834c0 0.087-0.088 0.175-0.176 0.175h-5.187c-0.088 0-0.176-0.087-0.176-0.175v-1.834c0.088-0.087 0.176-0.175 0.264-0.175z"></path>
<path d="M23.825 20.61c-0.264-0.087-0.176-0.437 0.088-0.437h56.793v0.611h3.077v-1.834h1.231l0.791-17.727c0-0.437 0.352-0.786 0.791-0.786h10.55c1.67 0 3.341 0.611 4.572 1.746l0.352 0.349c0 0 6.154 2.969 6.33 3.231 1.582 2.358-2.462-3.144 0.703 6.811l7.122 1.31c3.428 0.786 4.307 1.572 4.307 1.572l0.264 2.532c1.055 0.873 0.879 1.921 0.967 2.794 0 0.175 0 0.349 0 0.437s0 0.175 0 0.262v2.358c0 1.135-0.967 2.096-2.111 2.096h-2.637c0-3.056-2.462-5.501-5.538-5.501s-5.539 2.445-5.539 5.501h-24.001c0-0.349 0-0.699-0.088-0.961 0-0.087-0.088-0.262-0.088-0.349-0.088-0.175-0.088-0.349-0.176-0.611-0.088-0.175-0.088-0.262-0.176-0.437-0.088-0.087-0.088-0.175-0.176-0.349-0.967-1.746-2.725-2.882-4.835-2.882-0.615 0-1.231 0.175-1.846 0.349-1.934 0.698-3.341 2.358-3.604 4.454-0.264-2.096-1.67-3.842-3.692-4.453-0.615-0.175-1.143-0.349-1.846-0.349-0.615 0-1.231 0.175-1.758 0.349-2.198 0.786-3.78 2.794-3.78 5.152h-2.022v-0.087c-0.615-0.087-1.055-0.524-1.231-1.135h-15.824v0.175h-13.363c-0.088 0-0.176-0.087-0.176-0.175-0.352-1.746-1.67-3.231-3.429-4.017zM100.486 15.196h0.879c0.176 0 0.352-0.175 0.352-0.349s-0.176-0.349-0.352-0.349h-0.879c-0.176 0-0.352 0.175-0.352 0.349s0.088 0.349 0.352 0.349zM99.87 12.052c0 0.611 0.527 1.135 1.143 1.135h5.802c0.791 0 1.319-0.699 1.143-1.397l-0.967-3.58c-0.176-0.524-0.615-0.873-1.143-0.873h-4.835c-0.615 0-1.143 0.524-1.143 1.135v3.58zM98.816 24.103c0-0.786-0.615-1.397-1.319-1.397s-1.319 0.611-1.319 1.397h2.638zM98.816 21.832c0-0.786-0.615-1.397-1.319-1.397s-1.319 0.611-1.319 1.397h2.638zM87.738 4.455c0 0.262 0.176 0.437 0.44 0.437h5.187c0.264 0 0.439-0.175 0.439-0.437v-1.834c0-0.262-0.176-0.437-0.439-0.437h-5.187c-0.264 0-0.44 0.175-0.44 0.437v1.834z"></path>
<path d="M0 17.117h81.672v2.358h-81.672v-2.358z"></path>
</svg>
