<!-- Generated by IcoMoon.io -->
<svg version="1.1" xmlns="http://www.w3.org/2000/svg" width="72" height="32" viewBox="0 0 72 32">
<title>truck</title>
<path d="M19.908 22.229c2.385 0 4.372 1.974 4.372 4.342s-1.987 4.342-4.372 4.342c-2.385 0-4.372-1.974-4.372-4.342s1.987-4.342 4.372-4.342zM19.908 29.177c1.431 0 2.544-1.184 2.544-2.526s-1.192-2.605-2.544-2.605c-1.431 0-2.623 1.184-2.623 2.605s1.192 2.526 2.623 2.526z"></path>
<path d="M57.903 22.229c2.385 0 4.372 1.974 4.372 4.342s-1.987 4.342-4.372 4.342c-2.385 0-4.372-1.974-4.372-4.342s1.987-4.342 4.372-4.342zM57.903 29.177c1.431 0 2.544-1.184 2.544-2.526s-1.192-2.605-2.544-2.605c-1.431 0-2.544 1.184-2.544 2.605s1.113 2.526 2.544 2.526z"></path>
<path d="M54.564 21.519l1.192-0.947c0.795 0 2.067 0 2.623 0 0.795 0 2.623 0.158 4.054 1.816 0.954 1.106 1.272 2.684 1.431 3.553l-1.033 0.158c-0.238-2.448-2.385-4.343-4.849-4.343-2.702 0-4.928 2.211-4.928 4.895 0 0.237 0 0.474 0.080 0.711l-1.033 0.158c0 0 0.238-1.895 0.556-3.079 0.238-1.184 1.908-2.921 1.908-2.921z"></path>
<path d="M64.341 25.703h-0.238c-0.238-1.026-0.636-2.211-1.272-3.079-1.51-2.132-3.418-2.29-4.292-2.369-0.715 0-2.544 0-3.259 0v-0.395l-0.556-1.184v-11.054c0 0 8.902 0 10.174 0 0.080 0 0.238 0 0.318 0.079 0.477 0.158 1.033 0.395 1.431 1.026 1.192 1.974 2.623 7.5 2.544 8.29 0.159 0.079 0.238 0.079 0.238 0.079v7.895h0.636l0.556 0.79-0.238 1.579-0.397 0.395h-7.154v-1.263l1.669-0.158-0.159-0.632zM65.454 17.966c1.113 0.079 1.987 0.079 2.305-0.158s-0.079-2.526-0.556-3.948c-0.477-1.421-1.272-4.816-1.749-5.053-0.397-0.158-0.715-0.158-1.192-0.158h-6.359c-0.238 0-0.397 0.237-0.397 0.553v4.737c0 0.316 0.159 0.553 0.397 0.553h3.1c0.397 0 0.874-0.079 1.272 0.079s0.874 0.474 1.192 0.947c0.556 1.026 0.874 2.29 1.987 2.448z"></path>
<path d="M1.944 0.438h47.931c0.477 0 0.795 0.395 0.795 0.79v19.028c0 0.474-0.398 0.79-0.795 0.79h-47.931c-0.477 0-0.795-0.395-0.795-0.79v-18.949c0-0.474 0.318-0.869 0.795-0.869z"></path>
<path d="M14.979 24.993h-10.89v1.974c0 0.237-0.238 0.474-0.477 0.474s-0.477-0.237-0.477-0.474v-5.211h13.672c-0.954 0.79-1.669 1.974-1.828 3.237z"></path>
<path d="M23.008 21.756h30.841c-0.397 0.474-1.51 1.737-1.828 2.684-0.079 0.158-0.079 0.316-0.159 0.553h-27.026c-0.159-1.263-0.874-2.448-1.828-3.237z"></path>
<path d="M27.697 25.387h4.054l-7.074 1.895c0-0.079 0-0.158 0-0.237 0-0.237-0.080-0.553-0.080-0.79l3.1-0.868z"></path>
<path d="M33.739 25.387h10.333v1.895h-10.333v-1.895z"></path>
<path d="M46.138 25.387h5.087c0.238 0 0.477 0.237 0.477 0.474v0.868c0 0.237-0.238 0.474-0.477 0.474h-5.087c-0.238 0-0.477-0.237-0.477-0.474v-0.868c0-0.316 0.159-0.474 0.477-0.474z"></path>
<path d="M53.609 21.124h-1.669c-0.238 0-0.477-0.237-0.477-0.474v-5.843c0-0.237 0.238-0.474 0.477-0.474h0.238v-10.896h1.272v10.896h0.238c0.238 0 0.477 0.237 0.477 0.474v5.843c-0.079 0.237-0.238 0.474-0.556 0.474z"></path>
</svg>
