<svg width="656" height="566" viewBox="0 0 656 566" fill="none" xmlns="http://www.w3.org/2000/svg">
<path opacity="0.2" d="M118.775 562.322L6.6898 497.869C-2.89837 492.314 -1.74779 482.641 9.37449 476.224L496.07 194.179C507.192 187.762 523.972 187.092 533.656 192.647L645.741 257.005C655.329 262.56 654.179 272.232 643.057 278.649L156.265 560.694C145.143 567.111 128.364 567.781 118.68 562.227L118.775 562.322Z" fill="#92B4D1"/>
<path d="M28.3581 387.828C28.3581 387.828 27.7828 387.732 27.5911 387.445L21.7423 379.496C20.0164 377.101 19.0576 374.324 19.0576 371.355V354.978C19.0576 348.657 23.3723 343.199 29.5087 341.57L38.3298 339.368C38.9051 339.272 39.3845 339.559 39.4804 340.038C39.5763 340.517 39.2887 341.092 38.8092 341.187L29.9881 343.39C24.7146 344.731 21.0711 349.424 21.0711 354.883V371.259C21.0711 373.749 21.8382 376.239 23.3723 378.251L29.2211 386.2C29.2211 386.2 29.4128 387.253 29.0293 387.54C28.8375 387.636 28.6458 387.732 28.454 387.732L28.3581 387.828Z" fill="#A8CFF0"/>
<path d="M23.6606 375.856L18.8665 373.079C16.7571 371.834 15.0312 368.578 15.0312 365.8V351.435C15.0312 348.657 16.7571 347.317 18.8665 348.562L23.6606 351.339C25.77 352.584 27.4959 355.84 27.4959 358.617V372.983C27.4959 375.76 25.77 377.101 23.6606 375.856Z" fill="#A8CFF0"/>
<path d="M23.66 351.435L18.8659 348.657C17.6194 347.987 16.5647 348.083 15.8936 348.849C16.373 348.849 16.9483 348.849 17.5235 349.232L22.3176 352.009C24.427 353.254 26.1529 356.511 26.1529 359.288V373.654C26.1529 374.803 25.8652 375.761 25.29 376.335C26.5364 376.335 27.3994 374.994 27.3994 373.079V358.713C27.3994 355.936 25.6735 352.68 23.5641 351.435H23.66Z" fill="#72B5E8"/>
<path d="M392.037 354.978V381.411L481.111 329.695V303.453L392.037 354.978Z" fill="#03336E"/>
<path d="M392.037 354.978V381.411L366.916 367.141V340.708L392.037 354.978Z" fill="#084C94"/>
<path d="M366.916 340.708L392.037 354.978L481.111 303.453L456.086 289.184L366.916 340.708Z" fill="#2672AB"/>
<path d="M645.933 205.767V239.383L649.193 236.701V203.181L645.933 205.767Z" fill="#03336E"/>
<path d="M645.933 205.767V239.383L565.776 194.37V160.659L645.933 205.767Z" fill="#084C94"/>
<path d="M565.776 160.659L645.933 205.767L649.193 203.181L569.036 158.169L565.776 160.659Z" fill="#2672AB"/>
<path d="M628.291 214.291V264.379L619.662 259.591V209.215L628.291 214.291Z" fill="#A8CFF0"/>
<path d="M556.379 278.936C556.379 287.46 559.351 293.589 564.145 296.462C564.337 296.462 579.295 305.273 579.486 305.369C584.472 308.146 581.308 301.825 588.883 297.42C604.128 288.609 616.593 267.252 616.593 249.726C616.593 241.107 624.647 241.011 619.661 238.138C619.565 238.138 603.553 229.231 603.361 229.135C598.375 226.454 591.568 226.933 584.089 231.242C568.844 240.053 556.379 261.41 556.379 278.936V278.936Z" fill="#084C94"/>
<path d="M572.393 288.035C572.393 305.561 584.761 312.648 600.102 303.837C615.348 295.026 627.812 273.669 627.812 256.143C627.812 238.617 615.443 231.53 600.102 240.341C584.761 249.152 572.393 270.509 572.393 288.035V288.035Z" fill="#03336E"/>
<path d="M598.758 239.67C606.045 235.456 612.757 234.882 617.647 237.372C613.044 236.127 607.291 237.085 601.059 240.628C585.814 249.439 573.349 270.796 573.349 288.322C573.349 297.42 576.705 303.741 582.074 306.423C575.363 304.507 570.952 297.803 570.952 287.364C570.952 269.838 583.321 248.481 598.662 239.67H598.758Z" fill="#2672AB"/>
<path d="M600.294 252.982C590.418 258.633 582.364 272.52 582.364 283.821C582.364 295.122 590.418 299.719 600.294 293.972C610.17 288.322 618.224 274.435 618.224 263.134C618.224 251.833 610.17 247.236 600.294 252.982V252.982Z" fill="#A8CFF0"/>
<path d="M611.8 251.258C614.484 253.27 616.21 257.005 616.21 262.081C616.21 273.382 608.156 287.173 598.28 292.919C593.87 295.409 589.843 295.888 586.774 294.643C590.034 297.133 594.924 297.133 600.294 293.972C610.17 288.322 618.224 274.435 618.224 263.134C618.224 256.909 615.731 252.695 611.895 251.163L611.8 251.258Z" fill="#72B5E8"/>
<path d="M588.788 278.17C588.788 284.108 593.007 286.502 598.089 283.533C603.266 280.564 607.389 273.382 607.389 267.444C607.389 261.506 603.17 259.112 598.089 262.081C592.911 265.05 588.788 272.232 588.788 278.17Z" fill="#3F92D1"/>
<path d="M590.321 279.128C590.321 285.066 594.54 287.46 599.622 284.491C604.799 281.522 608.922 274.339 608.922 268.401C608.922 262.464 604.704 260.069 599.622 263.038C594.444 266.007 590.321 273.19 590.321 279.128Z" fill="#2672AB"/>
<path d="M496.357 314.18C496.357 322.703 499.33 328.833 504.124 331.706C504.316 331.706 519.273 340.517 519.465 340.613C524.451 343.39 521.287 337.069 528.861 332.664C544.106 323.853 556.571 302.496 556.571 284.97C556.571 276.35 564.625 276.255 559.639 273.381C559.543 273.381 543.531 264.475 543.339 264.379C538.354 261.697 531.546 262.176 524.067 266.486C508.822 275.297 496.357 296.654 496.357 314.18Z" fill="#084C94"/>
<path d="M512.465 323.182C512.465 340.708 524.834 347.795 540.175 338.984C555.42 330.174 567.884 308.817 567.884 291.291C567.884 273.765 555.516 266.677 540.175 275.488C524.929 284.299 512.465 305.656 512.465 323.182Z" fill="#03336E"/>
<path d="M538.736 274.914C546.023 270.7 552.735 270.125 557.625 272.615C553.023 271.37 547.27 272.328 541.038 275.872C525.792 284.683 513.328 306.039 513.328 323.566C513.328 332.664 516.684 338.985 522.053 341.666C515.341 339.751 510.931 333.047 510.931 322.608C510.931 305.082 523.299 283.725 538.64 274.914H538.736Z" fill="#2672AB"/>
<path d="M540.272 288.13C530.396 293.781 522.342 307.668 522.342 318.969C522.342 330.27 530.396 334.867 540.272 329.12C550.148 323.47 558.202 309.583 558.202 298.282C558.202 286.981 550.148 282.384 540.272 288.13V288.13Z" fill="#A8CFF0"/>
<path d="M551.874 286.406C554.558 288.418 556.284 292.153 556.284 297.229C556.284 308.53 548.23 322.321 538.354 328.067C533.944 330.653 529.917 331.036 526.849 329.791C530.109 332.281 534.999 332.281 540.368 329.12C550.244 323.47 558.298 309.583 558.298 298.282C558.298 292.057 555.805 287.939 551.97 286.311L551.874 286.406Z" fill="#72B5E8"/>
<path d="M528.766 313.414C528.766 319.352 532.984 321.746 538.066 318.777C543.244 315.808 547.367 308.625 547.367 302.687C547.367 296.75 543.148 294.355 538.066 297.324C532.889 300.293 528.766 307.476 528.766 313.414V313.414Z" fill="#3F92D1"/>
<path d="M530.395 314.276C530.395 320.213 534.613 322.608 539.695 319.639C544.873 316.67 548.996 309.487 548.996 303.549C548.996 297.612 544.777 295.217 539.695 298.186C534.517 301.155 530.395 308.338 530.395 314.276V314.276Z" fill="#2672AB"/>
<path d="M497.796 289.567V339.559L506.809 334.483V294.643L628.291 224.538V264.379L637.208 259.207V209.215L497.796 289.567Z" fill="#72B5E8"/>
<path d="M497.796 289.663V339.655L489.07 334.866V284.491L497.796 289.663Z" fill="#A8CFF0"/>
<path d="M406.709 377.006L411.215 379.687L485.236 337.069L480.634 334.483L406.709 377.006Z" fill="#D1EBFF"/>
<path d="M485.236 310.062V337.165L480.634 334.483V307.284L485.236 310.062Z" fill="#A8CFF0"/>
<path d="M404.504 352.967V391.467L492.044 340.804V302.592L404.504 352.967V352.967ZM485.236 336.878L411.407 379.687V356.894L485.236 314.371V336.878Z" fill="#72B5E8"/>
<path d="M404.504 352.967V391.467L398.751 388.594V349.807L404.504 352.967Z" fill="#A8CFF0"/>
<path d="M398.751 349.807L404.504 352.967L492.044 302.592L486.195 299.527L398.751 349.807Z" fill="#D1EBFF"/>
<path d="M321.086 415.889C321.086 424.412 324.058 430.542 328.852 433.415C328.948 433.415 344.002 442.226 344.193 442.322C349.179 445.099 346.015 438.778 353.59 434.373C368.835 425.562 381.3 404.205 381.3 386.679C381.3 378.059 389.354 377.963 384.368 375.09C384.272 375.09 368.26 366.184 368.068 366.088C363.082 363.406 356.275 363.885 348.796 368.195C333.551 377.006 321.086 398.363 321.086 415.889V415.889Z" fill="#084C94"/>
<path d="M337.099 424.987C337.099 442.513 349.467 449.6 364.808 440.789C380.054 431.978 392.518 410.621 392.518 393.095C392.518 375.569 380.15 368.482 364.808 377.293C349.563 386.104 337.099 407.461 337.099 424.987V424.987Z" fill="#03336E"/>
<path d="M363.465 376.718C370.752 372.505 377.464 371.93 382.354 374.42C377.751 373.175 371.998 374.133 365.766 377.676C350.521 386.487 338.056 407.844 338.056 425.37C338.056 434.468 341.412 440.789 346.781 443.471C340.07 441.555 335.659 434.851 335.659 424.412C335.659 406.886 348.028 385.529 363.369 376.718H363.465Z" fill="#2672AB"/>
<path d="M364.999 389.935C355.123 395.585 347.069 409.472 347.069 420.773C347.069 432.074 355.123 436.671 364.999 430.925C374.875 425.178 382.929 411.387 382.929 400.087C382.929 388.786 374.875 384.189 364.999 389.935Z" fill="#A8CFF0"/>
<path d="M376.506 388.211C379.19 390.222 380.916 393.957 380.916 399.033C380.916 410.334 372.862 424.125 362.986 429.871C358.576 432.361 354.549 432.84 351.48 431.595C354.74 434.085 359.63 434.085 365 430.925C374.876 425.274 382.93 411.388 382.93 400.087C382.93 393.861 380.437 389.743 376.601 388.115L376.506 388.211Z" fill="#72B5E8"/>
<path d="M353.493 415.123C353.493 421.06 357.712 423.455 362.794 420.486C367.971 417.517 372.094 410.334 372.094 404.396C372.094 398.458 367.875 396.064 362.794 399.033C357.616 402.002 353.493 409.185 353.493 415.123Z" fill="#3F92D1"/>
<path d="M355.027 416.08C355.027 422.018 359.246 424.412 364.328 421.443C369.505 418.474 373.628 411.292 373.628 405.354C373.628 399.416 369.41 397.022 364.328 399.991C359.15 402.96 355.027 410.142 355.027 416.08Z" fill="#2672AB"/>
<path d="M220.411 459.848V498.347L335.853 431.787V393.574L220.411 459.848Z" fill="#72B5E8"/>
<g style="mix-blend-mode:multiply">
<path d="M302.966 412.728V449.887L304.883 448.93V411.675L302.966 412.728Z" fill="#A8CFF0"/>
</g>
<path d="M304.883 411.675V448.834L305.937 448.259V411.1L304.883 411.675Z" fill="#A8CFF0"/>
<g style="mix-blend-mode:multiply">
<path d="M220.411 469.712V495.379L297.404 450.941C297.404 439.64 285.131 432.553 275.255 438.203L220.411 469.712V469.712Z" fill="#A8CFF0"/>
</g>
<g style="mix-blend-mode:multiply">
<path d="M275.255 438.203L220.411 469.712V473.16L275.255 441.651C284.077 436.575 294.911 441.843 297.021 451.228L297.404 451.037C297.404 439.736 285.131 432.649 275.255 438.299V438.203Z" fill="#A8CFF0"/>
</g>
<path d="M220.411 459.848V498.348L129.228 446.535V407.748L220.411 459.848Z" fill="#A8CFF0"/>
<path d="M129.228 407.748L220.411 459.847L335.853 393.574L244.573 341.57L129.228 407.748Z" fill="#D1EBFF"/>
<path d="M651.878 65.463V204.905L236.23 446.344V306.518L651.878 65.463Z" fill="#084C94"/>
<path opacity="0.3" d="M645.263 76.8596L242.752 310.253V434.947L645.263 201.17V76.8596Z" fill="#2672AB"/>
<path d="M641.14 199.446V79.3497L645.263 76.8596V201.17L242.752 434.947V430.829L641.14 199.446Z" fill="#03336E"/>
<path d="M236.327 306.518V446.344L122.228 381.507V241.394L236.327 306.518Z" fill="#2672AB"/>
<path d="M122.228 241.394L236.327 306.518L651.878 65.4629L537.779 0.530273L122.228 241.394Z" fill="#3F92D1"/>
<g opacity="0.3">
<path d="M253.777 306.901L251.955 308.051V425.466L253.777 424.316V306.901Z" fill="#03336E"/>
<path d="M269.981 297.516L268.159 298.665V416.08L269.981 414.931V297.516Z" fill="#03336E"/>
<path d="M286.281 288.13L284.459 289.184V406.599L286.281 405.449V288.13Z" fill="#03336E"/>
<path d="M302.581 278.649L300.759 279.798V397.213L302.581 396.064V278.649Z" fill="#03336E"/>
<path d="M318.785 269.263L316.963 270.413V387.828L318.785 386.679V269.263Z" fill="#03336E"/>
<path d="M335.083 259.878L333.262 260.931V378.346L335.083 377.293V259.878Z" fill="#03336E"/>
<path d="M351.384 250.396L349.467 251.546V368.961L351.384 367.811V250.396Z" fill="#03336E"/>
<path d="M367.587 241.011L365.766 242.16V359.575L367.587 358.426V241.011Z" fill="#03336E"/>
<path d="M383.888 231.625L382.066 232.679V350.094L383.888 349.041V231.625Z" fill="#03336E"/>
<path d="M400.092 222.144L398.271 223.293V340.709L400.092 339.559V222.144Z" fill="#03336E"/>
<path d="M416.393 212.759L414.571 213.908V331.323L416.393 330.174V212.759Z" fill="#03336E"/>
<path d="M432.692 203.373L430.774 204.426V321.841L432.692 320.788V203.373Z" fill="#03336E"/>
<path d="M448.897 193.892L447.075 195.041V312.456L448.897 311.307V193.892Z" fill="#03336E"/>
<path d="M465.196 184.506L463.374 185.655V303.07L465.196 301.921V184.506Z" fill="#03336E"/>
<path d="M481.496 175.12L479.578 176.174V293.589L481.496 292.536V175.12Z" fill="#03336E"/>
<path d="M497.7 165.639L495.878 166.789V284.204L497.7 283.054V165.639Z" fill="#03336E"/>
<path d="M514 156.254L512.179 157.403V274.818L514 273.669V156.254Z" fill="#03336E"/>
<path d="M530.205 146.868L528.383 147.922V265.337L530.205 264.283V146.868Z" fill="#03336E"/>
<path d="M546.503 137.387L544.682 138.536V255.951L546.503 254.802V137.387Z" fill="#03336E"/>
<path d="M562.803 128.001L560.886 129.151V246.566L562.803 245.416V128.001Z" fill="#03336E"/>
<path d="M579.007 118.616L577.186 119.765V237.084L579.007 236.031V118.616Z" fill="#03336E"/>
<path d="M595.306 109.134L593.484 110.284V227.699L595.306 226.55V109.134Z" fill="#03336E"/>
<path d="M611.511 99.7489L609.689 100.898V218.313L611.511 217.164V99.7489Z" fill="#03336E"/>
<path d="M627.811 90.3634L625.989 91.5127V208.928L627.811 207.778V90.3634Z" fill="#03336E"/>
</g>
<g opacity="0.3">
<path d="M255.695 304.411L253.777 305.561V422.976L255.695 421.826V304.411Z" fill="#3F92D1"/>
<path d="M271.9 295.026L270.078 296.175V413.59L271.9 412.441V295.026Z" fill="#3F92D1"/>
<path d="M288.199 285.64L286.377 286.694V404.109L288.199 403.055V285.64Z" fill="#3F92D1"/>
<path d="M304.499 276.159L302.581 277.308V394.723L304.499 393.574V276.159Z" fill="#3F92D1"/>
<path d="M320.703 266.773L318.881 267.923V385.338L320.703 384.189V266.773Z" fill="#3F92D1"/>
<path d="M337.002 257.388L335.181 258.537V375.856L337.002 374.803V257.388Z" fill="#3F92D1"/>
<path d="M353.207 247.906L351.386 249.056V366.471L353.207 365.322V247.906Z" fill="#3F92D1"/>
<path d="M369.507 238.521L367.686 239.67V357.085L369.507 355.936V238.521Z" fill="#3F92D1"/>
<path d="M385.807 229.135L383.89 230.284V347.7L385.807 346.55V229.135Z" fill="#3F92D1"/>
<path d="M402.012 219.654L400.19 220.803V338.218L402.012 337.069V219.654Z" fill="#3F92D1"/>
<path d="M418.31 210.268L416.488 211.418V328.833L418.31 327.683V210.268Z" fill="#3F92D1"/>
<path d="M434.515 200.883L432.693 202.032V319.447L434.515 318.298V200.883Z" fill="#3F92D1"/>
<path d="M450.815 191.402L448.993 192.551V309.966L450.815 308.817V191.402Z" fill="#3F92D1"/>
<path d="M467.113 182.016L465.291 183.165V300.58L467.113 299.431V182.016Z" fill="#3F92D1"/>
<path d="M483.319 172.63L481.497 173.78V291.195L483.319 290.045V172.63Z" fill="#3F92D1"/>
<path d="M499.618 163.245L497.796 164.298V281.713L499.618 280.564V163.245Z" fill="#3F92D1"/>
<path d="M515.919 153.763L514.001 154.913V272.328L515.919 271.179V153.763Z" fill="#3F92D1"/>
<path d="M532.123 144.378L530.301 145.527V262.943L532.123 261.793V144.378Z" fill="#3F92D1"/>
<path d="M548.422 134.993L546.601 136.046V253.461L548.422 252.408V134.993Z" fill="#3F92D1"/>
<path d="M564.625 125.511L562.804 126.661V244.076L564.625 242.926V125.511Z" fill="#3F92D1"/>
<path d="M580.926 116.126L579.104 117.275V234.69L580.926 233.541V116.126Z" fill="#3F92D1"/>
<path d="M597.224 106.74L595.307 107.794V225.209L597.224 224.155V106.74Z" fill="#3F92D1"/>
<path d="M613.43 97.2588L611.608 98.408V215.823L613.43 214.674V97.2588Z" fill="#3F92D1"/>
<path d="M629.73 87.8733L627.908 89.0225V206.438L629.73 205.288V87.8733Z" fill="#3F92D1"/>
</g>
<path d="M122.42 284.012L47.4406 327.588C38.236 332.759 31.6201 341.57 29.0313 351.722L18.4843 393.287C15.3202 405.737 13.7861 418.474 13.7861 431.212V479.863L120.694 540.295V497.102C120.694 481.3 123.091 465.594 127.885 450.558L141.501 407.461C144.473 398.171 150.801 390.222 159.335 385.433L229.424 344.635L122.516 284.012H122.42Z" fill="#A8CFF0"/>
<path d="M120.599 496.815V540.295L177.84 507.446L182.251 482.258L229.424 454.197V344.539L159.047 385.529C150.514 390.414 144.09 398.267 141.213 407.652L127.694 450.653C122.996 465.594 120.599 481.109 120.599 496.815V496.815Z" fill="#72B5E8"/>
<path d="M122.133 496.623C122.133 481.013 124.53 465.402 129.228 450.462L142.748 407.461C145.72 398.075 152.048 390.222 160.582 385.338L228.753 345.689V343.869L158.376 384.859C149.843 389.743 143.419 397.596 140.542 406.982L127.023 449.983C122.325 464.923 119.928 480.438 119.928 496.145V539.625L122.133 538.38V496.719V496.623Z" fill="#D1EBFF"/>
<path d="M147.638 409.663L134.119 452.76C133.16 455.729 136.42 458.315 139.104 456.687L181.484 431.978C184.265 430.35 185.99 427.381 185.99 424.125V388.785C185.99 386.2 183.114 384.476 180.813 385.816L154.541 401.14C151.281 403.055 148.788 406.024 147.638 409.568V409.663Z" fill="#03336E"/>
<path d="M182.635 385.433C183.593 386.008 184.169 387.061 184.169 388.307V423.646C184.169 426.902 182.443 429.871 179.662 431.499L137.283 456.208C136.707 456.495 136.132 456.687 135.557 456.687C136.515 457.357 137.858 457.549 139.104 456.783L181.484 432.074C184.265 430.446 185.99 427.477 185.99 424.221V388.881C185.99 386.87 184.36 385.433 182.539 385.433H182.635Z" fill="#001A46"/>
<path d="M102.477 463.008V479.002C102.477 495.953 84.1632 506.584 69.3975 498.156L54.0564 489.441C37.2771 479.864 26.9219 462.05 26.9219 442.704V419.719L102.477 463.104V463.008Z" fill="#3F92D1"/>
<path d="M80.3286 495.187C77.548 495.187 74.8634 494.421 72.3704 492.984L57.0294 484.269C42.0718 475.745 32.8672 459.847 32.8672 442.609V424.604L96.6285 461.188V478.906C96.6285 488.962 88.1909 495.091 80.4245 495.091L80.3286 495.187Z" fill="#03336E"/>
<path d="M81.767 494.804C78.9865 494.804 76.3018 494.038 73.8088 492.601L58.4678 483.886C43.5102 475.362 34.3056 459.464 34.3056 442.225V425.466L32.7715 424.604V442.609C32.7715 459.752 42.072 475.745 56.9337 484.269L72.2747 492.984C74.7677 494.421 77.4524 495.187 80.2329 495.187C81.767 495.187 83.3011 494.995 84.7394 494.516C83.7805 494.708 82.7258 494.804 81.6711 494.804H81.767Z" fill="#001A46"/>
<path d="M40.7298 469.041L85.0272 494.516C86.0819 494.229 87.1366 493.75 88.0954 493.176L37.9493 464.444C38.8122 466.073 39.6751 467.605 40.634 469.137L40.7298 469.041ZM34.5934 455.729L92.8895 489.249C93.4648 488.579 93.9442 487.812 94.4236 487.046L33.7305 452.186C34.0181 453.431 34.3058 454.58 34.5934 455.825V455.729ZM32.7717 442.704C32.7717 443.375 32.7717 444.141 32.7717 444.811L96.2453 481.3C96.3412 480.534 96.4371 479.768 96.4371 479.002V478.235L32.6758 441.651V442.704H32.7717ZM32.7717 431.882V435.043L96.533 471.627V468.467L32.7717 431.882Z" fill="#3F92D1"/>
<path d="M38.813 465.785L87.2332 493.558C87.2332 493.558 87.9044 493.271 88.192 493.08L38.0459 464.348C38.3335 464.827 38.5253 465.306 38.813 465.785V465.785Z" fill="#72B5E8"/>
<path d="M34.0191 453.239L93.9451 487.716C93.9451 487.716 94.3287 487.238 94.4246 487.046L33.7314 452.185C33.7314 452.185 33.9232 452.952 34.0191 453.335V453.239Z" fill="#72B5E8"/>
<path d="M32.7717 442.608L96.4371 479.193C96.4371 479.193 96.4371 479.001 96.4371 478.906V478.139L32.6758 441.555V442.513L32.7717 442.608Z" fill="#72B5E8"/>
<path d="M32.7725 431.786V432.84L96.5338 469.424V468.467L32.7725 431.786Z" fill="#72B5E8"/>
<path d="M116.954 457.261C115.9 457.261 114.845 456.974 113.886 456.399L27.1132 407.269C22.9903 404.875 20.8809 400.086 22.0315 395.489L32.8661 352.775C33.4414 350.573 34.2085 348.466 35.1673 346.359C35.8385 345.018 37.1808 344.156 38.619 344.156C39.2902 344.156 39.8655 344.348 40.4408 344.635L134.884 398.841C137.377 400.278 138.528 403.247 137.665 406.12L122.899 452.856C122.036 455.537 119.639 457.261 116.858 457.261H116.954Z" fill="#084C94"/>
<path opacity="0.5" d="M22.0316 395.393L32.8662 352.68C33.4415 350.477 34.2086 348.37 35.1674 346.263C35.8385 344.922 37.1809 344.06 38.6191 344.06C39.2903 344.06 39.8656 344.252 40.4409 344.539L134.884 398.745C137.377 400.182 20.6892 399.99 21.9357 395.393H22.0316Z" fill="#2672AB"/>
<path d="M118.97 452.281C117.819 452.281 116.765 451.994 115.806 451.42L27.7866 401.523C24.8142 399.799 22.8966 396.83 22.5131 393.574L22.0337 395.298C20.8831 399.895 22.8966 404.779 27.1154 407.078L113.888 456.208C114.847 456.783 115.902 457.07 116.957 457.07C119.737 457.07 122.134 455.25 122.997 452.665L123.86 449.887C122.709 451.324 120.888 452.186 118.97 452.186V452.281Z" fill="#001A46"/>
<path d="M74.5752 406.024L50.0295 400.661C50.0295 400.661 49.4542 400.374 49.0707 400.469L34.5926 397.309C34.0173 397.213 33.5379 397.501 33.442 398.075C33.3461 398.65 33.6338 399.129 34.2091 399.224L48.5913 402.385L53.2895 418.57C53.2895 418.57 53.7689 419.241 54.2483 419.241C54.2483 419.241 54.4401 419.241 54.536 419.241C55.0154 419.049 55.3989 418.57 55.2071 417.996L50.7966 402.864L74.0958 407.94H74.1917C74.6711 407.94 75.1505 407.652 75.2464 407.173C75.3423 406.599 75.0546 406.12 74.4794 406.024H74.5752Z" fill="#001A46"/>
<path d="M113.312 427.668L88.7659 422.305C88.7659 422.305 88.1906 422.018 87.807 422.114L73.3289 418.953C72.7536 418.857 72.2742 419.145 72.1783 419.719C72.0824 420.294 72.3701 420.773 72.9454 420.869L87.3276 424.029L92.0258 440.214C92.0258 440.214 92.5052 440.885 92.9847 440.885C92.9847 440.885 93.1764 440.885 93.2723 440.885C93.7517 440.693 94.1352 440.214 93.9435 439.64L89.5329 424.508L112.832 429.584C112.832 429.584 112.928 429.584 113.024 429.584C113.503 429.584 113.887 429.296 113.983 428.818C114.079 428.243 113.791 427.764 113.216 427.668H113.312Z" fill="#001A46"/>
<g style="mix-blend-mode:multiply">
<path d="M194.14 429.68L187.907 433.319C186.565 434.085 185.702 435.617 185.702 437.245V437.533C185.702 439.161 187.428 440.119 188.866 439.352L194.427 436.096C195.77 435.33 196.537 433.893 196.537 432.361V431.212C196.537 429.967 195.194 429.201 194.14 429.775V429.68Z" fill="#A8CFF0"/>
</g>
<g style="mix-blend-mode:multiply">
<g style="mix-blend-mode:multiply">
<path d="M194.427 436L188.866 439.257C187.524 440.023 185.894 439.161 185.798 437.628V437.82V438.873C185.798 440.502 187.524 441.459 188.962 440.693L194.523 437.437C195.865 436.671 196.632 435.234 196.632 433.702V432.265C196.632 433.798 195.77 435.234 194.523 436H194.427Z" fill="#A8CFF0"/>
</g>
</g>
<g style="mix-blend-mode:multiply">
<path d="M182.922 451.132L229.425 454.197L182.347 481.971L182.922 451.132Z" fill="#A8CFF0"/>
</g>
<path d="M215.232 474.884V495.953L199.124 486.951L200.179 465.881L215.232 474.884Z" fill="#3F92D1"/>
<path d="M143.416 518.651C143.416 527.27 146.388 533.399 151.182 536.273C151.374 536.273 165.756 544.7 165.948 544.796C170.934 547.574 167.77 541.253 175.441 536.847C190.782 527.941 203.246 506.488 203.246 488.866C203.246 480.151 211.3 480.055 206.41 477.182C206.314 477.182 190.877 468.563 190.686 468.467C185.7 465.785 178.796 466.264 171.222 470.574C155.881 479.48 143.416 500.933 143.416 518.555V518.651Z" fill="#084C94"/>
<path d="M158.854 527.462C158.854 545.084 171.319 552.171 186.66 543.36C202.001 534.453 214.466 513 214.466 495.379C214.466 477.757 202.001 470.67 186.66 479.481C171.319 488.387 158.854 509.84 158.854 527.462Z" fill="#03336E"/>
<path d="M166.906 522.769C166.906 535.315 175.823 540.391 186.754 534.07C197.684 527.749 206.601 512.426 206.601 499.88C206.601 487.334 197.684 482.258 186.754 488.579C175.823 494.9 166.906 510.223 166.906 522.769Z" fill="#A8CFF0"/>
<path d="M198.069 486.184C201.616 488.291 203.822 492.601 203.822 498.826C203.822 511.372 194.905 526.696 183.974 533.016C179.755 535.411 175.824 536.177 172.66 535.506C176.304 537.613 181.29 537.326 186.755 534.166C197.685 527.845 206.602 512.521 206.602 499.975C206.602 492.218 203.246 487.334 198.069 486.184Z" fill="#72B5E8"/>
<path d="M185.412 478.81C192.795 474.596 199.507 474.022 204.493 476.512C199.89 475.171 194.137 476.224 187.809 479.768C172.468 488.675 160.003 510.127 160.003 527.749C160.003 536.943 163.359 543.264 168.825 545.946C162.017 544.03 157.606 537.326 157.606 526.791C157.606 509.17 170.071 487.717 185.412 478.81Z" fill="#2672AB"/>
<path d="M183.878 492.888C182.44 493.75 181.289 495.666 181.289 497.39C181.289 499.114 182.44 499.688 183.878 498.826C185.316 497.964 186.467 496.049 186.467 494.325C186.467 492.601 185.316 492.027 183.878 492.888ZM183.878 523.248C182.44 524.11 181.289 526.025 181.289 527.749C181.289 529.473 182.44 530.048 183.878 529.186C185.316 528.324 186.467 526.408 186.467 524.684C186.467 522.96 185.316 522.386 183.878 523.248ZM191.357 498.06C192.412 498.635 194.042 497.677 195.001 495.953C196.055 494.229 196.055 492.314 195.001 491.739C193.946 491.165 192.316 492.122 191.357 493.846C190.302 495.57 190.302 497.485 191.357 498.06ZM176.304 524.014C175.249 523.439 173.619 524.397 172.66 526.121C171.605 527.845 171.605 529.76 172.66 530.335C173.715 530.909 175.345 529.952 176.304 528.228C177.358 526.504 177.358 524.589 176.304 524.014ZM197.014 500.454C195.576 501.316 194.425 503.232 194.425 504.956C194.425 506.679 195.576 507.254 197.014 506.392C198.452 505.53 199.603 503.615 199.603 501.891C199.603 500.167 198.452 499.592 197.014 500.454ZM170.551 515.682C169.112 516.544 167.962 518.459 167.962 520.183C167.962 521.907 169.112 522.482 170.551 521.62C171.989 520.758 173.14 518.842 173.14 517.118C173.14 515.395 171.989 514.82 170.551 515.682ZM195.001 513.192C193.946 512.617 192.316 513.575 191.357 515.299C190.302 517.023 190.302 518.938 191.357 519.513C192.412 520.087 194.042 519.13 195.001 517.406C196.055 515.682 196.055 513.766 195.001 513.192ZM176.304 502.561C175.249 501.987 173.619 502.944 172.66 504.668C171.605 506.392 171.605 508.308 172.66 508.882C173.715 509.457 175.345 508.499 176.304 506.775C177.358 505.051 177.358 503.136 176.304 502.561Z" fill="#03336E"/>
<path d="M175.824 514.437C175.824 516.831 176.687 518.459 177.934 519.321C177.934 519.321 181.098 521.237 181.194 521.237C182.536 522.003 181.673 520.279 183.782 519.034C188.001 516.544 191.453 510.702 191.453 505.817C191.453 503.423 193.658 503.423 192.316 502.561C192.316 502.561 188.864 500.646 188.864 500.55C187.522 499.784 185.604 499.975 183.495 501.125C179.276 503.615 175.824 509.457 175.824 514.341V514.437Z" fill="#3F92D1"/>
<path d="M179.277 516.448C179.277 521.332 182.729 523.248 186.948 520.854C191.167 518.364 194.618 512.521 194.618 507.637C194.618 502.753 191.167 500.837 186.948 503.232C182.729 505.626 179.277 511.564 179.277 516.448Z" fill="#2672AB"/>
<path d="M151.853 542.019V511.372L171.796 476.99L199.89 460.805L182.919 451.132L154.73 467.413L134.786 501.795V532.442L151.853 542.019Z" fill="#D1EBFF"/>
<path d="M151.853 542.019V511.372L171.796 476.99L199.89 460.805L182.919 451.132L154.73 467.413L134.786 501.795V532.442L151.853 542.019Z" fill="#D1EBFF"/>
<path opacity="0.7" d="M151.853 542.019V511.372L134.786 501.795V532.442L151.853 542.019Z" fill="#72B5E8"/>
<path d="M151.853 511.372L171.796 476.991L154.73 467.413L134.786 501.795L151.853 511.372Z" fill="#A8CFF0"/>
<path d="M156.554 539.433V512.617L175.251 480.438L199.988 466.168L215.233 474.884V495.953L219.931 493.272V472.106L199.988 460.709L171.799 476.991L151.855 511.372V542.21L156.554 539.433Z" fill="#72B5E8"/>
<path d="M5.73242 469.52L112.641 532.921C117.818 535.889 124.242 535.889 129.42 532.921L149.459 521.715V539.912L129.324 551.213C124.05 554.182 117.626 554.182 112.449 551.213L9.47181 492.218C7.17065 490.877 5.73242 488.387 5.73242 485.801V469.616V469.52Z" fill="#2672AB"/>
<path d="M129.323 513.671C129.323 515.011 128.556 516.161 127.31 516.64C122.516 518.555 116.955 518.268 112.448 515.682L97.203 506.967C93.943 505.051 94.3266 500.263 97.7783 498.826L105.161 495.091C106.312 494.612 107.654 494.708 108.805 495.187C113.215 497.198 119.927 501.699 126.063 499.688C127.885 499.113 129.515 501.029 129.515 502.944V513.575L129.323 513.671Z" fill="#2672AB"/>
<path d="M7.55373 472.968L112.64 532.92C117.818 535.889 124.242 535.889 129.419 532.92L149.459 521.715L143.993 518.555L129.515 526.695C124.242 529.76 117.818 529.664 112.544 526.695L13.8819 469.903V462.625L7.45785 466.551C5.06081 467.988 5.06081 471.531 7.55373 472.968V472.968Z" fill="#3F92D1"/>
<path d="M13.6895 468.658L13.8812 468.754V462.625L13.7853 462.72L13.6895 468.658Z" fill="#72B5E8"/>
<path d="M148.308 521.045L129.324 531.675C124.146 534.644 117.722 534.644 112.545 531.675L7.45829 471.723C6.59536 471.244 6.02007 470.382 5.73242 469.52C5.73242 470.861 6.30771 472.202 7.55417 472.968L112.641 532.92C117.818 535.889 124.242 535.889 129.42 532.92L149.459 521.715L148.308 521.045V521.045Z" fill="#72B5E8"/>
<path d="M150.225 456.783C150.225 456.783 149.554 456.591 149.362 456.304C149.074 455.825 149.266 455.25 149.65 454.963L156.361 450.941C159.909 448.834 162.114 444.907 162.114 440.789V414.739C162.114 410.813 160.101 407.078 156.841 404.875L150.321 400.469C150.321 400.469 149.746 399.512 150.033 399.129C150.321 398.65 150.992 398.554 151.376 398.841L157.896 403.247C161.731 405.833 164.032 410.142 164.032 414.739V440.789C164.032 445.578 161.443 450.079 157.32 452.569L150.609 456.591C150.609 456.591 150.321 456.687 150.129 456.687L150.225 456.783Z" fill="#A8CFF0"/>
<path d="M167.292 442.322L162.498 439.544C160.389 438.299 158.663 435.043 158.663 432.266V417.9C158.663 415.123 160.389 413.782 162.498 415.027L167.292 417.804C169.402 419.049 171.128 422.305 171.128 425.083V439.448C171.128 442.226 169.402 443.567 167.292 442.322Z" fill="#A8CFF0"/>
<path d="M167.292 417.804L162.498 415.027C161.251 414.356 160.197 414.452 159.525 415.218C160.005 415.218 160.58 415.218 161.155 415.601L165.949 418.379C168.059 419.624 169.785 422.88 169.785 425.657V440.023C169.785 441.172 169.497 442.13 168.922 442.705C170.168 442.609 171.031 441.364 171.031 439.448V425.083C171.031 422.305 169.305 419.049 167.196 417.804H167.292Z" fill="#72B5E8"/>
<path d="M229.615 312.169L124.433 251.929L84.7381 275.68C67.5753 285.64 57.0283 304.028 57.0283 323.853H57.2201L162.115 383.422L229.615 312.169Z" fill="#D1EBFF"/>
<path opacity="0.5" d="M186.566 357.66L204.112 339.176L89.1503 273.094L84.8357 275.68C78.5075 279.415 73.0422 284.204 68.7275 289.854L186.662 357.66H186.566Z" fill="white"/>
<path d="M161.347 383.039L228.943 343.39V311.69L189.056 334.962C171.894 344.922 161.347 363.31 161.347 383.135V383.039Z" fill="white"/>
<path d="M162.02 383.326L229.616 343.677V311.977L189.729 335.249C172.567 345.21 162.02 363.598 162.02 383.422V383.326Z" fill="#72B5E8"/>
<path d="M13.7861 447.972V460.518C13.7861 461.475 14.3614 462.433 15.2244 462.912L23.8537 467.318C25.4837 468.179 27.3055 466.551 26.7302 464.827L23.2784 454.293C22.799 452.952 21.7443 451.803 20.402 451.132L13.7861 447.972V447.972Z" fill="#2672AB"/>
<path d="M97.4907 504.956L116.379 515.586C118.105 516.544 120.311 515.299 120.311 513.288V505.051C120.311 502.37 118.872 499.975 116.475 498.73L110.531 495.57C108.134 494.325 105.257 494.517 103.052 496.145L97.203 500.454C95.6689 501.604 95.7648 503.902 97.4907 504.86V504.956Z" fill="white"/>
<path d="M13.7853 452.186V459.368C13.7853 460.326 14.3606 461.284 15.2236 461.763L23.8529 466.168C25.4829 467.03 27.3047 465.402 26.7294 463.678L23.2776 454.293C22.7982 452.952 21.7435 451.803 20.4012 451.132L17.5247 449.791C15.7989 448.929 13.6895 450.27 13.6895 452.186H13.7853Z" fill="#D1EBFF"/>
<path d="M13.7861 452.186C13.7861 452.186 25.3878 466.456 26.059 466.072C26.7302 465.594 27.1137 464.636 26.826 463.678L23.3743 454.293C22.8949 452.952 21.8402 451.803 20.4979 451.132L17.6214 449.791C15.8955 448.929 13.7861 450.27 13.7861 452.186V452.186Z" fill="white"/>
<g style="mix-blend-mode:multiply">
<path d="M35.8371 507.158V503.806C35.7412 500.167 39.5765 497.964 42.7406 499.784L73.4227 517.406C78.2168 520.183 81.0932 525.259 81.0932 530.718V533.399L35.7412 507.254L35.8371 507.158Z" fill="#3F92D1"/>
</g>
<path d="M120.118 503.423C119.639 501.508 118.393 499.784 116.571 498.922L110.626 495.761C108.229 494.516 105.353 494.708 103.147 496.336L97.2986 500.646C96.3398 501.316 96.0522 502.465 96.3398 503.423H120.214H120.118Z" fill="#D1EBFF"/>
<path d="M101.995 497.773L105.255 504.573C105.255 504.573 110.529 499.976 109.474 497.869C108.515 495.762 101.995 497.677 101.995 497.677V497.773Z" fill="#FFCC00"/>
<path d="M106.311 502.657C106.311 504.381 105.064 505.051 103.626 504.189C102.188 503.327 100.941 501.22 100.941 499.497C100.941 497.773 102.188 497.102 103.626 497.964C105.064 498.826 106.311 500.933 106.311 502.657Z" fill="#FFDE17"/>
<path d="M15.5107 454.963L18.9625 462.146C18.9625 462.146 24.5236 457.358 23.4689 455.155C22.4142 452.952 15.6066 454.963 15.6066 454.963H15.5107Z" fill="#FFCC00"/>
<path d="M20.0166 460.039C20.0166 461.859 18.7701 462.625 17.1401 461.667C15.5101 460.71 14.2637 458.507 14.2637 456.687C14.2637 454.868 15.5101 454.101 17.1401 455.059C18.7701 456.017 20.0166 458.22 20.0166 460.039Z" fill="#FFDE17"/>
<path d="M106.981 503.806L110.241 510.702C110.241 510.702 120.213 504.572 119.158 502.465C118.2 500.358 106.981 503.806 106.981 503.806Z" fill="#FFCC00"/>
<path d="M111.296 508.691C111.296 510.414 110.05 511.085 108.516 510.223C106.982 509.361 105.735 507.254 105.735 505.53C105.735 503.806 106.982 503.136 108.516 503.998C110.05 504.86 111.296 506.967 111.296 508.691Z" fill="#FFDE17"/>
<path style="mix-blend-mode:screen" d="M120.309 513.383V505.147C120.309 502.465 118.871 500.071 116.474 498.826L110.53 495.666C108.133 494.421 105.256 494.612 103.051 496.24L120.309 513.383V513.383Z" fill="url(#paint0_radial_12_3031)"/>
<path d="M72.6559 520.47V528.707L42.9326 511.947V503.519L72.6559 520.47Z" fill="#D1EBFF"/>
<g style="mix-blend-mode:color-dodge">
<path d="M42.9326 503.519V504.764L71.6012 521.141V528.132L72.6559 528.707V520.47L42.9326 503.519Z" fill="white"/>
</g>
<path d="M102.284 456.4V464.54L26.9209 422.018V413.59L102.284 456.4Z" fill="#3F92D1"/>
<path d="M102.284 456.4V458.028L26.9209 415.41V413.59L102.284 456.4Z" fill="#72B5E8"/>
<path style="mix-blend-mode:screen" d="M13.7853 452.186V459.369C13.7853 460.326 23.2776 454.197 23.2776 454.197C22.7982 452.856 21.7435 451.707 20.4012 451.036L17.5247 449.696C15.7988 448.834 13.6895 450.175 13.6895 452.09L13.7853 452.186Z" fill="url(#paint1_radial_12_3031)"/>
<path d="M110.433 541.253C110.433 543.647 108.803 544.605 106.693 543.36C104.584 542.115 102.954 539.241 102.954 536.943C102.954 534.644 104.584 533.591 106.693 534.836C108.803 536.081 110.433 538.954 110.433 541.253Z" fill="#A8CFF0"/>
<path d="M108.707 542.306C106.598 541.157 104.968 538.188 104.968 535.89C104.968 535.315 105.063 534.74 105.255 534.357C103.913 534.261 102.954 535.219 102.954 537.039C102.954 539.433 104.584 542.306 106.693 543.455C108.228 544.317 109.57 544.03 110.145 542.881C109.666 542.881 109.186 542.689 108.707 542.402V542.306Z" fill="#03336E"/>
<path d="M100.366 535.315C100.366 537.709 98.7365 538.667 96.6271 537.422C94.5177 536.177 92.8877 533.304 92.8877 531.005C92.8877 528.707 94.5177 527.653 96.6271 528.898C98.7365 530.143 100.366 533.016 100.366 535.315Z" fill="#A8CFF0"/>
<path d="M98.5449 536.368C96.4355 535.219 94.8055 532.25 94.8055 529.952C94.8055 529.377 94.9014 528.802 95.0932 528.419C93.7508 528.324 92.792 529.281 92.792 531.101C92.792 533.495 94.422 536.368 96.5314 537.518C98.0655 538.38 99.4078 538.092 99.9831 536.943C99.5037 536.943 99.0243 536.751 98.5449 536.464V536.368Z" fill="#03336E"/>
<path d="M27.9758 493.942C27.9758 496.336 26.3459 497.294 24.2365 496.049C22.1271 494.9 20.4971 491.931 20.4971 489.632C20.4971 487.334 22.1271 486.28 24.2365 487.525C26.3459 488.675 27.9758 491.643 27.9758 493.942Z" fill="#A8CFF0"/>
<path d="M26.1543 494.995C24.0449 493.846 22.4149 490.877 22.4149 488.579C22.4149 488.004 22.5108 487.43 22.7025 487.046C21.3602 486.951 20.4014 487.908 20.4014 489.728C20.4014 492.122 22.0314 494.995 24.1408 496.145C25.6749 497.007 27.0172 496.719 27.5925 495.57C27.1131 495.57 26.6337 495.379 26.1543 495.091V494.995Z" fill="#03336E"/>
<path d="M17.8128 488.1C17.8128 490.494 16.1828 491.452 14.0734 490.207C11.964 488.962 10.334 486.089 10.334 483.79C10.334 481.492 11.964 480.438 14.0734 481.683C16.1828 482.928 17.8128 485.801 17.8128 488.1V488.1Z" fill="#A8CFF0"/>
<path d="M15.9902 489.153C13.8808 488.004 12.2508 485.035 12.2508 482.737C12.2508 482.162 12.3467 481.587 12.5385 481.204C11.1961 481.109 10.2373 482.066 10.2373 483.886C10.2373 486.28 11.8673 489.153 13.9767 490.303C15.5108 491.164 16.8531 490.877 17.4284 489.728C16.949 489.728 16.4696 489.536 15.9902 489.249V489.153Z" fill="#03336E"/>
<path d="M119.83 503.232V515.395C122.035 515.49 124.145 515.107 126.158 513.958V501.795C124.337 502.944 122.035 503.327 119.83 503.232Z" fill="#EB4680"/>
<g style="mix-blend-mode:multiply">
<path d="M197.014 423.167C195.097 423.167 193.562 421.635 193.562 419.719V383.518C193.562 380.358 195.288 377.484 197.973 375.856L215.807 365.513C216.286 365.226 216.958 365.034 217.533 365.034C219.451 365.034 220.985 366.567 220.985 368.482V404.683C220.985 407.844 219.259 410.717 216.574 412.345L198.74 422.688C198.261 422.976 197.59 423.167 197.014 423.167ZM217.533 367.045C217.533 367.045 217.054 367.045 216.766 367.237L198.932 377.58C196.822 378.825 195.48 381.124 195.48 383.614V419.815C195.48 421.06 196.822 421.635 197.781 421.156L215.615 410.813C217.725 409.568 219.067 407.269 219.067 404.779V368.578C219.067 367.62 218.3 367.045 217.533 367.045V367.045Z" fill="#A8CFF0"/>
</g>
<path d="M197.015 423.167C196.44 423.167 195.864 422.976 195.289 422.688L196.248 421.06C196.248 421.06 197.303 421.348 197.782 421.06L215.616 410.717C217.725 409.472 219.068 407.174 219.068 404.683V368.482C219.068 367.716 218.588 367.237 218.109 367.046L218.78 365.322C220.122 365.801 220.889 367.046 220.889 368.482V404.683C220.889 407.844 219.164 410.717 216.479 412.345L198.645 422.688C198.07 422.976 197.494 423.167 196.919 423.167H197.015Z" fill="#A8CFF0"/>
<path d="M154.73 467.413L171.797 476.991L199.987 460.709L171.797 476.033L154.73 467.413Z" fill="white"/>
<g opacity="0.3">
<path d="M640.18 65.4629L641.618 66.4206L236.614 299.527L235.08 298.569L640.18 65.4629Z" fill="#72B5E8"/>
<path d="M628.865 58.8546L630.304 59.8123L225.3 293.014L223.861 292.057L628.865 58.8546Z" fill="#72B5E8"/>
<path d="M617.552 52.3424L618.99 53.3001L213.986 286.406L212.548 285.449L617.552 52.3424Z" fill="#72B5E8"/>
<path d="M606.237 45.8297L607.675 46.7874L202.671 279.894L201.232 278.936L606.237 45.8297Z" fill="#72B5E8"/>
<path d="M594.923 39.3175L596.457 40.1794L191.453 273.382L189.919 272.424L594.923 39.3175Z" fill="#72B5E8"/>
<path d="M583.706 32.7091L585.144 33.6668L180.14 266.773L178.605 265.911L583.706 32.7091Z" fill="#72B5E8"/>
<path d="M572.392 26.1968L573.83 27.1545L168.826 260.261L167.388 259.303L572.392 26.1968Z" fill="#72B5E8"/>
<path d="M561.077 19.6842L562.516 20.6419L157.511 253.748L156.073 252.791L561.077 19.6842Z" fill="#72B5E8"/>
<path d="M549.764 13.172L551.298 14.0339L146.198 247.236L144.76 246.278L549.764 13.172Z" fill="#72B5E8"/>
<path d="M538.45 6.56372L539.984 7.52143L134.979 240.628L133.445 239.766L538.45 6.56372Z" fill="#72B5E8"/>
</g>
<g opacity="0.3">
<path d="M638.838 64.5055L640.276 65.4632L235.272 298.57L233.834 297.612L638.838 64.5055Z" fill="#2672AB"/>
<path d="M627.524 57.9929L629.058 58.9506L224.054 292.057L222.52 291.099L627.524 57.9929Z" fill="#2672AB"/>
<path d="M616.306 51.3848L617.744 52.3425L212.74 285.545L211.206 284.587L616.306 51.3848Z" fill="#2672AB"/>
<path d="M604.992 44.8722L606.43 45.8299L201.426 278.936L199.987 277.979L604.992 44.8722Z" fill="#2672AB"/>
<path d="M593.677 38.36L595.115 39.3177L190.111 272.424L188.673 271.466L593.677 38.36Z" fill="#2672AB"/>
<path d="M582.364 31.8474L583.898 32.7093L178.798 265.911L177.359 264.954L582.364 31.8474Z" fill="#2672AB"/>
<path d="M571.049 25.2393L572.583 26.197L167.579 259.399L166.045 258.441L571.049 25.2393Z" fill="#2672AB"/>
<path d="M559.831 18.7269L561.27 19.6846L156.265 252.791L154.827 251.833L559.831 18.7269Z" fill="#2672AB"/>
<path d="M548.518 12.2142L549.956 13.1719L144.952 246.278L143.514 245.321L548.518 12.2142Z" fill="#2672AB"/>
<path d="M537.203 5.70203L538.642 6.56396L133.637 239.766L132.199 238.808L537.203 5.70203Z" fill="#2672AB"/>
</g>
<path d="M655.999 210.939L240.64 449.791V436.671L655.999 197.818V210.939Z" fill="#72B5E8"/>
<path d="M651.686 195.711L236.326 434.564L240.641 436.671L656 197.818L651.686 195.711Z" fill="#D1EBFF"/>
<path d="M236.422 447.493L240.641 449.792V436.671L236.422 434.372V447.493Z" fill="#A8CFF0"/>
<path d="M655.522 211.226L644.112 217.739L628.004 213.908L639.414 207.395L655.522 211.226Z" fill="#D62D69"/>
<path d="M625.989 228.178L614.579 234.786L598.471 230.955L609.881 224.347L625.989 228.178Z" fill="#D62D69"/>
<path d="M596.46 245.225L584.954 251.737L568.846 247.906L580.351 241.394L596.46 245.225Z" fill="#D62D69"/>
<path d="M566.831 262.176L555.421 268.785L539.312 264.954L550.722 258.346L566.831 262.176Z" fill="#D62D69"/>
<path d="M537.299 279.224L525.793 285.832L509.781 281.905L521.191 275.393L537.299 279.224Z" fill="#D62D69"/>
<path d="M507.672 296.175L496.262 302.783L480.154 298.952L491.66 292.344L507.672 296.175Z" fill="#D62D69"/>
<path d="M478.142 313.222L466.732 319.831L450.624 315.904L462.034 309.391L478.142 313.222Z" fill="#D62D69"/>
<path d="M448.609 330.174L437.103 336.782L421.091 332.951L432.501 326.343L448.609 330.174Z" fill="#D62D69"/>
<path d="M418.982 347.221L407.572 353.829L391.464 349.998L402.97 343.39L418.982 347.221Z" fill="#D62D69"/>
<path d="M389.45 364.172L378.04 370.781L361.932 366.95L373.342 360.342L389.45 364.172Z" fill="#D62D69"/>
<path d="M359.919 381.22L348.413 387.828L332.305 383.997L343.81 377.389L359.919 381.22Z" fill="#D62D69"/>
<path d="M330.291 398.171L318.882 404.779L302.773 400.948L314.183 394.34L330.291 398.171Z" fill="#D62D69"/>
<path d="M300.759 415.218L289.253 421.826L273.241 417.996L284.651 411.387L300.759 415.218Z" fill="#D62D69"/>
<path d="M271.132 432.17L259.722 438.778L243.614 434.947L255.12 428.339L271.132 432.17Z" fill="#D62D69"/>
<path d="M454.195 264.238C454.48 264.708 454.858 265.066 455.309 265.296C456.582 265.874 458.22 265.639 459.88 264.64C461.518 263.807 463.102 262.265 464.298 260.338C464.834 259.4 465.247 258.404 465.509 257.414C465.771 256.424 465.877 255.461 465.82 254.588L465.803 253.962C463.822 255.794 461.749 257.322 459.654 258.493C454.974 261.028 451.302 261.674 448.639 260.43C445.977 259.185 444.559 256.393 444.387 252.052L444.336 250.161L441.291 251.863L448.434 239.287L456.032 243.614L453.029 245.293L453.044 245.859C453.04 246.79 453.202 247.625 453.519 248.312C453.836 248.999 454.302 249.523 454.887 249.85C456.181 250.341 457.782 250.117 459.42 249.215C461.058 248.312 462.632 246.788 463.876 244.899C464.805 243.293 465.343 241.532 465.384 239.956L469.922 242.536L474.12 235.153L474.13 235.53C474.138 235.819 474.146 236.109 474.153 236.392L474.546 250.979C474.624 255.336 473.39 259.582 470.844 263.715C468.299 267.849 464.705 271.253 460.064 273.925C455.388 276.494 451.719 277.143 449.055 275.872C446.819 274.86 445.362 272.553 444.967 269.398L454.195 264.238Z" fill="white"/>
<path d="M473.884 226.204L473.935 228.095L476.98 226.393L469.831 238.966L462.233 234.639L465.236 232.959L465.221 232.394C465.225 231.463 465.063 230.627 464.746 229.941C464.428 229.254 463.963 228.73 463.378 228.402C462.084 227.911 460.483 228.136 458.845 229.038C457.207 229.94 455.633 231.465 454.389 233.354C453.461 234.959 452.923 236.721 452.881 238.296L448.337 235.706L444.139 243.089L444.129 242.712C444.055 238.353 445.289 234.108 447.831 229.976C450.372 225.844 453.964 222.44 458.605 219.763C463.278 217.232 466.953 216.586 469.632 217.826C472.31 219.066 473.726 221.86 473.878 226.207" fill="#F39200"/>
<path d="M513.029 200.987C513.01 200.411 513.142 199.762 513.407 199.124C513.673 198.485 514.06 197.886 514.52 197.403C514.98 196.919 515.492 196.573 515.991 196.408C516.489 196.244 516.952 196.268 517.32 196.478C517.687 196.688 517.944 197.074 518.056 197.588C518.168 198.102 518.131 198.719 517.95 199.362C517.769 200.004 517.451 200.643 517.038 201.197C516.624 201.751 516.134 202.195 515.628 202.472C514.96 202.838 514.313 202.888 513.827 202.61C513.341 202.333 513.054 201.75 513.029 200.987ZM504.08 223.156L503.748 210.817L508.814 207.984L509.126 219.549C509.123 220.091 509.216 220.578 509.4 220.978C509.585 221.379 509.856 221.684 510.197 221.874C510.948 222.164 511.879 222.035 512.832 221.509C513.786 220.984 514.701 220.094 515.423 218.993C515.736 218.446 515.977 217.865 516.13 217.288C516.283 216.711 516.345 216.149 516.311 215.64L515.997 203.967L521.057 201.138L521.392 213.544C521.447 214.682 521.283 215.934 520.911 217.214C520.54 218.494 519.97 219.772 519.241 220.958C517.762 223.361 515.672 225.341 512.969 226.897C510.245 228.375 508.107 228.753 506.556 228.03C505.787 227.67 505.168 227.049 504.741 226.208C504.313 225.367 504.088 224.326 504.08 223.156V223.156ZM506.423 204.681C506.404 204.103 506.536 203.453 506.803 202.813C507.07 202.173 507.459 201.574 507.921 201.09C508.383 200.607 508.896 200.262 509.396 200.099C509.895 199.937 510.357 199.965 510.724 200.179C511.091 200.393 511.345 200.784 511.454 201.302C511.563 201.819 511.521 202.44 511.336 203.084C511.15 203.729 510.827 204.368 510.41 204.92C509.993 205.472 509.499 205.911 508.993 206.183C508.318 206.56 507.662 206.615 507.17 206.335C506.678 206.055 506.39 205.464 506.369 204.691" fill="white"/>
<path d="M529.01 209.244L531.249 207.992L536.722 212.947L542.752 209.575L535.314 202.965L541.921 189.766L535.961 193.099L531.144 202.762L528.869 204.034L528.475 189.386L523.408 192.219L524.156 219.973L529.222 217.14L529.01 209.244Z" fill="white"/>
<path d="M573.029 176.395C574.008 175.832 574.975 175.646 575.783 175.866C576.544 176.078 577.092 176.698 577.328 177.612L568.764 182.401C568.992 181.223 569.521 180.008 570.264 178.952C571.061 177.833 572.03 176.937 573.029 176.395V176.395ZM578.105 182.316C577.641 183.415 577.017 184.465 576.279 185.388C575.474 186.362 574.56 187.141 573.625 187.65C572.608 188.231 571.601 188.456 570.731 188.298C569.887 188.158 569.253 187.573 568.944 186.653L582.41 179.123L582.364 177.4C582.224 173.98 581.285 171.771 579.548 170.775C577.811 169.778 575.563 170.044 572.804 171.573C571.088 172.516 569.41 173.946 567.928 175.728C566.537 177.402 565.391 179.364 564.609 181.41C563.8 183.545 563.408 185.684 563.475 187.6C563.495 189.666 564.02 191.419 564.99 192.657C565.89 193.736 567.145 194.308 568.614 194.306C570.22 194.27 571.963 193.727 573.711 192.719C575.458 191.711 577.165 190.264 578.701 188.488C580.031 186.939 581.15 185.115 581.947 183.195L578.105 182.316Z" fill="#F39200"/>
<path d="M585.238 170.423L585.436 177.787C585.45 179.036 585.757 180.105 586.325 180.877C586.836 181.535 587.502 181.986 588.281 182.202C589.003 182.41 589.768 182.517 590.569 182.522L592.098 182.596L594.321 176.509L592.909 176.382C592.218 176.382 591.602 176.174 591.103 175.773C590.665 175.314 590.436 174.596 590.452 173.732L590.286 167.599L593.425 165.844L593.288 160.749L590.149 162.504L589.948 155.018L584.974 161.079L585.089 165.333L583.419 166.267L583.557 171.363L585.238 170.423Z" fill="#F39200"/>
<path d="M601.533 156.131L596.473 158.96L597.018 179.223L602.079 176.393L601.533 156.131Z" fill="#F39200"/>
<path d="M609.488 162.827C609.471 160.856 609.883 159.108 610.725 157.585C611.545 156.089 612.632 154.778 613.834 153.838L615.429 152.577L614.333 148.236L612.901 149.33C612.099 149.947 611.334 150.715 610.647 151.595C609.897 152.537 609.296 153.636 608.913 154.765L608.841 152.072L604.138 154.702L604.684 174.964L609.751 172.131L609.488 162.827Z" fill="#F39200"/>
<path d="M484.139 234.307L483.807 221.968L488.867 219.138L489.179 230.703C489.178 231.243 489.272 231.728 489.456 232.127C489.641 232.526 489.911 232.83 490.25 233.022C491 233.314 491.933 233.187 492.887 232.662C493.842 232.137 494.759 231.247 495.482 230.144C495.794 229.597 496.034 229.017 496.187 228.439C496.339 227.862 496.402 227.301 496.37 226.791L496.056 215.119L501.116 212.289L501.45 224.695C501.457 224.924 501.463 225.153 501.469 225.368L501.683 233.325C501.735 234.468 501.566 235.726 501.188 237.01C500.811 238.294 500.233 239.573 499.497 240.759C498.022 243.164 495.932 245.144 493.225 246.698C490.508 248.172 488.371 248.547 486.812 247.824C485.51 247.237 484.663 245.893 484.437 244.055L489.804 241.054C489.97 241.327 490.19 241.534 490.453 241.668C491.194 242.006 492.148 241.869 493.115 241.287C494.068 240.803 494.99 239.905 495.685 238.784C495.997 238.238 496.237 237.659 496.39 237.083C496.543 236.507 496.606 235.946 496.573 235.438V235.438C495.42 236.506 494.213 237.395 492.993 238.075C490.276 239.549 488.139 239.926 486.58 239.208C485.812 238.847 485.194 238.225 484.767 237.383C484.341 236.542 484.117 235.5 484.11 234.33" fill="white"/>
<path d="M543.63 201.033L543.527 197.217C543.473 196.078 543.638 194.825 544.011 193.544C544.383 192.263 544.954 190.986 545.684 189.799C547.162 187.392 549.253 185.412 551.956 183.86C554.672 182.391 556.81 182.013 558.368 182.727C559.138 183.087 559.757 183.708 560.184 184.549C560.611 185.39 560.836 186.431 560.844 187.602L560.947 191.425C560.954 191.654 560.96 191.883 560.936 192.115L561.18 200.055C561.234 201.194 561.069 202.447 560.696 203.728C560.324 205.008 559.753 206.286 559.023 207.472C557.541 209.882 555.45 211.862 552.751 213.412C550.031 214.887 547.893 215.263 546.338 214.538C545.037 213.95 544.188 212.607 543.958 210.772L549.33 207.768C549.497 208.04 549.716 208.248 549.979 208.382C550.717 208.721 551.67 208.586 552.636 208.003C553.589 207.521 554.511 206.623 555.205 205.5C555.519 204.955 555.759 204.376 555.912 203.799C556.065 203.223 556.127 202.662 556.094 202.154V202.154C554.943 203.222 553.737 204.11 552.519 204.789C549.799 206.264 547.661 206.642 546.106 205.921C545.336 205.561 544.717 204.939 544.289 204.097C543.862 203.255 543.637 202.212 543.63 201.04L543.63 201.033ZM548.64 196.087L548.672 197.278C548.653 197.86 548.739 198.385 548.925 198.819C549.11 199.252 549.391 199.584 549.748 199.792C550.499 200.082 551.43 199.953 552.383 199.427C553.337 198.902 554.252 198.012 554.974 196.911C555.287 196.364 555.528 195.783 555.681 195.206C555.834 194.629 555.895 194.067 555.862 193.558L555.8 191.242C555.802 190.701 555.707 190.215 555.523 189.814C555.339 189.414 555.068 189.109 554.729 188.917C553.975 188.635 553.043 188.767 552.09 189.293C551.138 189.818 550.222 190.704 549.497 191.801C549.185 192.348 548.945 192.929 548.793 193.505C548.641 194.082 548.58 194.643 548.614 195.151L548.64 196.087Z" fill="#F39200"/>
<path d="M596.338 154.403C596.319 153.828 596.45 153.181 596.714 152.543C596.979 151.906 597.365 151.308 597.824 150.824C598.282 150.341 598.793 149.994 599.291 149.827C599.789 149.661 600.251 149.682 600.62 149.889C600.989 150.096 601.247 150.479 601.362 150.989C601.476 151.499 601.443 152.114 601.265 152.755C601.087 153.396 600.774 154.035 600.363 154.59C599.953 155.146 599.465 155.593 598.961 155.875C598.286 156.252 597.63 156.307 597.138 156.027C596.646 155.748 596.358 155.156 596.337 154.383" fill="#F39200"/>
<defs>
<radialGradient id="paint0_radial_12_3031" cx="0" cy="0" r="1" gradientUnits="userSpaceOnUse" gradientTransform="translate(113.118 511.181) scale(16.204 16.1853)">
<stop stop-color="white"/>
<stop offset="1"/>
</radialGradient>
<radialGradient id="paint1_radial_12_3031" cx="0" cy="0" r="1" gradientUnits="userSpaceOnUse" gradientTransform="translate(21.5518 461.188) scale(12.6564 12.6417)">
<stop stop-color="white"/>
<stop offset="1"/>
</radialGradient>
</defs>
</svg>
