<svg viewBox="0 0 582 501" fill="none" xmlns="http://www.w3.org/2000/svg">
<path opacity="0.2" d="M105.414 497.691L6.11719 440.592C-2.37696 435.671 -1.35766 427.102 8.49555 421.417L439.659 171.553C449.512 165.869 464.377 165.275 472.956 170.196L572.252 227.211C580.747 232.131 579.727 240.701 569.874 246.385L138.626 496.249C128.773 501.933 113.908 502.527 105.329 497.606L105.414 497.691Z" fill="#92B4D1"/>
<path d="M25.3135 343.107C25.3135 343.107 24.8039 343.022 24.634 342.767L19.4526 335.725C17.9236 333.604 17.0742 331.144 17.0742 328.513V314.005C17.0742 308.406 20.8966 303.57 26.3328 302.127L34.1475 300.176C34.6571 300.091 35.0818 300.345 35.1668 300.77C35.2517 301.194 34.9969 301.703 34.5722 301.788L26.7576 303.739C22.0858 304.927 18.858 309.084 18.858 313.92V328.429C18.858 330.635 19.5375 332.84 20.8966 334.622L26.078 341.664C26.078 341.664 26.2479 342.597 25.9081 342.852C25.7383 342.937 25.5684 343.022 25.3985 343.022L25.3135 343.107Z" fill="#A8CFF0"/>
<path d="M21.1516 332.501L16.9045 330.041C15.0358 328.938 13.5068 326.053 13.5068 323.593V310.866C13.5068 308.406 15.0358 307.218 16.9045 308.321L21.1516 310.781C23.0203 311.884 24.5492 314.769 24.5492 317.229V329.956C24.5492 332.416 23.0203 333.604 21.1516 332.501Z" fill="#A8CFF0"/>
<path d="M21.1517 310.866L16.9047 308.406C15.8004 307.812 14.8661 307.897 14.2715 308.575C14.6962 308.575 15.2058 308.575 15.7155 308.915L19.9626 311.375C21.8313 312.478 23.3602 315.363 23.3602 317.823V330.55C23.3602 331.568 23.1054 332.416 22.5958 332.925C23.7 332.925 24.4645 331.738 24.4645 330.041V317.314C24.4645 314.854 22.9355 311.969 21.0668 310.866H21.1517Z" fill="#72B5E8"/>
<path d="M347.497 314.005V337.422L426.408 291.607V268.359L347.497 314.005Z" fill="#03336E"/>
<path d="M347.497 314.005V337.422L325.242 324.78V301.364L347.497 314.005Z" fill="#084C94"/>
<path d="M325.242 301.364L347.497 314.005L426.408 268.36L404.238 255.718L325.242 301.364Z" fill="#2672AB"/>
<path d="M572.422 181.819V211.599L575.31 209.224V179.528L572.422 181.819Z" fill="#03336E"/>
<path d="M572.422 181.819V211.599L501.411 171.723V141.858L572.422 181.819Z" fill="#084C94"/>
<path d="M501.411 141.858L572.422 181.819L575.31 179.528L504.299 139.652L501.411 141.858Z" fill="#2672AB"/>
<path d="M556.793 189.37V233.743L549.148 229.501V184.874L556.793 189.37Z" fill="#A8CFF0"/>
<path d="M493.087 246.64C493.087 254.191 495.72 259.621 499.967 262.166C500.137 262.166 513.388 269.972 513.558 270.056C517.975 272.517 515.172 266.917 521.882 263.014C535.388 255.209 546.43 236.289 546.43 220.762C546.43 213.127 553.565 213.042 549.148 210.496C549.063 210.496 534.878 202.606 534.708 202.521C530.291 200.145 524.26 200.57 517.635 204.388C504.129 212.193 493.087 231.113 493.087 246.64Z" fill="#084C94"/>
<path d="M507.272 254.7C507.272 270.226 518.23 276.505 531.821 268.699C545.326 260.893 556.369 241.973 556.369 226.447C556.369 210.921 545.411 204.642 531.821 212.448C518.23 220.253 507.272 239.173 507.272 254.7Z" fill="#03336E"/>
<path d="M530.631 211.854C537.087 208.121 543.033 207.612 547.365 209.818C543.287 208.715 538.191 209.563 532.67 212.702C519.164 220.508 508.122 239.428 508.122 254.954C508.122 263.014 511.095 268.614 515.851 270.99C509.905 269.293 505.998 263.354 505.998 254.106C505.998 238.58 516.955 219.659 530.546 211.854H530.631Z" fill="#2672AB"/>
<path d="M531.991 223.647C523.242 228.653 516.106 240.955 516.106 250.967C516.106 260.978 523.242 265.051 531.991 259.96C540.739 254.954 547.875 242.652 547.875 232.64C547.875 222.629 540.739 218.557 531.991 223.647Z" fill="#A8CFF0"/>
<path d="M542.183 222.12C544.562 223.902 546.091 227.21 546.091 231.707C546.091 241.719 538.956 253.936 530.207 259.027C526.299 261.233 522.732 261.657 520.014 260.554C522.902 262.76 527.234 262.76 531.99 259.96C540.739 254.954 547.874 242.652 547.874 232.64C547.874 227.126 545.666 223.393 542.268 222.035L542.183 222.12Z" fill="#72B5E8"/>
<path d="M521.797 245.961C521.797 251.221 525.534 253.342 530.036 250.712C534.623 248.082 538.276 241.719 538.276 236.458C538.276 231.198 534.538 229.077 530.036 231.707C525.449 234.337 521.797 240.701 521.797 245.961Z" fill="#3F92D1"/>
<path d="M523.156 246.809C523.156 252.07 526.894 254.191 531.396 251.56C535.982 248.93 539.635 242.567 539.635 237.307C539.635 232.047 535.897 229.925 531.396 232.556C526.809 235.186 523.156 241.549 523.156 246.809Z" fill="#2672AB"/>
<path d="M439.913 277.862C439.913 285.413 442.546 290.843 446.793 293.388C446.963 293.388 460.214 301.194 460.384 301.279C464.801 303.739 461.998 298.139 468.708 294.237C482.214 286.431 493.256 267.511 493.256 251.985C493.256 244.349 500.391 244.264 495.974 241.719C495.89 241.719 481.704 233.828 481.534 233.743C477.117 231.368 471.087 231.792 464.461 235.61C450.955 243.416 439.913 262.336 439.913 277.862Z" fill="#084C94"/>
<path d="M454.184 285.837C454.184 301.364 465.141 307.642 478.732 299.836C492.237 292.031 503.28 273.111 503.28 257.584C503.28 242.058 492.322 235.78 478.732 243.585C465.226 251.391 454.184 270.311 454.184 285.837Z" fill="#03336E"/>
<path d="M477.457 243.076C483.913 239.343 489.859 238.834 494.191 241.04C490.114 239.937 485.017 240.785 479.496 243.925C465.99 251.73 454.948 270.65 454.948 286.177C454.948 294.237 457.921 299.836 462.677 302.212C456.732 300.515 452.824 294.576 452.824 285.328C452.824 269.802 463.782 250.882 477.372 243.076H477.457Z" fill="#2672AB"/>
<path d="M478.817 254.785C470.068 259.79 462.933 272.093 462.933 282.104C462.933 292.116 470.068 296.188 478.817 291.098C487.566 286.092 494.701 273.789 494.701 263.778C494.701 253.766 487.566 249.694 478.817 254.785Z" fill="#A8CFF0"/>
<path d="M489.095 253.257C491.473 255.039 493.002 258.348 493.002 262.845C493.002 272.856 485.867 285.074 477.118 290.164C473.21 292.455 469.643 292.794 466.925 291.691C469.813 293.897 474.145 293.897 478.902 291.097C487.651 286.092 494.786 273.789 494.786 263.778C494.786 258.263 492.577 254.615 489.179 253.172L489.095 253.257Z" fill="#72B5E8"/>
<path d="M468.623 277.183C468.623 282.443 472.36 284.565 476.862 281.934C481.449 279.304 485.102 272.941 485.102 267.681C485.102 262.42 481.364 260.299 476.862 262.929C472.276 265.56 468.623 271.923 468.623 277.183Z" fill="#3F92D1"/>
<path d="M470.067 277.947C470.067 283.207 473.805 285.328 478.307 282.698C482.894 280.068 486.546 273.705 486.546 268.444C486.546 263.184 482.809 261.063 478.307 263.693C473.72 266.323 470.067 272.687 470.067 277.947Z" fill="#2672AB"/>
<path d="M441.188 256.057V300.345L449.172 295.849V260.554L556.793 198.449V233.743L564.692 229.162V184.874L441.188 256.057Z" fill="#72B5E8"/>
<path d="M441.188 256.142V300.43L433.458 296.188V251.561L441.188 256.142Z" fill="#A8CFF0"/>
<path d="M360.493 333.519L364.485 335.895L430.06 298.14L425.983 295.849L360.493 333.519Z" fill="#D1EBFF"/>
<path d="M430.061 274.214V298.224L425.983 295.849V271.753L430.061 274.214Z" fill="#A8CFF0"/>
<path d="M358.54 312.224V346.331L436.092 301.448V267.596L358.54 312.224ZM430.061 297.97L364.656 335.895V315.702L430.061 278.032V297.97Z" fill="#72B5E8"/>
<path d="M358.54 312.224V346.331L353.443 343.785V309.424L358.54 312.224Z" fill="#A8CFF0"/>
<path d="M353.443 309.424L358.54 312.224L436.091 267.596L430.91 264.881L353.443 309.424Z" fill="#D1EBFF"/>
<path d="M284.641 367.966C284.641 375.517 287.274 380.947 291.521 383.492C291.606 383.492 304.942 391.298 305.112 391.382C309.528 393.843 306.725 388.243 313.436 384.34C326.941 376.535 337.984 357.615 337.984 342.088C337.984 334.453 345.119 334.368 340.702 331.822C340.617 331.822 326.432 323.932 326.262 323.847C321.845 321.472 315.814 321.896 309.189 325.714C295.683 333.519 284.641 352.439 284.641 367.966Z" fill="#084C94"/>
<path d="M298.826 376.026C298.826 391.552 309.784 397.831 323.374 390.025C336.88 382.219 347.922 363.299 347.922 347.773C347.922 332.247 336.965 325.968 323.374 333.774C309.869 341.579 298.826 360.5 298.826 376.026Z" fill="#03336E"/>
<path d="M322.185 333.265C328.64 329.532 334.586 329.023 338.918 331.229C334.841 330.126 329.745 330.974 324.223 334.113C310.718 341.919 299.675 360.839 299.675 376.365C299.675 384.425 302.648 390.025 307.405 392.401C301.459 390.704 297.552 384.765 297.552 375.517C297.552 359.99 308.509 341.07 322.1 333.265H322.185Z" fill="#2672AB"/>
<path d="M323.544 344.973C314.795 349.979 307.66 362.281 307.66 372.293C307.66 382.304 314.795 386.377 323.544 381.286C332.293 376.195 339.428 363.978 339.428 353.967C339.428 343.955 332.293 339.883 323.544 344.973Z" fill="#A8CFF0"/>
<path d="M333.737 343.446C336.115 345.228 337.644 348.537 337.644 353.033C337.644 363.045 330.509 375.262 321.76 380.353C317.853 382.559 314.286 382.983 311.567 381.88C314.455 384.086 318.787 384.086 323.544 381.286C332.293 376.28 339.428 363.978 339.428 353.967C339.428 348.452 337.22 344.803 333.822 343.361L333.737 343.446Z" fill="#72B5E8"/>
<path d="M313.351 367.287C313.351 372.547 317.088 374.668 321.59 372.038C326.177 369.408 329.829 363.045 329.829 357.784C329.829 352.524 326.092 350.403 321.59 353.033C317.003 355.663 313.351 362.027 313.351 367.287Z" fill="#3F92D1"/>
<path d="M314.71 368.135C314.71 373.396 318.447 375.517 322.949 372.887C327.536 370.256 331.189 363.893 331.189 358.633C331.189 353.373 327.451 351.251 322.949 353.882C318.362 356.512 314.71 362.875 314.71 368.135Z" fill="#2672AB"/>
<path d="M195.452 406.909V441.016L297.722 382.05V348.197L195.452 406.909Z" fill="#72B5E8"/>
<g style="mix-blend-mode:multiply">
<path d="M268.587 365.166V398.085L270.286 397.237V364.233L268.587 365.166Z" fill="#A8CFF0"/>
</g>
<path d="M270.286 364.233V397.152L271.22 396.643V363.724L270.286 364.233Z" fill="#A8CFF0"/>
<g style="mix-blend-mode:multiply">
<path d="M195.452 415.648V438.386L263.66 399.018C263.66 389.007 252.788 382.728 244.039 387.734L195.452 415.648Z" fill="#A8CFF0"/>
</g>
<g style="mix-blend-mode:multiply">
<path d="M244.039 387.734L195.452 415.648V418.702L244.039 390.789C251.853 386.292 261.452 390.958 263.32 399.273L263.66 399.103C263.66 389.092 252.788 382.813 244.039 387.819V387.734Z" fill="#A8CFF0"/>
</g>
<path d="M195.452 406.909V441.016L114.673 395.116V360.754L195.452 406.909Z" fill="#A8CFF0"/>
<path d="M114.673 360.754L195.452 406.909L297.722 348.197L216.857 302.127L114.673 360.754Z" fill="#D1EBFF"/>
<path d="M577.688 57.5238V181.056L209.467 394.946V271.075L577.688 57.5238Z" fill="#084C94"/>
<path opacity="0.3" d="M571.828 67.6201L215.243 274.383V384.849L571.828 177.747V67.6201Z" fill="#2672AB"/>
<path d="M568.175 176.22V69.826L571.828 67.6201V177.747L215.243 384.849V381.201L568.175 176.22Z" fill="#03336E"/>
<path d="M209.552 271.075V394.946L108.472 337.507V213.381L209.552 271.075Z" fill="#2672AB"/>
<path d="M108.472 213.381L209.552 271.075L577.689 57.5238L476.608 0L108.472 213.381Z" fill="#3F92D1"/>
<g opacity="0.3">
<path d="M225.011 271.414L223.397 272.432V376.45L225.011 375.432V271.414Z" fill="#03336E"/>
<path d="M239.367 263.099L237.753 264.117V368.135L239.367 367.117V263.099Z" fill="#03336E"/>
<path d="M253.806 254.785L252.192 255.718V359.736L253.806 358.718V254.785Z" fill="#03336E"/>
<path d="M268.247 246.385L266.633 247.403V351.421L268.247 350.403V246.385Z" fill="#03336E"/>
<path d="M282.602 238.07L280.988 239.089V343.107L282.602 342.088V238.07Z" fill="#03336E"/>
<path d="M297.042 229.756L295.428 230.689V334.707L297.042 333.774V229.756Z" fill="#03336E"/>
<path d="M311.482 221.356L309.783 222.374V326.392L311.482 325.374V221.356Z" fill="#03336E"/>
<path d="M325.837 213.042L324.223 214.06V318.078L325.837 317.06V213.042Z" fill="#03336E"/>
<path d="M340.277 204.727L338.663 205.66V309.678L340.277 308.745V204.727Z" fill="#03336E"/>
<path d="M354.632 196.328L353.019 197.346V301.364L354.632 300.345V196.328Z" fill="#03336E"/>
<path d="M369.072 188.013L367.458 189.031V293.049L369.072 292.031V188.013Z" fill="#03336E"/>
<path d="M383.512 179.698L381.813 180.631V284.649L383.512 283.716V179.698Z" fill="#03336E"/>
<path d="M397.868 171.299L396.254 172.317V276.335L397.868 275.317V171.299Z" fill="#03336E"/>
<path d="M412.307 162.984L410.693 164.002V268.02L412.307 267.002V162.984Z" fill="#03336E"/>
<path d="M426.748 154.669L425.049 155.603V259.621L426.748 258.687V154.669Z" fill="#03336E"/>
<path d="M441.102 146.27L439.488 147.288V251.306L441.102 250.288V146.27Z" fill="#03336E"/>
<path d="M455.543 137.955L453.929 138.973V242.991L455.543 241.973V137.955Z" fill="#03336E"/>
<path d="M469.898 129.641L468.284 130.574V234.592L469.898 233.659V129.641Z" fill="#03336E"/>
<path d="M484.338 121.241L482.724 122.259V226.277L484.338 225.259V121.241Z" fill="#03336E"/>
<path d="M498.778 112.927L497.079 113.945V217.963L498.778 216.944V112.927Z" fill="#03336E"/>
<path d="M513.133 104.612L511.52 105.63V209.563L513.133 208.63V104.612Z" fill="#03336E"/>
<path d="M527.573 96.2123L525.959 97.2304V201.248L527.573 200.23V96.2123Z" fill="#03336E"/>
<path d="M541.928 87.8977L540.314 88.9158V192.934L541.928 191.916V87.8977Z" fill="#03336E"/>
<path d="M556.368 79.583L554.754 80.6011V184.619L556.368 183.601V79.583Z" fill="#03336E"/>
</g>
<g opacity="0.3">
<path d="M226.711 269.208L225.012 270.226V374.244L226.711 373.226V269.208Z" fill="#3F92D1"/>
<path d="M241.066 260.893L239.452 261.912V365.93L241.066 364.911V260.893Z" fill="#3F92D1"/>
<path d="M255.505 252.579L253.892 253.512V357.53L255.505 356.597V252.579Z" fill="#3F92D1"/>
<path d="M269.946 244.179L268.247 245.197V349.215L269.946 348.197V244.179Z" fill="#3F92D1"/>
<path d="M284.301 235.865L282.688 236.883V340.901L284.301 339.883V235.865Z" fill="#3F92D1"/>
<path d="M298.741 227.55L297.127 228.568V332.501L298.741 331.568V227.55Z" fill="#3F92D1"/>
<path d="M313.096 219.15L311.482 220.169V324.186L313.096 323.168V219.15Z" fill="#3F92D1"/>
<path d="M327.536 210.836L325.922 211.854V315.872L327.536 314.854V210.836Z" fill="#3F92D1"/>
<path d="M341.976 202.521L340.277 203.539V307.557L341.976 306.539V202.521Z" fill="#3F92D1"/>
<path d="M356.332 194.122L354.718 195.14V299.158L356.332 298.14V194.122Z" fill="#3F92D1"/>
<path d="M370.771 185.807L369.157 186.825V290.843L370.771 289.825V185.807Z" fill="#3F92D1"/>
<path d="M385.127 177.492L383.513 178.51V282.528L385.127 281.51V177.492Z" fill="#3F92D1"/>
<path d="M399.567 169.093L397.953 170.111V274.129L399.567 273.111V169.093Z" fill="#3F92D1"/>
<path d="M414.006 160.778L412.393 161.796V265.814L414.006 264.796V160.778Z" fill="#3F92D1"/>
<path d="M428.362 152.464L426.748 153.482V257.5L428.362 256.482V152.464Z" fill="#3F92D1"/>
<path d="M442.801 144.149L441.188 145.082V249.1L442.801 248.082V144.149Z" fill="#3F92D1"/>
<path d="M457.242 135.749L455.543 136.768V240.785L457.242 239.767V135.749Z" fill="#3F92D1"/>
<path d="M471.597 127.435L469.983 128.453V232.471L471.597 231.453V127.435Z" fill="#3F92D1"/>
<path d="M486.037 119.12L484.423 120.053V224.071L486.037 223.138V119.12Z" fill="#3F92D1"/>
<path d="M500.392 110.721L498.778 111.739V215.757L500.392 214.739V110.721Z" fill="#3F92D1"/>
<path d="M514.833 102.406L513.219 103.424V207.442L514.833 206.424V102.406Z" fill="#3F92D1"/>
<path d="M529.272 94.0913L527.573 95.0246V199.043L529.272 198.109V94.0913Z" fill="#3F92D1"/>
<path d="M543.628 85.6919L542.014 86.71V190.728L543.628 189.71V85.6919Z" fill="#3F92D1"/>
<path d="M558.067 77.3772L556.453 78.3953V182.413L558.067 181.395V77.3772Z" fill="#3F92D1"/>
</g>
<path d="M108.642 251.136L42.2178 289.74C34.0634 294.322 28.2024 302.127 25.909 311.121L16.5655 347.943C13.7624 358.972 12.4033 370.256 12.4033 381.541V424.641L107.113 478.177V439.913C107.113 425.914 109.237 411.999 113.484 398.679L125.545 360.499C128.179 352.27 133.785 345.228 141.345 340.985L203.437 304.842L108.727 251.136H108.642Z" fill="#A8CFF0"/>
<path d="M107.028 439.658V478.177L157.738 449.076L161.646 426.762L203.437 401.903V304.757L141.09 341.07C133.53 345.397 127.839 352.354 125.291 360.669L113.314 398.764C109.152 411.999 107.028 425.744 107.028 439.658Z" fill="#72B5E8"/>
<path d="M108.387 439.489C108.387 425.659 110.511 411.83 114.673 398.594L126.65 360.499C129.283 352.185 134.889 345.228 142.449 340.901L202.842 305.775V304.163L140.495 340.476C132.935 344.803 127.244 351.761 124.696 360.075L112.719 398.17C108.557 411.405 106.434 425.15 106.434 439.064V477.583L108.387 476.48V439.573V439.489Z" fill="#D1EBFF"/>
<path d="M130.982 362.451L119.005 400.63C118.156 403.26 121.044 405.551 123.422 404.109L160.966 382.219C163.43 380.777 164.959 378.147 164.959 375.262V343.955C164.959 341.664 162.41 340.137 160.372 341.325L137.098 354.9C134.21 356.597 132.001 359.227 130.982 362.366V362.451Z" fill="#03336E"/>
<path d="M161.986 340.985C162.835 341.495 163.345 342.428 163.345 343.531V374.838C163.345 377.723 161.816 380.353 159.352 381.795L121.808 403.685C121.299 403.939 120.789 404.109 120.279 404.109C121.129 404.703 122.318 404.873 123.422 404.194L160.966 382.304C163.43 380.862 164.959 378.232 164.959 375.347V344.04C164.959 342.258 163.515 340.985 161.901 340.985H161.986Z" fill="#001A46"/>
<path d="M90.974 409.709V423.877C90.974 438.895 74.7501 448.312 61.6691 440.846L48.0785 433.125C33.2137 424.641 24.04 408.86 24.04 391.722V371.359L90.974 409.793V409.709Z" fill="#3F92D1"/>
<path d="M71.3527 438.216C68.8894 438.216 66.511 437.537 64.3025 436.265L50.7119 428.544C37.461 420.993 29.3066 406.909 29.3066 391.637V375.686L85.7928 408.097V423.793C85.7928 432.701 78.3179 438.131 71.4376 438.131L71.3527 438.216Z" fill="#03336E"/>
<path d="M72.6268 437.877C70.1635 437.877 67.7851 437.198 65.5766 435.925L51.986 428.204C38.7351 420.653 30.5807 406.569 30.5807 391.298V376.45L29.2217 375.686V391.637C29.2217 406.824 37.461 420.993 50.6269 428.544L64.2176 436.265C66.4261 437.537 68.8044 438.216 71.2677 438.216C72.6268 438.216 73.9859 438.046 75.26 437.622C74.4106 437.792 73.4762 437.877 72.5419 437.877H72.6268Z" fill="#001A46"/>
<path d="M36.2718 415.054L75.5148 437.622C76.4491 437.368 77.3835 436.943 78.2329 436.434L33.8085 410.981C34.573 412.424 35.3374 413.781 36.1869 415.139L36.2718 415.054ZM30.8355 403.26L82.48 432.956C82.9896 432.362 83.4143 431.683 83.839 431.004L30.0711 400.121C30.3259 401.224 30.5807 402.242 30.8355 403.345V403.26ZM29.2217 391.722C29.2217 392.316 29.2217 392.994 29.2217 393.588L85.4529 425.914C85.5379 425.235 85.6228 424.556 85.6228 423.877V423.199L29.1367 390.789V391.722H29.2217ZM29.2217 382.135V384.934L85.7078 417.344V414.545L29.2217 382.135Z" fill="#3F92D1"/>
<path d="M34.5731 412.169L77.4686 436.774C77.4686 436.774 78.0631 436.519 78.318 436.349L33.8936 410.896C34.1484 411.321 34.3183 411.745 34.5731 412.169Z" fill="#72B5E8"/>
<path d="M30.3261 401.054L83.4146 431.598C83.4146 431.598 83.7543 431.174 83.8393 431.004L30.0713 400.121C30.0713 400.121 30.2412 400.8 30.3261 401.139V401.054Z" fill="#72B5E8"/>
<path d="M29.2217 391.637L85.6228 424.047C85.6228 424.047 85.6228 423.877 85.6228 423.793V423.114L29.1367 390.704V391.552L29.2217 391.637Z" fill="#72B5E8"/>
<path d="M29.2217 382.05V382.983L85.7078 415.393V414.545L29.2217 382.05Z" fill="#72B5E8"/>
<path d="M103.8 404.618C102.866 404.618 101.931 404.363 101.082 403.854L24.2098 360.33C20.5573 358.209 18.6886 353.966 19.7079 349.894L29.3062 312.054C29.8159 310.102 30.4954 308.236 31.3448 306.369C31.9394 305.182 33.1286 304.418 34.4027 304.418C34.9973 304.418 35.507 304.588 36.0166 304.842L119.684 352.864C121.893 354.136 122.912 356.766 122.147 359.312L109.066 400.715C108.302 403.091 106.178 404.618 103.715 404.618H103.8Z" fill="#084C94"/>
<path opacity="0.5" d="M19.708 349.809L29.3064 311.969C29.816 310.018 30.4956 308.151 31.345 306.285C31.9396 305.097 33.1287 304.333 34.4029 304.333C34.9975 304.333 35.5071 304.503 36.0168 304.757L119.684 352.779C121.893 354.051 18.5188 353.882 19.623 349.809H19.708Z" fill="#2672AB"/>
<path d="M105.584 400.206C104.565 400.206 103.63 399.952 102.781 399.443L24.8046 355.239C22.1714 353.712 20.4726 351.082 20.1328 348.197L19.7081 349.724C18.6888 353.797 20.4726 358.124 24.21 360.16L101.082 403.685C101.932 404.194 102.866 404.448 103.8 404.448C106.264 404.448 108.387 402.836 109.152 400.545L109.916 398.085C108.897 399.358 107.283 400.121 105.584 400.121V400.206Z" fill="#001A46"/>
<path d="M66.2558 359.227L44.5108 354.476C44.5108 354.476 44.0011 354.221 43.6614 354.306L30.8352 351.506C30.3255 351.421 29.9008 351.676 29.8159 352.185C29.731 352.694 29.9858 353.118 30.4954 353.203L43.2367 356.003L47.3988 370.341C47.3988 370.341 47.8235 370.935 48.2482 370.935C48.2482 370.935 48.4181 370.935 48.503 370.935C48.9277 370.766 49.2675 370.341 49.0976 369.832L45.1903 356.427L65.8311 360.924H65.916C66.3408 360.924 66.7655 360.669 66.8504 360.245C66.9353 359.736 66.6805 359.312 66.1709 359.227H66.2558Z" fill="#001A46"/>
<path d="M100.572 378.401L78.8272 373.65C78.8272 373.65 78.3175 373.396 77.9778 373.48L65.1516 370.681C64.642 370.596 64.2172 370.85 64.1323 371.359C64.0474 371.868 64.3022 372.293 64.8118 372.378L77.5531 375.177L81.7152 389.516C81.7152 389.516 82.1399 390.11 82.5646 390.11C82.5646 390.11 82.7345 390.11 82.8194 390.11C83.2441 389.94 83.5839 389.516 83.414 389.007L79.5067 375.602L100.148 380.098C100.148 380.098 100.232 380.098 100.317 380.098C100.742 380.098 101.082 379.844 101.167 379.42C101.252 378.91 100.997 378.486 100.487 378.401H100.572Z" fill="#001A46"/>
<g style="mix-blend-mode:multiply">
<path d="M172.178 380.183L166.657 383.407C165.468 384.086 164.703 385.443 164.703 386.886V387.14C164.703 388.583 166.232 389.431 167.506 388.752L172.433 385.868C173.622 385.189 174.302 383.916 174.302 382.559V381.541C174.302 380.438 173.112 379.759 172.178 380.268V380.183Z" fill="#A8CFF0"/>
</g>
<g style="mix-blend-mode:multiply">
<g style="mix-blend-mode:multiply">
<path d="M172.433 385.783L167.506 388.667C166.317 389.346 164.873 388.583 164.788 387.225V387.395V388.328C164.788 389.77 166.317 390.619 167.591 389.94L172.518 387.055C173.707 386.377 174.386 385.104 174.386 383.747V382.474C174.386 383.831 173.622 385.104 172.518 385.783H172.433Z" fill="#A8CFF0"/>
</g>
</g>
<g style="mix-blend-mode:multiply">
<path d="M162.24 399.188L203.437 401.903L161.73 426.508L162.24 399.188Z" fill="#A8CFF0"/>
</g>
<path d="M190.865 420.229V438.895L176.595 430.919L177.529 412.254L190.865 420.229Z" fill="#3F92D1"/>
<path d="M127.244 459.003C127.244 466.638 129.877 472.068 134.124 474.614C134.294 474.614 147.036 482.08 147.205 482.165C151.622 484.625 148.819 479.026 155.615 475.123C169.205 467.232 180.248 448.227 180.248 432.616C180.248 424.896 187.383 424.811 183.051 422.265C182.966 422.265 169.29 414.629 169.12 414.545C164.703 412.169 158.588 412.593 151.877 416.411C138.287 424.302 127.244 443.307 127.244 458.918V459.003Z" fill="#084C94"/>
<path d="M140.92 466.808C140.92 482.419 151.962 488.698 165.553 480.892C179.144 473.002 190.186 453.997 190.186 438.386C190.186 422.774 179.144 416.496 165.553 424.302C151.962 432.192 140.92 451.197 140.92 466.808Z" fill="#03336E"/>
<path d="M148.055 462.651C148.055 473.765 155.954 478.262 165.638 472.662C175.321 467.063 183.22 453.488 183.22 442.373C183.22 431.259 175.321 426.762 165.638 432.362C155.954 437.961 148.055 451.536 148.055 462.651Z" fill="#A8CFF0"/>
<path d="M175.661 430.241C178.804 432.107 180.757 435.925 180.757 441.44C180.757 452.554 172.858 466.129 163.174 471.729C159.437 473.85 155.954 474.529 153.151 473.935C156.379 475.802 160.796 475.547 165.638 472.747C175.321 467.148 183.221 453.573 183.221 442.458C183.221 435.586 180.248 431.259 175.661 430.241Z" fill="#72B5E8"/>
<path d="M164.448 423.708C170.989 419.975 176.935 419.466 181.352 421.671C177.275 420.484 172.178 421.417 166.572 424.556C152.981 432.447 141.939 451.451 141.939 467.063C141.939 475.208 144.912 480.807 149.754 483.183C143.723 481.486 139.815 475.547 139.815 466.214C139.815 450.603 150.858 431.598 164.448 423.708Z" fill="#2672AB"/>
<path d="M163.09 436.18C161.815 436.943 160.796 438.64 160.796 440.167C160.796 441.695 161.815 442.204 163.09 441.44C164.364 440.676 165.383 438.98 165.383 437.452C165.383 435.925 164.364 435.416 163.09 436.18ZM163.09 463.075C161.815 463.839 160.796 465.536 160.796 467.063C160.796 468.59 161.815 469.099 163.09 468.335C164.364 467.572 165.383 465.875 165.383 464.348C165.383 462.821 164.364 462.311 163.09 463.075ZM169.715 440.761C170.649 441.27 172.093 440.422 172.943 438.895C173.877 437.368 173.877 435.671 172.943 435.162C172.008 434.653 170.564 435.501 169.715 437.028C168.781 438.555 168.781 440.252 169.715 440.761ZM156.379 463.754C155.445 463.245 154.001 464.093 153.151 465.62C152.217 467.148 152.217 468.844 153.151 469.353C154.086 469.863 155.53 469.014 156.379 467.487C157.314 465.96 157.314 464.263 156.379 463.754ZM174.727 442.882C173.452 443.646 172.433 445.343 172.433 446.87C172.433 448.397 173.452 448.906 174.727 448.143C176.001 447.379 177.02 445.682 177.02 444.155C177.02 442.628 176.001 442.119 174.727 442.882ZM151.283 456.372C150.009 457.136 148.989 458.833 148.989 460.36C148.989 461.887 150.009 462.396 151.283 461.633C152.557 460.869 153.576 459.172 153.576 457.645C153.576 456.118 152.557 455.609 151.283 456.372ZM172.943 454.167C172.008 453.657 170.564 454.506 169.715 456.033C168.781 457.56 168.781 459.257 169.715 459.766C170.649 460.275 172.093 459.427 172.943 457.9C173.877 456.372 173.877 454.676 172.943 454.167ZM156.379 444.749C155.445 444.24 154.001 445.088 153.151 446.615C152.217 448.143 152.217 449.84 153.151 450.349C154.086 450.858 155.53 450.009 156.379 448.482C157.314 446.955 157.314 445.258 156.379 444.749Z" fill="#03336E"/>
<path d="M155.954 455.269C155.954 457.391 156.719 458.833 157.823 459.596C157.823 459.596 160.626 461.293 160.711 461.293C161.9 461.972 161.136 460.445 163.004 459.342C166.742 457.136 169.8 451.961 169.8 447.634C169.8 445.512 171.753 445.512 170.564 444.749C170.564 444.749 167.506 443.052 167.506 442.967C166.317 442.288 164.618 442.458 162.749 443.476C159.012 445.682 155.954 450.858 155.954 455.185V455.269Z" fill="#3F92D1"/>
<path d="M159.013 457.051C159.013 461.378 162.071 463.075 165.808 460.954C169.545 458.748 172.603 453.573 172.603 449.246C172.603 444.919 169.545 443.222 165.808 445.343C162.071 447.464 159.013 452.724 159.013 457.051Z" fill="#2672AB"/>
<path d="M134.718 479.704V452.554L152.386 422.096L177.274 407.757L162.239 399.188L137.266 413.611L119.599 444.07V471.22L134.718 479.704Z" fill="#D1EBFF"/>
<path d="M134.718 479.704V452.554L152.386 422.096L177.274 407.757L162.239 399.188L137.266 413.611L119.599 444.07V471.22L134.718 479.704Z" fill="#D1EBFF"/>
<path opacity="0.7" d="M134.718 479.704V452.554L119.599 444.07V471.22L134.718 479.704Z" fill="#72B5E8"/>
<path d="M134.718 452.554L152.386 422.096L137.266 413.611L119.599 444.07L134.718 452.554Z" fill="#A8CFF0"/>
<path d="M138.881 477.414V453.657L155.444 425.15L177.359 412.508L190.865 420.229V438.895L195.027 436.519V417.769L177.359 407.672L152.387 422.096L134.719 452.555V479.874L138.881 477.414Z" fill="#72B5E8"/>
<path d="M5.26855 415.478L99.9783 471.644C104.565 474.274 110.256 474.274 114.843 471.644L132.596 461.718V477.838L114.758 487.849C110.086 490.479 104.395 490.479 99.8085 487.849L8.58127 435.586C6.54268 434.398 5.26855 432.192 5.26855 429.901V415.563V415.478Z" fill="#2672AB"/>
<path d="M114.758 454.591C114.758 455.779 114.079 456.797 112.974 457.221C108.727 458.918 103.801 458.663 99.8084 456.372L86.3026 448.652C83.4146 446.955 83.7544 442.713 86.8123 441.44L93.3528 438.131C94.3721 437.707 95.5613 437.792 96.5806 438.216C100.488 439.998 106.434 443.985 111.87 442.204C113.484 441.694 114.928 443.391 114.928 445.088V454.506L114.758 454.591Z" fill="#2672AB"/>
<path d="M6.88198 418.532L99.9779 471.644C104.565 474.274 110.256 474.274 114.843 471.644L132.595 461.717L127.754 458.918L114.928 466.129C110.256 468.844 104.565 468.759 99.8929 466.129L12.4881 415.817V409.369L6.79704 412.848C4.6735 414.12 4.6735 417.26 6.88198 418.532Z" fill="#3F92D1"/>
<path d="M12.3184 414.714L12.4882 414.799V409.369L12.4033 409.454L12.3184 414.714Z" fill="#72B5E8"/>
<path d="M131.577 461.124L114.758 470.541C110.171 473.171 104.48 473.171 99.8934 470.541L6.7975 417.429C6.03303 417.005 5.52338 416.241 5.26855 415.478C5.26855 416.666 5.7782 417.854 6.88244 418.532L99.9783 471.644C104.565 474.274 110.256 474.274 114.843 471.644L132.596 461.718L131.577 461.124Z" fill="#72B5E8"/>
<path d="M133.275 404.194C133.275 404.194 132.68 404.024 132.51 403.769C132.256 403.345 132.425 402.836 132.765 402.582L138.711 399.018C141.854 397.152 143.808 393.673 143.808 390.025V366.947C143.808 363.469 142.024 360.16 139.136 358.209L133.36 354.306C133.36 354.306 132.85 353.457 133.105 353.118C133.36 352.694 133.954 352.609 134.294 352.863L140.07 356.766C143.468 359.057 145.506 362.875 145.506 366.947V390.025C145.506 394.267 143.213 398.255 139.561 400.461L133.615 404.024C133.615 404.024 133.36 404.109 133.19 404.109L133.275 404.194Z" fill="#A8CFF0"/>
<path d="M148.395 391.382L144.148 388.922C142.279 387.819 140.75 384.934 140.75 382.474V369.747C140.75 367.287 142.279 366.099 144.148 367.202L148.395 369.663C150.263 370.766 151.792 373.65 151.792 376.111V388.837C151.792 391.298 150.263 392.485 148.395 391.382Z" fill="#A8CFF0"/>
<path d="M148.394 369.663L144.147 367.202C143.043 366.608 142.108 366.693 141.514 367.372C141.938 367.372 142.448 367.372 142.958 367.711L147.205 370.172C149.073 371.275 150.602 374.159 150.602 376.62V389.346C150.602 390.364 150.348 391.213 149.838 391.722C150.942 391.637 151.707 390.534 151.707 388.837V376.111C151.707 373.65 150.178 370.766 148.309 369.663H148.394Z" fill="#72B5E8"/>
<path d="M203.607 276.08L110.426 222.714L75.26 243.755C60.0555 252.579 50.7119 268.869 50.7119 286.431H50.8818L143.808 339.204L203.607 276.08Z" fill="#D1EBFF"/>
<path opacity="0.5" d="M165.468 316.381L181.013 300.006L79.1677 241.464L75.3454 243.755C69.7392 247.064 64.8976 251.306 61.0752 256.312L165.553 316.381H165.468Z" fill="white"/>
<path d="M143.128 338.864L203.012 303.739V275.656L167.676 296.273C152.472 305.097 143.128 321.387 143.128 338.949V338.864Z" fill="white"/>
<path d="M143.723 339.119L203.606 303.994V275.911L168.271 296.528C153.066 305.351 143.723 321.641 143.723 339.204V339.119Z" fill="#72B5E8"/>
<path d="M12.4033 396.388V407.503C12.4033 408.351 12.913 409.2 13.6774 409.624L21.3222 413.527C22.7662 414.29 24.3801 412.848 23.8704 411.321L20.8125 401.988C20.3878 400.8 19.4535 399.782 18.2643 399.188L12.4033 396.388Z" fill="#2672AB"/>
<path d="M86.5569 446.87L103.29 456.288C104.819 457.136 106.773 456.033 106.773 454.251V446.955C106.773 444.579 105.499 442.458 103.375 441.355L98.109 438.555C95.9854 437.452 93.4372 437.622 91.4835 439.064L86.3021 442.882C84.943 443.9 85.028 445.937 86.5569 446.785V446.87Z" fill="white"/>
<path d="M12.4033 400.121V406.485C12.4033 407.333 12.913 408.181 13.6774 408.606L21.3222 412.508C22.7662 413.272 24.3801 411.83 23.8704 410.302L20.8125 401.988C20.3878 400.8 19.4534 399.782 18.2643 399.188L15.716 398C14.1871 397.237 12.3184 398.424 12.3184 400.121H12.4033Z" fill="#D1EBFF"/>
<path d="M12.4033 400.121C12.4033 400.121 22.6812 412.763 23.2758 412.424C23.8704 411.999 24.2102 411.151 23.9554 410.302L20.8975 401.988C20.4728 400.8 19.5384 399.782 18.3492 399.188L15.801 398C14.272 397.237 12.4033 398.424 12.4033 400.121Z" fill="white"/>
<g style="mix-blend-mode:multiply">
<path d="M31.9394 448.821V445.852C31.8545 442.628 35.2522 440.676 38.0552 442.288L65.2365 457.9C69.4836 460.36 72.0318 464.857 72.0318 469.693V472.068L31.8545 448.906L31.9394 448.821Z" fill="#3F92D1"/>
</g>
<path d="M106.603 445.512C106.178 443.816 105.074 442.288 103.46 441.525L98.1939 438.725C96.0704 437.622 93.5221 437.792 91.5685 439.234L86.387 443.052C85.5376 443.646 85.2828 444.664 85.5376 445.512H106.688H106.603Z" fill="#D1EBFF"/>
<path d="M90.5488 440.507L93.4368 446.531C93.4368 446.531 98.1086 442.458 97.1743 440.591C96.3248 438.725 90.5488 440.422 90.5488 440.422V440.507Z" fill="#FFCC00"/>
<path d="M94.371 444.834C94.371 446.361 93.2667 446.955 91.9926 446.191C90.7185 445.428 89.6143 443.561 89.6143 442.034C89.6143 440.507 90.7185 439.913 91.9926 440.676C93.2667 441.44 94.371 443.307 94.371 444.834Z" fill="#FFDE17"/>
<path d="M13.9316 402.582L16.9895 408.945C16.9895 408.945 21.9161 404.703 20.9818 402.751C20.0474 400.8 14.0166 402.582 14.0166 402.582H13.9316Z" fill="#FFCC00"/>
<path d="M17.9236 407.078C17.9236 408.69 16.8194 409.369 15.3754 408.521C13.9314 407.672 12.8271 405.721 12.8271 404.109C12.8271 402.497 13.9314 401.818 15.3754 402.667C16.8194 403.515 17.9236 405.466 17.9236 407.078Z" fill="#FFDE17"/>
<path d="M94.9658 445.852L97.8538 451.961C97.8538 451.961 106.688 446.531 105.753 444.664C104.904 442.797 94.9658 445.852 94.9658 445.852Z" fill="#FFCC00"/>
<path d="M98.7879 450.179C98.7879 451.706 97.6837 452.3 96.3246 451.536C94.9656 450.773 93.8613 448.906 93.8613 447.379C93.8613 445.852 94.9656 445.258 96.3246 446.022C97.6837 446.785 98.7879 448.652 98.7879 450.179Z" fill="#FFDE17"/>
<path style="mix-blend-mode:screen" d="M106.773 454.336V447.04C106.773 444.664 105.499 442.543 103.375 441.44L98.1088 438.64C95.9853 437.537 93.4371 437.707 91.4834 439.149L106.773 454.336Z" fill="url(#paint0_radial_0_2390)"/>
<path d="M64.5565 460.615V467.911L38.2246 453.064V445.597L64.5565 460.615Z" fill="#D1EBFF"/>
<g style="mix-blend-mode:color-dodge">
<path d="M38.2246 445.597V446.7L63.6221 461.208V467.402L64.5565 467.911V460.615L38.2246 445.597Z" fill="white"/>
</g>
<path d="M90.8041 403.854V411.066L24.04 373.396V365.929L90.8041 403.854Z" fill="#3F92D1"/>
<path d="M90.8041 403.854V405.297L24.04 367.541V365.929L90.8041 403.854Z" fill="#72B5E8"/>
<path style="mix-blend-mode:screen" d="M12.4033 400.121V406.485C12.4033 407.333 20.8125 401.903 20.8125 401.903C20.3878 400.715 19.4534 399.697 18.2643 399.103L15.716 397.915C14.1871 397.152 12.3184 398.34 12.3184 400.036L12.4033 400.121Z" fill="url(#paint1_radial_0_2390)"/>
<path d="M98.0239 479.026C98.0239 481.147 96.5799 481.995 94.7112 480.892C92.8424 479.789 91.3984 477.244 91.3984 475.208C91.3984 473.171 92.8424 472.238 94.7112 473.341C96.5799 474.444 98.0239 476.989 98.0239 479.026Z" fill="#A8CFF0"/>
<path d="M96.4949 479.959C94.6262 478.941 93.1822 476.311 93.1822 474.274C93.1822 473.765 93.2671 473.256 93.437 472.917C92.2479 472.832 91.3984 473.681 91.3984 475.293C91.3984 477.414 92.8424 479.959 94.7112 480.977C96.0702 481.741 97.2594 481.486 97.7691 480.468C97.3443 480.468 96.9196 480.298 96.4949 480.044V479.959Z" fill="#03336E"/>
<path d="M89.1049 473.765C89.1049 475.886 87.6609 476.735 85.7922 475.632C83.9235 474.529 82.4795 471.984 82.4795 469.947C82.4795 467.911 83.9235 466.978 85.7922 468.081C87.6609 469.184 89.1049 471.729 89.1049 473.765Z" fill="#A8CFF0"/>
<path d="M87.491 474.699C85.6223 473.68 84.1783 471.05 84.1783 469.014C84.1783 468.505 84.2632 467.996 84.4331 467.657C83.2439 467.572 82.3945 468.42 82.3945 470.032C82.3945 472.153 83.8385 474.699 85.7073 475.717C87.0663 476.48 88.2555 476.226 88.7651 475.208C88.3404 475.208 87.9157 475.038 87.491 474.783V474.699Z" fill="#03336E"/>
<path d="M24.9741 437.113C24.9741 439.234 23.5301 440.082 21.6614 438.98C19.7926 437.961 18.3486 435.331 18.3486 433.295C18.3486 431.259 19.7926 430.325 21.6614 431.428C23.5301 432.447 24.9741 435.077 24.9741 437.113Z" fill="#A8CFF0"/>
<path d="M23.3602 438.046C21.4915 437.028 20.0474 434.398 20.0474 432.362C20.0474 431.853 20.1324 431.344 20.3023 431.004C19.1131 430.919 18.2637 431.768 18.2637 433.38C18.2637 435.501 19.7077 438.046 21.5764 439.064C22.9355 439.828 24.1246 439.573 24.6343 438.555C24.2096 438.555 23.7849 438.386 23.3602 438.131V438.046Z" fill="#03336E"/>
<path d="M15.9702 431.938C15.9702 434.059 14.5262 434.907 12.6574 433.804C10.7887 432.701 9.34473 430.156 9.34473 428.12C9.34473 426.083 10.7887 425.15 12.6574 426.253C14.5262 427.356 15.9702 429.901 15.9702 431.938Z" fill="#A8CFF0"/>
<path d="M14.3563 432.871C12.4875 431.853 11.0435 429.223 11.0435 427.186C11.0435 426.677 11.1285 426.168 11.2984 425.829C10.1092 425.744 9.25977 426.592 9.25977 428.204C9.25977 430.326 10.7038 432.871 12.5725 433.889C13.9315 434.653 15.1207 434.398 15.6304 433.38C15.2057 433.38 14.781 433.21 14.3563 432.956V432.871Z" fill="#03336E"/>
<path d="M106.349 445.343V456.118C108.302 456.203 110.171 455.863 111.955 454.845V444.07C110.341 445.088 108.302 445.428 106.349 445.343Z" fill="#EB4680"/>
<g style="mix-blend-mode:multiply">
<path d="M174.726 374.414C173.027 374.414 171.668 373.056 171.668 371.359V339.289C171.668 336.489 173.197 333.943 175.575 332.501L191.374 323.338C191.799 323.083 192.394 322.914 192.903 322.914C194.602 322.914 195.961 324.271 195.961 325.968V358.039C195.961 360.839 194.432 363.384 192.054 364.826L176.255 373.99C175.83 374.244 175.236 374.414 174.726 374.414ZM192.903 324.696C192.903 324.696 192.479 324.696 192.224 324.865L176.425 334.028C174.556 335.131 173.367 337.167 173.367 339.373V371.444C173.367 372.547 174.556 373.056 175.405 372.632L191.205 363.469C193.073 362.366 194.262 360.33 194.262 358.124V326.053C194.262 325.205 193.583 324.696 192.903 324.696Z" fill="#A8CFF0"/>
</g>
<path d="M174.726 374.414C174.217 374.414 173.707 374.244 173.197 373.99L174.047 372.547C174.047 372.547 174.981 372.802 175.406 372.547L191.205 363.384C193.074 362.281 194.263 360.245 194.263 358.039V325.968C194.263 325.289 193.838 324.865 193.413 324.696L194.008 323.168C195.197 323.593 195.877 324.695 195.877 325.968V358.039C195.877 360.839 194.348 363.384 191.969 364.826L176.17 373.99C175.661 374.244 175.151 374.414 174.641 374.414H174.726Z" fill="#A8CFF0"/>
<path d="M137.267 413.611L152.386 422.096L177.359 407.672L152.386 421.247L137.267 413.611Z" fill="white"/>
<g opacity="0.3">
<path d="M567.326 57.5238L568.6 58.3722L209.807 264.881L208.448 264.033L567.326 57.5238Z" fill="#72B5E8"/>
<path d="M557.303 51.6696L558.577 52.518L199.784 259.112L198.51 258.263L557.303 51.6696Z" fill="#72B5E8"/>
<path d="M547.28 45.9003L548.554 46.7487L189.761 253.257L188.487 252.409L547.28 45.9003Z" fill="#72B5E8"/>
<path d="M537.257 40.1309L538.531 40.9793L179.738 247.488L178.464 246.64L537.257 40.1309Z" fill="#72B5E8"/>
<path d="M527.233 34.3616L528.592 35.1252L169.799 241.719L168.44 240.87L527.233 34.3616Z" fill="#72B5E8"/>
<path d="M517.296 28.5073L518.57 29.3558L159.777 235.864L158.418 235.101L517.296 28.5073Z" fill="#72B5E8"/>
<path d="M507.272 22.738L508.547 23.5865L149.754 230.095L148.479 229.247L507.272 22.738Z" fill="#72B5E8"/>
<path d="M497.249 16.9686L498.523 17.8171L139.73 224.326L138.456 223.477L497.249 16.9686Z" fill="#72B5E8"/>
<path d="M487.227 11.1993L488.586 11.9629L129.708 218.556L128.434 217.708L487.227 11.1993Z" fill="#72B5E8"/>
<path d="M477.203 5.34509L478.562 6.19353L119.769 212.702L118.41 211.939L477.203 5.34509Z" fill="#72B5E8"/>
</g>
<g opacity="0.3">
<path d="M566.137 56.6754L567.411 57.5239L208.618 264.033L207.344 263.184L566.137 56.6754Z" fill="#2672AB"/>
<path d="M556.113 50.906L557.472 51.7544L198.679 258.263L197.32 257.415L556.113 50.906Z" fill="#2672AB"/>
<path d="M546.176 45.0519L547.45 45.9003L188.657 252.494L187.298 251.645L546.176 45.0519Z" fill="#2672AB"/>
<path d="M536.152 39.2825L537.426 40.1309L178.633 246.64L177.359 245.791L536.152 39.2825Z" fill="#2672AB"/>
<path d="M526.129 33.5132L527.403 34.3616L168.61 240.87L167.336 240.022L526.129 33.5132Z" fill="#2672AB"/>
<path d="M516.106 27.7438L517.465 28.5074L158.588 235.101L157.313 234.253L516.106 27.7438Z" fill="#2672AB"/>
<path d="M506.083 21.8896L507.442 22.7381L148.649 229.332L147.29 228.483L506.083 21.8896Z" fill="#2672AB"/>
<path d="M496.145 16.1202L497.419 16.9687L138.626 223.477L137.352 222.629L496.145 16.1202Z" fill="#2672AB"/>
<path d="M486.122 10.3508L487.396 11.1993L128.603 217.708L127.329 216.86L486.122 10.3508Z" fill="#2672AB"/>
<path d="M476.099 4.58154L477.373 5.34513L118.58 211.939L117.306 211.09L476.099 4.58154Z" fill="#2672AB"/>
</g>
<path d="M581.341 186.401L213.374 398V386.377L581.341 174.777V186.401Z" fill="#72B5E8"/>
<path d="M577.518 172.911L209.552 384.51L213.374 386.377L581.341 174.777L577.518 172.911Z" fill="#D1EBFF"/>
<path d="M209.637 395.964L213.374 398V386.377L209.637 384.34V395.964Z" fill="#A8CFF0"/>
<path d="M580.916 186.655L570.808 192.425L556.538 189.031L566.646 183.262L580.916 186.655Z" fill="#D62D69"/>
<path d="M554.754 201.673L544.646 207.527L530.376 204.133L540.484 198.279L554.754 201.673Z" fill="#D62D69"/>
<path d="M528.593 216.775L518.4 222.544L504.13 219.15L514.323 213.381L528.593 216.775Z" fill="#D62D69"/>
<path d="M502.346 231.792L492.238 237.646L477.968 234.253L488.076 228.398L502.346 231.792Z" fill="#D62D69"/>
<path d="M476.184 246.894L465.991 252.748L451.806 249.27L461.914 243.5L476.184 246.894Z" fill="#D62D69"/>
<path d="M449.937 261.911L439.829 267.766L425.559 264.372L435.752 258.518L449.937 261.911Z" fill="#D62D69"/>
<path d="M423.775 277.013L413.667 282.868L399.396 279.389L409.505 273.62L423.775 277.013Z" fill="#D62D69"/>
<path d="M397.613 292.031L387.42 297.885L373.234 294.491L383.342 288.637L397.613 292.031Z" fill="#D62D69"/>
<path d="M371.366 307.133L361.257 312.987L346.987 309.593L357.18 303.739L371.366 307.133Z" fill="#D62D69"/>
<path d="M345.203 322.15L335.095 328.004L320.825 324.611L330.933 318.756L345.203 322.15Z" fill="#D62D69"/>
<path d="M319.042 337.252L308.849 343.106L294.579 339.713L304.772 333.859L319.042 337.252Z" fill="#D62D69"/>
<path d="M292.795 352.269L282.687 358.124L268.417 354.73L278.525 348.876L292.795 352.269Z" fill="#D62D69"/>
<path d="M266.633 367.372L256.44 373.226L242.255 369.832L252.363 363.978L266.633 367.372Z" fill="#D62D69"/>
<path d="M240.386 382.389L230.278 388.243L216.008 384.849L226.201 378.995L240.386 382.389Z" fill="#D62D69"/>
<defs>
<radialGradient id="paint0_radial_0_2390" cx="0" cy="0" r="1" gradientUnits="userSpaceOnUse" gradientTransform="translate(100.402 452.385) scale(14.3551 14.3385)">
<stop stop-color="white"/>
<stop offset="1"/>
</radialGradient>
<radialGradient id="paint1_radial_0_2390" cx="0" cy="0" r="1" gradientUnits="userSpaceOnUse" gradientTransform="translate(19.2836 408.097) scale(11.2123 11.1993)">
<stop stop-color="white"/>
<stop offset="1"/>
</radialGradient>
</defs>
</svg>
