<svg width="178" height="49" viewBox="0 0 178 49" fill="none" xmlns="http://www.w3.org/2000/svg">
<path d="M13.0373 37.3998C13.31 37.9491 13.6775 38.4459 14.123 38.8674C15.3798 39.9935 17.0244 40.588 18.7107 40.5259C20.3717 40.5985 21.9965 40.0255 23.2446 38.927C23.8062 38.3699 24.2454 37.7017 24.5341 36.9652C24.8227 36.2287 24.9545 35.44 24.921 34.6496V34.0948C22.8911 34.7275 20.7772 35.0493 18.651 35.0493C13.9023 34.9777 10.2135 33.7488 7.58463 31.3625C4.95575 28.9762 3.61346 25.8462 3.55778 21.9725V20.2961H0.467552L7.94854 12.8032L15.4295 20.2902H12.3811V20.7913C12.3523 21.6024 12.4916 22.4107 12.7904 23.1653C13.0892 23.9199 13.5409 24.6045 14.1171 25.1761C15.3971 26.2364 17.0041 26.8221 18.6662 26.834C20.3283 26.846 21.9435 26.2835 23.2386 25.2417C24.2108 24.2936 24.7956 23.0177 24.8792 21.6623L29.3475 26.1306L33.7443 21.7339V22.068C33.7443 22.3245 33.7443 22.581 33.7443 22.8316V35.7593C33.7045 39.6012 32.3562 42.7053 29.6995 45.0717C27.0428 47.4381 23.358 48.6551 18.645 48.7227C13.9003 48.683 10.2135 47.458 7.58463 45.0479C5.37573 43.0729 3.98072 40.3467 3.67113 37.3998H13.0373Z" fill="#0069B4"/>
<path d="M33.7503 13.8055V15.4819H36.8405L29.3536 22.9689L21.8726 15.4819H24.9211V14.9808C24.9499 14.1697 24.8105 13.3614 24.5117 12.6068C24.213 11.8522 23.7613 11.1676 23.185 10.596C21.905 9.53569 20.2981 8.95003 18.636 8.93807C16.9739 8.92611 15.3586 9.48859 14.0635 10.5304C13.0923 11.4792 12.5077 12.7547 12.4229 14.1098L7.94864 9.62955L3.55192 14.0263V13.6922C3.59567 9.85028 4.94392 6.74612 7.59667 4.37972C10.2494 2.01333 13.9322 0.794336 18.6451 0.722748C23.3859 0.794336 27.0787 2.02526 29.7235 4.41552C32.3683 6.80578 33.7086 9.93579 33.7444 13.8055" fill="#F39200"/>
<path d="M73.5713 10.9002C73.5678 10.3876 73.7169 9.88545 73.9996 9.4578C74.2823 9.03015 74.6859 8.6963 75.159 8.49876C75.6321 8.30121 76.1533 8.2489 76.6562 8.34849C77.1591 8.44808 77.621 8.69507 77.9831 9.058C78.3451 9.42093 78.591 9.8834 78.6895 10.3865C78.7879 10.8897 78.7344 11.4107 78.5357 11.8833C78.3371 12.356 78.0023 12.7588 77.574 13.0405C77.1457 13.3223 76.6432 13.4702 76.1306 13.4655C75.4527 13.4592 74.8045 13.1868 74.3257 12.7069C73.8469 12.227 73.5759 11.5781 73.5713 10.9002ZM64.0262 25.8861V14.9509H69.1686V25.2C69.1507 25.6722 69.2311 26.143 69.4046 26.5825C69.5782 27.0221 69.8411 27.4207 70.1768 27.7533C70.9199 28.3726 71.8549 28.7147 72.8221 28.7213C73.7894 28.7278 74.729 28.3983 75.4803 27.7891C75.8081 27.4646 76.0645 27.0751 76.2329 26.6457C76.4014 26.2162 76.4783 25.7563 76.4587 25.2955V14.9509H81.5952V25.9457C81.6195 26.9659 81.4219 27.9792 81.016 28.9155C80.6102 29.8518 80.0058 30.6888 79.2447 31.3686C77.7015 32.7446 75.5579 33.4526 72.8136 33.4923C70.0495 33.4526 67.9019 32.7387 66.3707 31.3507C65.6111 30.661 65.0087 29.8161 64.6042 28.8733C64.1997 27.9305 64.0026 26.9117 64.0262 25.8861ZM66.8658 10.9002C66.8624 10.3863 67.0123 9.88306 67.2964 9.45481C67.5805 9.02657 67.9859 8.6928 68.4608 8.49621C68.9356 8.29961 69.4583 8.24912 69.962 8.35119C70.4656 8.45326 70.9274 8.70326 71.2883 9.0692C71.6491 9.43514 71.8926 9.9004 71.9876 10.4055C72.0826 10.9105 72.0247 11.4325 71.8215 11.9045C71.6182 12.3765 71.2788 12.7772 70.8466 13.0552C70.4144 13.3333 69.9091 13.4761 69.3953 13.4655C68.7102 13.4655 68.0532 13.1933 67.5687 12.7089C67.0843 12.2245 66.8121 11.5674 66.8121 10.8823" fill="#0069B4"/>
<path d="M89.3269 25.9099H91.5998L96.9391 32.9077H103.06L95.7997 23.5057L102.762 15.2075H96.7124L91.6356 21.2925H89.3269V8.3111H84.1845V32.9077H89.3269V25.9099Z" fill="#0069B4"/>
<path d="M134.23 18.7213C135.224 18.7079 136.196 19.0178 136.998 19.6042C137.753 20.1609 138.285 20.9691 138.496 21.8831H129.804C130.063 20.9659 130.624 20.163 131.397 19.6042C132.223 19.0162 133.216 18.7069 134.23 18.7213ZM139.146 26.3693C138.653 27.102 138 27.7138 137.237 28.159C136.406 28.6167 135.471 28.851 134.523 28.8391C133.49 28.8492 132.477 28.5545 131.611 27.992C130.772 27.4572 130.153 26.6375 129.869 25.6832H143.537V24.156C143.489 21.1016 142.61 18.7153 140.9 16.9972C139.19 15.2791 136.935 14.414 134.135 14.4021C132.394 14.3875 130.677 14.8166 129.148 15.6489C127.712 16.431 126.512 17.5849 125.676 18.9897C124.81 20.4583 124.36 22.135 124.375 23.8398C124.339 25.6535 124.817 27.4403 125.753 28.9942C126.624 30.3764 127.864 31.488 129.333 32.2038C130.94 32.9562 132.697 33.3332 134.472 33.3063C136.247 33.2795 137.992 32.8494 139.576 32.0486C140.948 31.3453 142.115 30.2993 142.964 29.0121L139.146 26.3693Z" fill="#F39200"/>
<path d="M146.597 19.4669V25.9934C146.578 27.0911 146.856 28.1735 147.403 29.1254C147.897 29.9497 148.55 30.6675 149.324 31.2373C150.039 31.7711 150.802 32.2384 151.603 32.6333L153.13 33.4446L155.516 29.2149L154.108 28.4155C153.417 28.0778 152.807 27.5957 152.318 27.0016C151.893 26.387 151.683 25.6484 151.722 24.9017V19.4669H154.908V14.9509H151.722V8.31705L146.585 11.1806V14.9509H144.891V19.4669H146.597Z" fill="#F39200"/>
<path d="M163.278 14.945H158.141V32.9018H163.278V14.945Z" fill="#F39200"/>
<path d="M171.051 24.675C171.087 22.945 171.546 21.6206 172.429 20.7019C173.289 19.7956 174.412 19.1821 175.639 18.9479L177.267 18.6258L176.289 14.3007L174.827 14.5572C174.008 14.7036 173.223 15.001 172.513 15.4341C171.737 15.8902 171.106 16.5561 170.693 17.3551V14.9688H165.92V32.9256H171.063L171.051 24.675Z" fill="#F39200"/>
<path d="M43.7846 25.8861V14.951H48.9211V25.2C48.9055 25.6711 48.9869 26.1403 49.1603 26.5785C49.3338 27.0168 49.5955 27.4146 49.9293 27.7474C50.6721 28.369 51.6079 28.7131 52.5765 28.7208C53.5451 28.7284 54.4863 28.399 55.2388 27.7892C55.5654 27.4637 55.8209 27.0741 55.9893 26.6449C56.1577 26.2157 56.2353 25.7562 56.2171 25.2955V14.951H61.3536V25.9458C61.3536 26.1486 61.3536 26.3514 61.3536 26.5423V33.5938C61.3747 34.6169 61.172 35.6323 60.7599 36.569C60.3477 37.5056 59.7359 38.341 58.9673 39.0166C57.4282 40.3967 55.2845 41.1046 52.5363 41.1404C49.7801 41.1006 47.6325 40.3847 46.0933 38.9927C44.8074 37.8445 43.9967 36.2573 43.8204 34.5423H49.2671C49.4265 34.8614 49.6405 35.1502 49.8995 35.3954C50.6315 36.0517 51.5897 36.3981 52.5721 36.3619C53.5384 36.4048 54.4837 36.0712 55.2089 35.4312C55.536 35.1073 55.7919 34.7188 55.9603 34.2905C56.1288 33.8622 56.2061 33.4034 56.1873 32.9435C55.0057 33.3133 53.7745 33.5004 52.5363 33.4983C49.7801 33.4586 47.6325 32.7447 46.0933 31.3566C45.3349 30.6664 44.7336 29.8213 44.3301 28.8785C43.9266 27.9357 43.7304 26.9173 43.7548 25.8921" fill="#0069B4"/>
<path d="M104.169 25.8801V22.4976C104.146 21.477 104.345 20.4635 104.752 19.5272C105.159 18.591 105.764 17.7542 106.526 17.0748C108.069 15.6947 110.213 14.9868 112.957 14.951C115.713 14.9947 117.861 15.7086 119.4 17.0926C120.159 17.7823 120.762 18.6272 121.166 19.57C121.571 20.5128 121.768 21.5316 121.744 22.5572V25.9458C121.744 26.1486 121.744 26.3514 121.714 26.5423L121.744 33.5938C121.767 34.6144 121.569 35.6278 121.162 36.5641C120.755 37.5004 120.15 38.3372 119.388 39.0166C117.841 40.3967 115.697 41.1046 112.957 41.1404C110.197 41.1006 108.049 40.3847 106.514 38.9927C105.228 37.8437 104.416 36.2573 104.235 34.5423H109.688C109.847 34.8614 110.061 35.1502 110.32 35.3954C111.049 36.0524 112.006 36.3991 112.987 36.3619C113.953 36.4061 114.899 36.0723 115.623 35.4312C115.951 35.108 116.208 34.7196 116.376 34.2911C116.545 33.8626 116.622 33.4035 116.602 32.9435C115.422 33.3133 114.193 33.5004 112.957 33.4983C110.197 33.4586 108.049 32.7447 106.514 31.3566C105.754 30.6663 105.151 29.8205 104.746 28.8766C104.342 27.9327 104.145 26.9128 104.169 25.8861V25.8801ZM109.312 24.0069V25.0628C109.277 25.5618 109.349 26.0625 109.523 26.5315C109.697 27.0005 109.969 27.4272 110.32 27.7832C111.063 28.4025 111.998 28.7446 112.965 28.7511C113.933 28.7576 114.872 28.4282 115.623 27.819C115.951 27.4944 116.208 27.1049 116.376 26.6755C116.545 26.2461 116.621 25.7862 116.602 25.3253V23.2731C116.618 22.8011 116.537 22.3307 116.364 21.8914C116.19 21.4521 115.928 21.0533 115.594 20.7198C114.847 20.1053 113.912 19.7664 112.945 19.7599C111.978 19.7534 111.039 20.0797 110.284 20.684C109.957 21.0091 109.702 21.3988 109.535 21.8282C109.367 22.2576 109.291 22.7172 109.312 23.1777V24.0069Z" fill="#F39200"/>
<path d="M158.129 10.9002C158.125 10.3886 158.274 9.88742 158.555 9.46028C158.837 9.03314 159.239 8.69926 159.711 8.501C160.183 8.30274 160.703 8.24903 161.205 8.34667C161.707 8.44431 162.169 8.68891 162.532 9.04945C162.895 9.40998 163.143 9.87022 163.244 10.3718C163.345 10.8733 163.295 11.3936 163.1 11.8667C162.905 12.3398 162.574 12.7442 162.149 13.0289C161.724 13.3135 161.224 13.4655 160.712 13.4655C160.027 13.4655 159.37 13.1933 158.885 12.7089C158.401 12.2245 158.129 11.5674 158.129 10.8823" fill="#F39200"/>
</svg>
