<svg width="48" height="48" viewBox="0 0 48 48" fill="none" xmlns="http://www.w3.org/2000/svg">
<path d="M10.4104 3.05176e-05H37.5896C40.3506 3.05176e-05 42.9985 1.09684 44.9509 3.04917C46.9032 5.0015 48 7.64943 48 10.4104V37.5896C48 40.3506 46.9032 42.9986 44.9509 44.9509C42.9985 46.9032 40.3506 48 37.5896 48H10.4066C9.03967 48 7.68613 47.7307 6.42329 47.2075C5.16045 46.6843 4.01307 45.9174 3.04668 44.9507C2.08028 43.9839 1.31382 42.8362 0.791062 41.5732C0.268305 40.3102 -0.000500011 38.9565 6.98222e-07 37.5896V10.4104C6.98222e-07 7.64943 1.09681 5.0015 3.04914 3.04917C5.00147 1.09684 7.6494 3.05176e-05 10.4104 3.05176e-05V3.05176e-05Z" fill="#0069B4"/>
<path d="M20.0509 32.8971C20.2439 33.2826 20.5018 33.632 20.8133 33.9301C21.6998 34.7142 22.8557 35.1241 24.0382 35.0737C25.3927 35.0585 26.4537 34.6849 27.2211 33.953C27.6162 33.5621 27.9254 33.093 28.1289 32.5758C28.3324 32.0585 28.4257 31.5045 28.4028 30.9492V30.568C26.9772 31.0106 25.4927 31.2342 24 31.2313C20.6684 31.183 18.075 30.3202 16.2199 28.643C14.3647 26.9657 13.4232 24.7662 13.3952 22.0445V20.8628H11.2262L16.4829 15.6061L21.7434 20.878H19.6011V21.2326C19.5806 21.802 19.6781 22.3696 19.8874 22.8996C20.0966 23.4296 20.4131 23.9107 20.8171 24.3126C21.7001 25.1049 22.8564 25.5232 24.042 25.4791C25.3965 25.4638 26.4575 25.0902 27.2249 24.3584C27.9024 23.6919 28.3096 22.7986 28.3685 21.8501L31.5096 24.9911L34.5972 21.9035V22.136C34.5972 22.319 34.5972 22.5172 34.5782 22.6735L34.5972 31.7535C34.5667 34.4524 33.6188 36.6341 31.7535 38.2986C29.8882 39.9632 27.3012 40.8183 23.9924 40.8641C20.6608 40.8132 18.0674 39.9492 16.2122 38.2719C14.6583 36.8854 13.6781 34.9686 13.4638 32.8971H20.0509Z" fill="white"/>
<path d="M34.6051 16.3228V17.5083H36.7741L31.5174 22.765L26.2569 17.5083H28.403V17.1538C28.423 16.584 28.3249 16.0163 28.115 15.4863C27.9051 14.9562 27.5878 14.4753 27.1832 14.0737C26.2979 13.2876 25.1411 12.8774 23.9583 12.9301C22.6089 12.9454 21.5479 13.3177 20.7753 14.047C20.0967 14.7127 19.6892 15.6065 19.6318 16.5553L16.4907 13.4143L13.403 16.5019V16.2694C13.4335 13.5705 14.3802 11.3888 16.2429 9.7243C18.1057 8.05975 20.694 7.2046 24.0079 7.15886C27.3344 7.20715 29.9265 8.07118 31.7842 9.75098C33.6419 11.4308 34.5847 13.629 34.6127 16.3456" fill="#F39200"/>
</svg>
