<svg width="80" height="21" viewBox="0 0 80 21" fill="none" xmlns="http://www.w3.org/2000/svg">
<path d="M4.90412 13.5824C3.80794 14.0982 2.94253 15.0723 2.65406 16.2758C2.48098 16.0466 2.3079 15.7027 2.13482 15.2443C1.96174 14.7858 1.90405 14.3274 1.90405 13.8116V13.2959H4.84642C5.0195 13.2959 5.0195 13.5251 4.90412 13.5824Z" fill="black"/>
<path d="M8.25104 13.5824C8.13569 13.5251 8.13569 13.2959 8.30876 13.2959H12.2319C12.405 13.2959 12.4627 13.5251 12.2896 13.5824C11.4819 13.9262 10.7896 14.5566 10.3857 15.3589C10.328 15.4735 10.2127 15.4735 10.1549 15.3589C9.75111 14.5566 9.05879 13.9262 8.25104 13.5824Z" fill="black"/>
<path d="M6.5777 13.9838C8.30852 13.9838 9.75081 15.4165 9.75081 17.1356C9.75081 18.8548 8.30852 20.2874 6.5777 20.2874C4.84688 20.2874 3.40454 18.8548 3.40454 17.1356C3.40454 15.4165 4.84688 13.9838 6.5777 13.9838ZM6.5777 19.0267C7.6162 19.0267 8.42387 18.2244 8.42387 17.1929C8.42387 16.1614 7.6162 15.3591 6.5777 15.3591C5.53921 15.3591 4.7315 16.1614 4.7315 17.1929C4.7315 18.1671 5.5969 19.0267 6.5777 19.0267Z" fill="black"/>
<path d="M14.0196 13.9838C15.7504 13.9838 17.1927 15.4165 17.1927 17.1356C17.1927 18.8548 15.7504 20.2874 14.0196 20.2874C12.2888 20.2874 10.8464 18.8548 10.8464 17.1356C10.7888 15.4165 12.2311 13.9838 14.0196 13.9838ZM14.0196 19.0267C15.058 19.0267 15.8658 18.2244 15.8658 17.1929C15.8658 16.1614 15.058 15.3591 14.0196 15.3591C12.9811 15.3591 12.1734 16.1614 12.1734 17.1929C12.1734 18.1671 12.9811 19.0267 14.0196 19.0267Z" fill="black"/>
<path d="M73.3282 13.8691C75.059 13.8691 76.5011 15.3018 76.5011 17.021C76.5011 18.7402 75.059 20.1729 73.3282 20.1729C71.5974 20.1729 70.155 18.7402 70.155 17.021C70.155 15.3018 71.5974 13.8691 73.3282 13.8691ZM73.3282 18.8548C74.3667 18.8548 75.1741 18.0525 75.1741 17.021C75.1741 15.9895 74.3667 15.1872 73.3282 15.1872C72.2897 15.1872 71.482 15.9895 71.482 17.021C71.482 18.0525 72.3474 18.8548 73.3282 18.8548Z" fill="black"/>
<path d="M50.1368 13.8691C51.8676 13.8691 53.3099 15.3018 53.3099 17.021C53.3099 18.7402 51.8676 20.1729 50.1368 20.1729C48.406 20.1729 46.9636 18.7402 46.9636 17.021C46.9636 15.3018 48.406 13.8691 50.1368 13.8691ZM50.1368 18.8548C51.1753 18.8548 51.983 18.0525 51.983 17.021C51.983 15.9895 51.1753 15.1872 50.1368 15.1872C49.0983 15.1872 48.2906 15.9895 48.2906 17.021C48.2906 18.0525 49.156 18.8548 50.1368 18.8548Z" fill="black"/>
<path d="M42.9814 13.8691C44.7123 13.8691 46.1546 15.3018 46.1546 17.021C46.1546 18.7402 44.7123 20.1729 42.9814 20.1729C41.2507 20.1729 39.8083 18.7402 39.8083 17.021C39.7506 15.3018 41.193 13.8691 42.9814 13.8691ZM42.9814 18.8548C44.02 18.8548 44.8276 18.0525 44.8276 17.021C44.8276 15.9895 44.02 15.1872 42.9814 15.1872C41.943 15.1872 41.1352 15.9895 41.1352 17.021C41.1352 18.0525 41.943 18.8548 42.9814 18.8548Z" fill="black"/>
<path d="M57.9248 1.54831H61.271C61.3288 1.54831 61.3864 1.6056 61.3864 1.66291V2.86635C61.3864 2.92365 61.3288 2.98097 61.271 2.98097H57.8671C57.8094 2.98097 57.7517 2.92365 57.7517 2.86635V1.66291C57.8094 1.6056 57.8671 1.54831 57.9248 1.54831Z" fill="black"/>
<path d="M15.635 13.5252C15.462 13.4679 15.5196 13.2387 15.6927 13.2387H52.9628V13.6398H54.982V12.4364H55.7898L56.309 0.803168C56.309 0.516637 56.5398 0.287415 56.8282 0.287415H63.7515C64.8477 0.287415 65.9438 0.688563 66.7516 1.43354L66.9824 1.66277C66.9824 1.66277 71.0209 3.61119 71.1363 3.78311C72.1747 5.33038 69.5209 1.72007 71.5978 8.25299L76.2713 9.11262C78.5207 9.62834 79.0978 10.1441 79.0978 10.1441L79.2713 11.806C79.9635 12.3791 79.8484 13.0668 79.9059 13.6398C79.9059 13.7544 79.9059 13.8691 79.9059 13.9263C79.9059 13.9837 79.9059 14.0409 79.9059 14.0983V15.6455C79.9059 16.3905 79.2713 17.0209 78.5207 17.0209H76.7901C76.7901 15.0152 75.1746 13.4106 73.1556 13.4106C71.1363 13.4106 69.5209 15.0152 69.5209 17.0209H53.7705C53.7705 16.7916 53.7705 16.5624 53.7128 16.3905C53.7128 16.3332 53.6551 16.2186 53.6551 16.1613C53.5974 16.0467 53.5974 15.9321 53.5398 15.7601C53.482 15.6455 53.482 15.5882 53.4243 15.4736C53.3666 15.4163 53.3666 15.359 53.309 15.2444C52.6743 14.0983 51.5204 13.3533 50.1358 13.3533C49.7319 13.3533 49.3281 13.4679 48.9242 13.5825C47.655 14.0409 46.7319 15.1298 46.5588 16.5051C46.3857 15.1298 45.4626 13.9837 44.1357 13.5825C43.7318 13.4679 43.3856 13.3533 42.9241 13.3533C42.5202 13.3533 42.1164 13.4679 41.7702 13.5825C40.3279 14.0983 39.2894 15.4163 39.2894 16.9636H38.1355H37.9625V16.9062C37.5586 16.849 37.2701 16.5624 37.1547 16.1613H26.7699V16.2759H18.0005C17.9428 16.2759 17.8851 16.2186 17.8851 16.1613C17.6543 15.0152 16.7889 14.0409 15.635 13.5252ZM65.9438 9.97217H66.5208C66.6362 9.97217 66.7516 9.85756 66.7516 9.74295C66.7516 9.62834 66.6362 9.51373 66.5208 9.51373H65.9438C65.8285 9.51373 65.7131 9.62834 65.7131 9.74295C65.7131 9.85756 65.7708 9.97217 65.9438 9.97217ZM65.54 7.90916C65.54 8.31034 65.8861 8.65417 66.29 8.65417H70.0978C70.617 8.65417 70.9632 8.19572 70.8478 7.73728L70.2132 5.38768C70.0978 5.04385 69.8093 4.81461 69.4632 4.81461H66.29C65.8861 4.81461 65.54 5.15847 65.54 5.55961V7.90916ZM64.8477 15.8175C64.8477 15.3017 64.4439 14.9006 63.9823 14.9006C63.5208 14.9006 63.1168 15.3017 63.1168 15.8175H64.8477ZM64.8477 14.3275C64.8477 13.8117 64.4439 13.4106 63.9823 13.4106C63.5208 13.4106 63.1168 13.8117 63.1168 14.3275H64.8477ZM57.5783 2.92351C57.5783 3.09543 57.6937 3.21004 57.8668 3.21004H61.2707C61.4438 3.21004 61.5591 3.09543 61.5591 2.92351V1.72007C61.5591 1.54815 61.4438 1.43354 61.2707 1.43354H57.8668C57.6937 1.43354 57.5783 1.54815 57.5783 1.72007V2.92351Z" fill="black"/>
<path d="M0 11.2331H53.5973V12.7804H0V11.2331Z" fill="black"/>
</svg>
