<svg width="40" height="21" viewBox="0 0 40 21" fill="none" xmlns="http://www.w3.org/2000/svg">
<path d="M30.9547 18.051C30.3569 18.051 29.8787 17.566 29.8787 16.9821C29.8787 16.3884 30.3668 15.9134 30.9547 15.9134C31.5524 15.9134 32.0307 16.3983 32.0307 16.9821C32.0307 17.566 31.5425 18.051 30.9547 18.051Z" fill="black"/>
<path d="M30.9543 20.2874C29.1112 20.2874 27.6267 18.803 27.6267 16.9822C27.6267 15.1513 29.1212 13.6768 30.9543 13.6768C32.7975 13.6768 34.282 15.1612 34.282 16.9822C34.282 18.803 32.7875 20.2874 30.9543 20.2874ZM30.9543 14.993C29.8285 14.993 28.9219 15.8837 28.9219 16.9822C28.9219 18.0806 29.8285 18.9712 30.9543 18.9712C32.0801 18.9712 32.9868 18.0806 32.9868 16.9822C32.9868 15.8837 32.0702 14.993 30.9543 14.993Z" fill="black"/>
<path d="M7.54173 15.9034C8.13954 15.9034 8.61773 16.3884 8.61773 16.9722C8.61773 17.566 8.12956 18.041 7.54173 18.041C6.94397 18.041 6.46573 17.5561 6.46573 16.9722C6.45579 16.3884 6.94397 15.9034 7.54173 15.9034Z" fill="black"/>
<path d="M7.54129 13.667C9.38444 13.667 10.8689 15.1514 10.8689 16.9722C10.8689 18.803 9.37451 20.2775 7.54129 20.2775C5.69815 20.2775 4.21367 18.7932 4.21367 16.9722C4.20371 15.1514 5.69815 13.667 7.54129 13.667ZM7.54129 18.9614C8.6671 18.9614 9.57373 18.0707 9.57373 16.9722C9.57373 15.8738 8.6671 14.9832 7.54129 14.9832C6.41548 14.9832 5.50886 15.8738 5.50886 16.9722C5.50886 18.0707 6.41548 18.9614 7.54129 18.9614Z" fill="black"/>
<path d="M0.916167 0.871286C0.916167 0.554608 1.13535 0.287415 1.41431 0.287415H34.332C34.6109 0.287415 34.9496 0.505128 35.0991 0.782219L35.2486 1.04941C35.129 1.18796 35.0891 1.3364 35.1489 1.44526L37.7592 6.24488C37.819 6.35374 37.9684 6.40321 38.1378 6.3834L38.8552 7.70949C39.0046 7.98658 39.1241 8.46159 39.1241 8.78814V11.3908C38.9747 11.4502 38.8651 11.5591 38.8651 11.6778V13.0435C38.8651 13.1722 38.9747 13.281 39.1241 13.3305V13.6669C39.1241 14.1618 39.5226 14.3003 39.7119 14.6466C39.961 15.092 39.8415 16.1904 39.7219 16.4478C39.6123 16.6853 39.5127 16.9623 38.5164 16.9623L35.408 16.9722C35.129 16.9722 34.8899 16.3587 34.7803 16.0618C34.312 14.8545 33.4353 13.1523 30.9445 13.1523C28.1848 13.1523 26.4711 15.7253 27.2383 18.516C27.4575 19.3176 27.0192 18.8426 26.7701 17.5264C26.7103 17.2097 26.5409 16.9722 26.2619 16.9722L11.985 16.9623C11.726 16.9623 11.5068 16.4972 11.3374 16.042C10.8193 14.6961 9.91272 13.1425 7.53155 13.1425C6.29615 13.1425 5.22017 13.657 4.49287 14.5972C3.68587 15.6461 3.45672 17.0514 3.84528 18.4764C3.90505 18.704 3.92498 18.8426 3.88513 18.8822C3.87517 18.8921 3.8652 18.902 3.84528 18.902C3.73569 18.902 3.48661 18.3676 3.3272 17.4967C3.27739 17.1998 3.12795 17.0118 2.92869 16.9722H1.53387C1.25491 16.9722 0.89624 16.8337 0.89624 16.5566L0.916167 0.871286ZM28.2944 9.76787C28.2944 9.96579 28.4538 10.1142 28.663 10.1142H29.6992C29.8984 10.1142 30.0678 9.9559 30.0678 9.76787V9.41161C30.0678 9.22357 29.9084 9.06523 29.6992 9.06523H28.663C28.4638 9.06523 28.2944 9.22357 28.2944 9.41161V9.76787ZM27.5272 6.4725C27.5272 6.85841 27.7663 7.17508 28.0752 7.17508L32.7578 7.16519C33.0567 7.16519 33.3356 7.34335 33.4851 7.66002L34.8002 10.1538C35.0194 10.4804 35.3382 10.4804 35.6371 10.4804H36.6434C36.9422 10.4804 37.1614 10.2528 37.1614 9.85692V7.17508C37.1614 6.78917 37.1215 6.4725 36.9622 6.14589L34.571 1.69266C34.4117 1.36609 34.043 1.0989 33.7342 1.0989H28.0752C27.7763 1.0989 27.5272 1.41557 27.5272 1.80152V6.4725ZM18.73 11.5294C18.73 11.9153 19.0388 12.2221 19.4273 12.2221H24.7376C25.1262 12.2221 25.435 11.9153 25.435 11.5294V1.8312C25.435 1.44526 25.1262 1.13848 24.7376 1.13848H19.4273C19.0388 1.13848 18.73 1.44526 18.73 1.8312V11.5294ZM10.8592 11.5294C10.8592 11.9153 11.168 12.2221 11.5566 12.2221H16.8669C17.2554 12.2221 17.5643 11.9153 17.5643 11.5294V1.8312C17.5643 1.44526 17.2554 1.13848 16.8669 1.13848H11.5566C11.168 1.13848 10.8592 1.44526 10.8592 1.8312V11.5294ZM2.98846 11.5294C2.98846 11.9153 3.29731 12.2221 3.68587 12.2221H8.99612C9.38468 12.2221 9.69354 11.9153 9.69354 11.5294V1.8312C9.69354 1.44526 9.38468 1.13848 8.99612 1.13848H3.68587C3.29731 1.13848 2.98846 1.44526 2.98846 1.8312V11.5294Z" fill="black"/>
</svg>
