<svg width="47" height="21" viewBox="0 0 47 21" fill="none" xmlns="http://www.w3.org/2000/svg">
<path fill-rule="evenodd" clip-rule="evenodd" d="M13.0645 14.588C14.6295 14.588 15.9336 15.8833 15.9336 17.4377C15.9336 18.9921 14.6295 20.2874 13.0645 20.2874C11.4996 20.2874 10.1956 18.9921 10.1956 17.4377C10.1956 15.8833 11.4996 14.588 13.0645 14.588ZM13.0645 19.1475C14.0035 19.1475 14.7337 18.3703 14.7337 17.4895C14.7337 16.6087 13.9513 15.7797 13.0645 15.7797C12.1256 15.7797 11.3431 16.5568 11.3431 17.4895C11.3431 18.4221 12.1256 19.1475 13.0645 19.1475Z" fill="black"/>
<path fill-rule="evenodd" clip-rule="evenodd" d="M37.9991 14.588C39.564 14.588 40.8681 15.8833 40.8681 17.4377C40.8681 18.9921 39.564 20.2874 37.9991 20.2874C36.4342 20.2874 35.1301 18.9921 35.1301 17.4377C35.1301 15.8833 36.4342 14.588 37.9991 14.588ZM37.9991 19.1475C38.9381 19.1475 39.6683 18.3703 39.6683 17.4895C39.6683 16.6087 38.8859 15.7797 37.9991 15.7797C37.0601 15.7797 36.3299 16.5568 36.3299 17.4895C36.3299 18.4221 37.0601 19.1475 37.9991 19.1475Z" fill="black"/>
<path fill-rule="evenodd" clip-rule="evenodd" d="M35.8078 14.1217L36.5902 13.5C37.1118 13.5 37.9464 13.5 38.3116 13.5C38.8332 13.5 40.0329 13.6036 40.9719 14.6916C41.5979 15.4171 41.8065 16.4533 41.9108 17.0232L41.2327 17.1269C41.0762 15.5207 39.6678 14.2771 38.0507 14.2771C36.2772 14.2771 34.8166 15.7279 34.8166 17.4896C34.8166 17.6451 34.8166 17.8005 34.8688 17.9559L34.1907 18.0595C34.1907 18.0595 34.3471 16.816 34.5558 16.0388C34.7123 15.2616 35.8078 14.1217 35.8078 14.1217Z" fill="black"/>
<path fill-rule="evenodd" clip-rule="evenodd" d="M42.2241 16.8677H42.0676C41.9112 16.1942 41.6503 15.417 41.233 14.847C40.2419 13.4481 38.99 13.3444 38.4162 13.2926C37.9467 13.2926 36.747 13.2926 36.2775 13.2926V13.0336L35.9124 12.2564V9.66571V9.45846V5.0025C35.9124 5.0025 41.7546 5.0025 42.5893 5.0025C42.6415 5.0025 42.7457 5.00251 42.7979 5.05432C43.1109 5.15795 43.476 5.31338 43.7369 5.72789C44.5193 7.0232 45.4582 10.6501 45.4061 11.1683C45.5104 11.2201 45.5626 11.2201 45.5626 11.2201V16.4014H45.9799L46.345 16.9195L46.1885 17.9558L45.9277 18.2149H41.233V18.0595V17.3859L42.3285 17.2823L42.2241 16.8677ZM42.9544 11.7901C43.6847 11.8419 44.2585 11.8418 44.4671 11.6864C44.6758 11.531 44.415 10.0284 44.102 9.09575C43.789 8.16313 43.2674 5.93513 42.9544 5.77968C42.6936 5.67608 42.4849 5.67608 42.1719 5.67608H37.9989C37.8424 5.67608 37.7381 5.83154 37.7381 6.03879V9.14755C37.7381 9.3548 37.8424 9.51025 37.9989 9.51025H40.0333C40.2941 9.51025 40.6071 9.45846 40.8679 9.56205C41.1287 9.66571 41.4417 9.87296 41.6504 10.1838C42.0155 10.8574 42.2241 11.6864 42.9544 11.7901Z" fill="black"/>
<path fill-rule="evenodd" clip-rule="evenodd" d="M1.27578 0.287415H32.7303C33.0433 0.287415 33.252 0.546481 33.252 0.805549V13.2926C33.252 13.6034 32.9911 13.8107 32.7303 13.8107H1.27578C0.962805 13.8107 0.75415 13.5516 0.75415 13.2926V0.857365C0.75415 0.546484 0.962805 0.287415 1.27578 0.287415Z" fill="black"/>
<path fill-rule="evenodd" clip-rule="evenodd" d="M9.83023 16.4015H2.68381V17.6968C2.68381 17.8523 2.52733 18.0077 2.37084 18.0077C2.21435 18.0077 2.05786 17.8523 2.05786 17.6968V16.4015V15.417V14.2772H11.0299C10.404 14.7953 9.93456 15.5725 9.83023 16.4015Z" fill="black"/>
<path fill-rule="evenodd" clip-rule="evenodd" d="M15.0989 14.2772H35.3383C35.0775 14.588 34.3472 15.417 34.1385 16.0388C34.0864 16.1424 34.0864 16.246 34.0342 16.4015H16.2986C16.1943 15.5725 15.7249 14.7953 15.0989 14.2772Z" fill="black"/>
<path fill-rule="evenodd" clip-rule="evenodd" d="M18.1762 16.6605H20.8366L16.194 17.904C16.194 17.8522 16.194 17.8004 16.194 17.7486C16.194 17.5931 16.1418 17.3859 16.1418 17.2304L18.1762 16.6605Z" fill="black"/>
<path d="M22.1409 16.6605H28.9221V17.904H22.1409V16.6605Z" fill="black"/>
<path fill-rule="evenodd" clip-rule="evenodd" d="M30.278 16.6605H33.6165C33.773 16.6605 33.9295 16.8159 33.9295 16.9714V17.5413C33.9295 17.6967 33.773 17.8522 33.6165 17.8522H30.278C30.1216 17.8522 29.9651 17.6967 29.9651 17.5413V16.9714C29.9651 16.7641 30.0694 16.6605 30.278 16.6605Z" fill="black"/>
<path fill-rule="evenodd" clip-rule="evenodd" d="M35.1811 13.8624H34.0857C33.9292 13.8624 33.7727 13.707 33.7727 13.5516V9.71735C33.7727 9.56196 33.9292 9.4065 34.0857 9.4065H34.2422V2.25626H35.0768V9.4065H35.2333C35.3898 9.4065 35.5462 9.56196 35.5462 9.71735V13.5516C35.4941 13.707 35.3898 13.8624 35.1811 13.8624Z" fill="black"/>
</svg>
