<svg width="69" height="21" viewBox="0 0 69 21" fill="none" xmlns="http://www.w3.org/2000/svg">
<path d="M49.6791 3.44272L51.8784 3.5398C52.1716 3.5398 52.416 3.78252 52.416 4.07379V4.70486C52.416 4.99613 52.1716 5.23886 51.8784 5.23886H49.5325C49.2393 5.23886 48.9949 4.99613 48.9949 4.70486L49.1415 3.87961C49.1904 3.68544 49.2881 3.44272 49.6791 3.44272Z" fill="black"/>
<path d="M2.37017 15.0447H5.79124C4.96041 15.6272 4.42282 16.5981 4.42282 17.6661C4.42282 17.7146 4.42282 17.8117 4.42282 17.8602H2.37017C2.17468 17.8602 2.02808 17.7146 2.02808 17.5204V15.3359C2.07695 15.1903 2.22355 15.0447 2.37017 15.0447Z" fill="black"/>
<path d="M9.50562 15.0447H11.2651C10.9229 15.2874 10.6297 15.6272 10.3853 15.967C10.141 15.5787 9.84777 15.2874 9.50562 15.0447Z" fill="black"/>
<path d="M13.1222 15.0447C14.5884 15.0447 15.7614 16.2097 15.7614 17.6661C15.7614 19.1224 14.5884 20.2874 13.1222 20.2874C11.6561 20.2874 10.4832 19.1224 10.4832 17.6661C10.4832 16.2097 11.6561 15.0447 13.1222 15.0447ZM13.1222 18.734C13.7087 18.734 14.1975 18.2486 14.1975 17.6661C14.1975 17.0835 13.7087 16.5981 13.1222 16.5981C12.5358 16.5981 12.0471 17.0835 12.0471 17.6661C12.0471 18.2486 12.5358 18.734 13.1222 18.734Z" fill="black"/>
<path d="M7.64863 15.0447C9.11483 15.0447 10.2877 16.2097 10.2877 17.6661C10.2877 19.1224 9.11483 20.2874 7.64863 20.2874C6.18247 20.2874 5.00952 19.1224 5.00952 17.6661C5.00952 16.2097 6.18247 15.0447 7.64863 15.0447ZM7.64863 18.734C8.23514 18.734 8.72385 18.2486 8.72385 17.6661C8.72385 17.0835 8.23514 16.5981 7.64863 16.5981C7.06217 16.5981 6.57345 17.0835 6.57345 17.6661C6.57345 18.2486 7.06217 18.734 7.64863 18.734Z" fill="black"/>
<path d="M1.29504 0.287415H43.814C44.0094 0.287415 44.2049 0.481592 44.2049 0.772858V13.8313C44.2049 14.074 44.0094 14.3167 43.814 14.3167H1.29504C1.09955 14.3167 0.904053 14.1225 0.904053 13.8313V0.772858C0.904053 0.530136 1.05068 0.287415 1.29504 0.287415Z" fill="black"/>
<path d="M43.6677 15.0451H45.8182C45.8182 14.1713 45.9159 10.5304 46.0625 7.22944C46.2091 4.31676 46.4046 1.69537 46.649 1.45266C46.649 1.45266 46.6979 1.45265 46.6979 1.40411C46.991 1.25847 49.1903 1.64683 50.1189 2.03519C51.6828 2.18082 55.7392 2.95753 58.8182 5.53037C59.3558 5.7731 59.9422 5.91873 60.3821 6.50126C60.4309 6.59835 60.5287 6.79253 60.4309 6.79253C60.0889 6.79253 59.5513 6.88964 60.2843 8.73428C60.5287 9.36539 60.6753 9.80225 61.0663 10.5304C61.8972 10.6275 66.3445 11.744 68.153 12.5693C68.4461 12.9577 68.5441 14.2683 68.5441 14.414C68.5441 14.414 68.5924 16.4043 68.5924 16.4528C68.5924 16.5014 68.6903 16.5014 68.6903 16.55C68.6903 16.5985 68.6413 17.9578 68.6413 17.9578C68.6413 18.0548 68.5441 18.1519 68.4461 18.1519H65.6603C65.6603 18.1034 65.6115 18.1034 65.6115 18.1034C65.9535 16.1616 64.4873 14.4625 62.5813 14.4625C60.8708 14.4625 59.4535 15.8218 59.4535 17.5208C59.4535 17.7636 59.4535 17.9578 59.4535 18.1519C59.4535 18.1519 49.4347 18.1519 45.1339 18.1034C45.1828 17.9578 45.1828 17.7636 45.1828 17.6179C45.2806 16.5014 44.6452 15.5305 43.6677 15.0451ZM67.2242 14.6567H67.9082C67.9082 14.6567 67.762 13.1519 66.7844 12.6664C66.7844 12.6664 66.7844 12.6664 66.7844 12.7149C66.7844 12.7635 67.2242 13.7829 67.2242 14.6567ZM55.5926 12.0839H56.6189C56.7655 12.0839 56.9122 11.9382 56.9122 11.7926C56.9122 11.647 56.7655 11.5013 56.6189 11.5013H55.5926C55.446 11.5013 55.2993 11.647 55.2993 11.7926C55.2993 11.9382 55.446 12.0839 55.5926 12.0839ZM55.2993 9.70519C55.2993 9.94794 55.4949 10.0936 55.6903 10.0936L59.7956 10.579C60.04 10.579 60.1866 10.3848 60.1866 10.1906L59.1603 7.42362C59.1603 7.18088 58.9648 7.03526 58.7693 7.03526H55.6903C55.446 7.03526 55.2993 7.22944 55.2993 7.42362V9.70519ZM49.5813 5.3362H51.9272C52.3182 5.3362 52.6114 5.04493 52.6114 4.65658V4.0255C52.6114 3.63715 52.3182 3.34588 51.9272 3.34588L49.7279 3.24879C49.3858 3.24879 49.1415 3.44297 49.0437 3.78278L48.8971 4.60804C48.8482 5.04493 49.1903 5.3362 49.5813 5.3362Z" fill="black"/>
<path d="M14.9802 15.0447H33.5028C32.5742 15.5301 31.89 16.5495 31.89 17.6661C31.89 17.8117 31.89 18.0059 31.9389 18.1515H31.2547V16.4525H28.078L27.0517 16.9864V18.2972C27.0517 18.5884 26.8073 18.7826 26.5629 18.7826H20.0141C19.7208 18.7826 19.5253 18.5398 19.5253 18.2972V17.9088H16.3975C16.3975 17.8602 16.3975 17.7632 16.3975 17.7146C16.3486 16.5981 15.8111 15.6272 14.9802 15.0447Z" fill="black"/>
<path d="M36.2878 15.0447H40.8818C39.9533 15.5301 39.2691 16.5495 39.2691 17.6661C39.2691 17.8117 39.2691 18.0059 39.318 18.1515H37.8029C37.8029 18.0059 37.8518 17.8602 37.8518 17.6661C37.8518 17.3262 37.754 16.9864 37.6563 16.6952C37.6074 16.5981 37.6074 16.5495 37.5585 16.4525C37.5585 16.4525 37.5585 16.4525 37.5585 16.4039C37.3631 15.8214 36.8743 15.3359 36.2878 15.0447Z" fill="black"/>
<path d="M34.9191 15.0447C36.3853 15.0447 37.5583 16.2097 37.5583 17.6661C37.5583 19.1224 36.3853 20.2874 34.9191 20.2874C33.453 20.2874 32.28 19.1224 32.28 17.6661C32.28 16.2097 33.453 15.0447 34.9191 15.0447ZM34.9191 18.734C35.5056 18.734 35.9943 18.2486 35.9943 17.6661C35.9943 17.0835 35.5056 16.5981 34.9191 16.5981C34.3327 16.5981 33.844 17.0835 33.844 17.6661C33.844 18.2486 34.3327 18.734 34.9191 18.734Z" fill="black"/>
<path d="M42.3 15.0447C43.7662 15.0447 44.9391 16.2097 44.9391 17.6661C44.9391 19.1224 43.7662 20.2874 42.3 20.2874C40.8338 20.2874 39.6609 19.1224 39.6609 17.6661C39.6609 16.2097 40.8338 15.0447 42.3 15.0447ZM42.3 18.734C42.8865 18.734 43.3752 18.2486 43.3752 17.6661C43.3752 17.0835 42.8865 16.5981 42.3 16.5981C41.7135 16.5981 41.2248 17.0835 41.2248 17.6661C41.2248 18.2486 41.7135 18.734 42.3 18.734Z" fill="black"/>
<path d="M62.5802 15.0447C64.0464 15.0447 65.2193 16.2097 65.2193 17.6661C65.2193 19.1224 64.0464 20.2874 62.5802 20.2874C61.114 20.2874 59.9412 19.1224 59.9412 17.6661C59.99 16.2097 61.1629 15.0447 62.5802 15.0447ZM62.5802 18.734C63.1667 18.734 63.6554 18.2486 63.6554 17.6661C63.6554 17.0835 63.1667 16.5981 62.5802 16.5981C61.9938 16.5981 61.505 17.0835 61.505 17.6661C61.5539 18.2486 61.9938 18.734 62.5802 18.734Z" fill="black"/>
</svg>
