<svg width="85" height="21" viewBox="0 0 85 21" fill="none" xmlns="http://www.w3.org/2000/svg">
<path d="M1.17958 2.47171H60.1435C60.6566 2.47171 61.0721 2.9086 61.0721 3.41832V14.1465C61.0721 14.6805 60.6566 15.0931 60.1435 15.0931H49.636C49.465 15.0931 49.2451 15.1902 49.1473 15.3116L46.8259 17.8601C46.7281 17.9815 46.4838 18.0786 46.3372 18.0786H19.9953C19.8242 18.0786 19.6043 17.9815 19.5065 17.8601L17.1851 15.3116C17.0874 15.1902 16.843 15.0931 16.6964 15.0931H1.20401C0.690858 15.0931 0.27544 14.6562 0.27544 14.1465V3.41832C0.251004 2.88433 0.666418 2.47171 1.17958 2.47171Z" fill="black"/>
<path d="M52.1285 18.7099C51.7371 18.7099 51.4199 18.3947 51.4199 18.006C51.4199 17.6173 51.7371 17.3022 52.1285 17.3022C52.5199 17.3022 52.8372 17.6173 52.8372 18.006C52.8372 18.3947 52.5199 18.7099 52.1285 18.7099Z" fill="black"/>
<path d="M52.128 15.6758C53.4231 15.6758 54.4494 16.7195 54.4494 17.9815C54.4494 19.268 53.3987 20.2874 52.128 20.2874C50.8329 20.2874 49.8066 19.2437 49.8066 17.9815C49.8066 16.7195 50.8573 15.6758 52.128 15.6758ZM52.128 19.3894C52.91 19.3894 53.5453 18.7583 53.5453 18.0058C53.5453 17.2291 52.91 16.6223 52.128 16.6223C51.3461 16.6223 50.7108 17.2534 50.7108 18.0058C50.7108 18.7583 51.3461 19.3894 52.128 19.3894Z" fill="black"/>
<path d="M14.1793 18.7099C13.788 18.7099 13.4707 18.3947 13.4707 18.006C13.4707 17.6173 13.788 17.3022 14.1793 17.3022C14.5707 17.3022 14.888 17.6173 14.888 18.006C14.888 18.3947 14.5707 18.7099 14.1793 18.7099Z" fill="black"/>
<path d="M14.1788 15.6758C15.4739 15.6758 16.5003 16.7195 16.5003 17.9815C16.5003 19.268 15.4495 20.2874 14.1788 20.2874C12.8837 20.2874 11.8574 19.2437 11.8574 17.9815C11.8574 16.7195 12.8837 15.6758 14.1788 15.6758ZM14.1788 19.3894C14.9608 19.3894 15.5962 18.7583 15.5962 18.0058C15.5962 17.2291 14.9608 16.6223 14.1788 16.6223C13.3969 16.6223 12.7615 17.2534 12.7615 18.0058C12.7615 18.7583 13.3969 19.3894 14.1788 19.3894Z" fill="black"/>
<path d="M9.09636 18.7099C8.70497 18.7099 8.3877 18.3947 8.3877 18.006C8.3877 17.6173 8.70497 17.3022 9.09636 17.3022C9.48769 17.3022 9.80496 17.6173 9.80496 18.006C9.80496 18.3947 9.48769 18.7099 9.09636 18.7099Z" fill="black"/>
<path d="M9.09685 15.6758C10.392 15.6758 11.4182 16.7195 11.4182 17.9815C11.4182 19.268 10.3675 20.2874 9.09685 20.2874C7.80168 20.2874 6.77539 19.2437 6.77539 17.9815C6.77539 16.7195 7.82616 15.6758 9.09685 15.6758ZM9.09685 19.3894C9.87874 19.3894 10.5141 18.7583 10.5141 18.0058C10.5141 17.2291 9.87874 16.6223 9.09685 16.6223C8.3149 16.6223 7.67951 17.2534 7.67951 18.0058C7.67951 18.7583 8.3149 19.3894 9.09685 19.3894Z" fill="black"/>
<path d="M4.03872 18.7099C3.64734 18.7099 3.33008 18.3947 3.33008 18.006C3.33008 17.6173 3.64734 17.3022 4.03872 17.3022C4.43009 17.3022 4.74737 17.6173 4.74737 18.006C4.74737 18.3947 4.43009 18.7099 4.03872 18.7099Z" fill="black"/>
<path d="M4.03822 15.6758C5.33332 15.6758 6.35963 16.7195 6.35963 17.9815C6.35963 19.268 5.30889 20.2874 4.03822 20.2874C2.74311 20.2874 1.7168 19.2437 1.7168 17.9815C1.7168 16.7195 2.76754 15.6758 4.03822 15.6758ZM4.03822 19.3894C4.82017 19.3894 5.4555 18.7583 5.4555 18.0058C5.4555 17.2291 4.82017 16.6223 4.03822 16.6223C3.25626 16.6223 2.62093 17.2534 2.62093 18.0058C2.62093 18.7583 3.25626 19.3894 4.03822 19.3894Z" fill="black"/>
<path d="M79.3741 18.7099C78.9825 18.7099 78.665 18.3947 78.665 18.006C78.665 17.6173 78.9825 17.3022 79.3741 17.3022C79.765 17.3022 80.0825 17.6173 80.0825 18.006C80.0825 18.3947 79.765 18.7099 79.3741 18.7099Z" fill="black"/>
<path d="M79.3738 15.6758C80.669 15.6758 81.6955 16.7195 81.6955 17.9815C81.6955 19.268 80.6445 20.2874 79.3738 20.2874C78.0787 20.2874 77.0522 19.2437 77.0522 17.9815C77.0277 16.7195 78.0787 15.6758 79.3738 15.6758ZM79.3738 19.3894C80.1557 19.3894 80.7913 18.7583 80.7913 18.0058C80.7913 17.2291 80.1557 16.6223 79.3738 16.6223C78.592 16.6223 77.9564 17.2534 77.9564 18.0058C77.9564 18.7583 78.592 19.3894 79.3738 19.3894Z" fill="black"/>
<path d="M57.1861 18.7099C56.7948 18.7099 56.4775 18.3947 56.4775 18.006C56.4775 17.6173 56.7948 17.3022 57.1861 17.3022C57.5775 17.3022 57.8948 17.6173 57.8948 18.006C57.8948 18.3947 57.5775 18.7099 57.1861 18.7099Z" fill="black"/>
<path d="M57.1866 15.6758C58.4817 15.6758 59.508 16.7195 59.508 17.9815C59.508 19.268 58.4573 20.2874 57.1866 20.2874C55.8915 20.2874 54.8652 19.2437 54.8652 17.9815C54.8652 16.7195 55.9159 15.6758 57.1866 15.6758ZM57.1866 19.3894C57.9686 19.3894 58.6039 18.7583 58.6039 18.0058C58.6039 17.2291 57.9686 16.6223 57.1866 16.6223C56.4047 16.6223 55.7694 17.2534 55.7694 18.0058C55.7694 18.7583 56.4047 19.3894 57.1866 19.3894Z" fill="black"/>
<path d="M64.2737 15.4088H63.6139C63.394 15.4088 63.2229 15.2389 63.2229 15.0205V2.32625C63.2229 2.15635 63.1251 1.93791 63.0275 1.81655L61.9034 0.505861C61.8056 0.384501 61.8545 0.287415 62.0011 0.287415H62.8564C63.0275 0.287415 63.2474 0.384501 63.3451 0.505861L64.4691 1.81655C64.5669 1.93791 64.6647 2.18062 64.6647 2.32625V15.0205C64.6891 15.2389 64.518 15.4088 64.2737 15.4088Z" fill="black"/>
<path d="M65.2754 15.797C65.4465 15.797 65.5687 15.6271 65.5687 15.433V5.69989C65.5687 5.52999 65.6908 5.40863 65.8619 5.40863H65.813C65.6908 5.40863 65.5687 5.31154 65.5687 5.16591V2.69017C65.5687 2.56881 65.6664 2.44745 65.813 2.44745H67.4014C67.719 2.44745 67.89 2.52027 68.1345 2.64162L73.9993 5.09309C74.1944 5.16591 74.2923 5.26299 74.2678 5.31154C74.2678 5.36009 74.1699 5.40863 73.9258 5.40863H74.0965C74.2678 5.40863 74.4636 5.52999 74.5608 5.65135L75.2699 6.74359C75.1965 6.8164 75.172 6.91349 75.2209 6.9863L76.3447 9.04941C76.5895 9.48633 77.0538 10.2144 77.5426 10.3116L83.0895 11.3553C83.5783 11.4523 83.9692 11.9135 83.9692 12.3989V14.3893C83.8468 14.4135 83.7734 14.4863 83.7734 14.5835V15.7C83.7734 15.797 83.8468 15.8698 83.9692 15.8941V16.0883C83.9692 16.3795 84.2132 16.4767 84.3111 16.6708C84.458 16.9378 84.3846 17.5932 84.3111 17.7388C84.2377 17.8844 84.1887 18.03 83.602 18.03H81.9895C81.9895 16.598 80.8167 15.4087 79.3503 15.4087C77.958 15.4087 76.809 16.5009 76.7356 17.8602V18.7582C76.7356 18.7825 76.7111 18.8067 76.6867 18.8067C76.6629 18.8067 76.6384 18.7825 76.6139 18.7582L76.2958 17.933C76.2713 17.8359 76.1496 17.763 76.0517 17.763H60.0706C59.8995 17.763 59.7773 17.6417 59.7773 17.4718C59.7773 17.4718 59.7773 16.4281 59.7773 16.1125C59.7773 15.9427 59.8995 15.8213 60.0462 15.8213H65.2754V15.797ZM71.1888 11.8893C71.1888 12.0106 71.2867 12.1077 71.4091 12.1077H72.0196C72.1419 12.1077 72.2398 12.0106 72.2398 11.8893V11.6708C72.2398 11.5494 72.1419 11.4523 72.0196 11.4523H71.4091C71.2867 11.4523 71.1888 11.5494 71.1888 11.6708V11.8893ZM70.7244 9.94745C70.7244 10.1902 70.8713 10.3601 71.0426 10.3601H73.8279C73.9993 10.3601 74.1699 10.4572 74.2678 10.6514L75.0496 12.132C75.172 12.3261 75.3678 12.3261 75.5384 12.3261H76.1251C76.2958 12.3261 76.4426 12.1805 76.4426 11.9621V10.3601C76.4426 10.1174 76.4181 9.94745 76.3202 9.75333L74.9035 7.10767C74.8056 6.91349 74.5853 6.74359 74.4147 6.74359H71.0426C70.8713 6.74359 70.7244 6.93776 70.7244 7.1562V9.94745ZM66.4973 10.2144C66.4973 10.3358 66.5949 10.4572 66.7416 10.4572H69.4296C69.5517 10.4572 69.6741 10.3601 69.6741 10.2144V9.89892C69.6741 9.77759 69.5761 9.65619 69.4296 9.65619H66.7416C66.6194 9.65619 66.4973 9.75333 66.4973 9.89892V10.2144ZM66.4973 8.80669C66.4973 8.92808 66.5949 9.04941 66.7416 9.04941H69.4296C69.5517 9.04941 69.6741 8.95235 69.6741 8.80669V8.49116C69.6741 8.36983 69.5761 8.24843 69.4296 8.24843H66.7416C66.6194 8.24843 66.4973 8.34557 66.4973 8.49116V8.80669ZM66.4973 7.39893C66.4973 7.52025 66.5949 7.64165 66.7416 7.64165H69.4296C69.5517 7.64165 69.6741 7.54459 69.6741 7.39893V7.0834C69.6741 6.96203 69.5761 6.84068 69.4296 6.84068H66.7416C66.6194 6.84068 66.4973 6.93776 66.4973 7.0834V7.39893Z" fill="black"/>
</svg>
