<!-- Generated by IcoMoon.io -->
<svg version="1.1" xmlns="http://www.w3.org/2000/svg" width="30" height="32" viewBox="0 0 30 32">
<title>apple</title>
<path d="M21.299 0.927c-0.065-0.072-2.398 0.029-4.428 2.232s-1.718 4.728-1.672 4.792 2.895 0.166 4.714-2.396c1.819-2.562 1.451-4.554 1.387-4.629zM27.611 23.276c-0.091-0.183-4.428-2.35-4.025-6.518 0.404-4.169 3.19-5.312 3.234-5.436s-1.137-1.505-2.389-2.204c-0.919-0.493-1.936-0.775-2.977-0.827-0.206-0.006-0.92-0.181-2.389 0.221-0.968 0.265-3.149 1.122-3.749 1.156-0.602 0.034-2.392-0.994-4.318-1.267-1.232-0.238-2.539 0.25-3.474 0.625-0.933 0.373-2.709 1.436-3.95 4.261-1.242 2.823-0.592 7.295-0.128 8.686 0.465 1.389 1.19 3.665 2.425 5.326 1.097 1.874 2.552 3.175 3.16 3.617s2.322 0.735 3.51 0.128c0.956-0.587 2.682-0.924 3.364-0.899 0.68 0.025 2.021 0.293 3.394 1.027 1.088 0.375 2.116 0.219 3.147-0.2 1.030-0.421 2.522-2.017 4.263-5.253 0.661-1.505 0.962-2.318 0.901-2.442z"></path>
</svg>
