<!-- Generated by IcoMoon.io -->
<svg version="1.1" xmlns="http://www.w3.org/2000/svg" width="32" height="32" viewBox="0 0 32 32">
<title>arrow-right-circle</title>
<path d="M2 16c0 7.732 6.268 14 14 14s14-6.268 14-14c0-7.732-6.268-14-14-14s-14 6.268-14 14zM32 16c0 8.836-7.164 16-16 16s-16-7.164-16-16c0-8.837 7.163-16 16-16s16 7.163 16 16zM9 15c-0.552 0-1 0.448-1 1s0.448 1 1 1h11.586l-4.293 4.293c-0.391 0.39-0.391 1.024 0 1.414s1.024 0.391 1.414 0l6-6c0.391-0.39 0.391-1.024 0-1.414l-6-6c-0.39-0.391-1.024-0.391-1.414 0s-0.391 1.024 0 1.414l4.293 4.293h-11.586z"></path>
</svg>
