<!-- Generated by IcoMoon.io -->
<svg version="1.1" xmlns="http://www.w3.org/2000/svg" width="30" height="32" viewBox="0 0 30 32">
<title>arrow-left-circle</title>
<path d="M1.905 16.15c0 7.364 5.97 13.333 13.333 13.333s13.333-5.97 13.333-13.333c0-7.364-5.97-13.333-13.333-13.333s-13.333 5.97-13.333 13.333zM30.476 16.15c0 8.416-6.822 15.238-15.238 15.238s-15.238-6.822-15.238-15.238c0-8.416 6.822-15.238 15.238-15.238s15.238 6.822 15.238 15.238zM21.905 15.198c0.526 0 0.952 0.426 0.952 0.952s-0.426 0.952-0.952 0.952h-11.034l4.088 4.088c0.372 0.372 0.372 0.975 0 1.347s-0.975 0.372-1.347 0l-5.714-5.714c-0.372-0.372-0.372-0.975 0-1.347l5.714-5.714c0.372-0.372 0.975-0.372 1.347 0s0.372 0.975 0 1.347l-4.088 4.088h11.034z"></path>
</svg>
