<!-- Generated by IcoMoon.io -->
<svg version="1.1" xmlns="http://www.w3.org/2000/svg" width="32" height="32" viewBox="0 0 32 32">
<title>bell</title>
<path d="M16 32c2.209 0 4-1.791 4-4h-8c0 2.209 1.791 4 4 4z"></path>
<path d="M16 3.837l-1.594 0.322c-3.655 0.738-6.406 3.971-6.406 7.841 0 1.256-0.269 4.395-0.918 7.484-0.322 1.534-0.753 3.131-1.326 4.516h20.488c-0.573-1.385-1.004-2.982-1.326-4.516-0.649-3.090-0.918-6.229-0.918-7.484 0-3.871-2.751-7.103-6.406-7.841l-1.594-0.322zM28.439 24c0.447 0.895 0.964 1.602 1.561 2h-28c0.597-0.398 1.115-1.105 1.561-2 1.797-3.601 2.439-10.242 2.439-12 0-4.841 3.44-8.879 8.010-9.802-0.006-0.065-0.010-0.131-0.010-0.198 0-1.105 0.895-2 2-2s2 0.895 2 2c0 0.067-0.003 0.133-0.010 0.198 4.569 0.923 8.010 4.961 8.010 9.802 0 1.758 0.642 8.399 2.439 12z"></path>
</svg>
