<!-- Generated by IcoMoon.io -->
<svg version="1.1" xmlns="http://www.w3.org/2000/svg" width="32" height="32" viewBox="0 0 32 32">
<title>bidirection</title>
<path d="M0.833 15.992c0 0.601 0.487 1.088 1.088 1.088h25.671l-6.849 6.849c-0.425 0.425-0.425 1.114 0 1.539s1.114 0.425 1.539 0l8.707-8.707c0.425-0.425 0.425-1.114 0-1.539l-8.707-8.707c-0.425-0.425-1.114-0.425-1.539 0s-0.425 1.114 0 1.539l6.849 6.849h-25.671c-0.601 0-1.088 0.487-1.088 1.088z"></path>
<path d="M31.31 15.992c0 0.601-0.487 1.088-1.088 1.088h-25.671l6.849 6.849c0.425 0.425 0.425 1.114 0 1.539s-1.114 0.425-1.539 0l-8.707-8.707c-0.425-0.425-0.425-1.114 0-1.539l8.707-8.707c0.425-0.425 1.114-0.425 1.539 0s0.425 1.114 0 1.539l-6.849 6.849h25.671c0.601 0 1.088 0.487 1.088 1.088z"></path>
</svg>
