<!-- Generated by IcoMoon.io -->
<svg version="1.1" xmlns="http://www.w3.org/2000/svg" width="24" height="32" viewBox="0 0 24 32">
<title>bookmark-star</title>
<path d="M11.506 8.57c0.124-0.252 0.483-0.252 0.607 0l1.209 2.45c0.049 0.1 0.145 0.169 0.255 0.185l2.704 0.393c0.278 0.040 0.388 0.382 0.188 0.577l-1.957 1.907c-0.080 0.078-0.116 0.19-0.097 0.3l0.462 2.693c0.047 0.277-0.243 0.487-0.491 0.357l-2.419-1.272c-0.099-0.052-0.216-0.052-0.315 0l-2.419 1.272c-0.248 0.13-0.539-0.080-0.491-0.357l0.462-2.693c0.019-0.11-0.018-0.222-0.097-0.3l-1.957-1.907c-0.201-0.196-0.090-0.537 0.188-0.577l2.704-0.393c0.11-0.016 0.206-0.085 0.255-0.185l1.209-2.45z"></path>
<path d="M0.381 4.571c0-2.104 1.706-3.81 3.81-3.81h15.238c2.104 0 3.81 1.706 3.81 3.81v25.714c0 0.351-0.193 0.674-0.503 0.84s-0.685 0.148-0.978-0.047l-9.948-5.362-9.948 5.362c-0.292 0.195-0.668 0.213-0.978 0.047s-0.503-0.488-0.503-0.84v-25.714zM4.19 2.667c-1.052 0-1.905 0.853-1.905 1.905v23.935l8.996-4.727c0.32-0.213 0.737-0.213 1.057 0l8.996 4.727v-23.935c0-1.052-0.853-1.905-1.905-1.905h-15.238z"></path>
</svg>
