<svg width="16" height="21" viewBox="0 0 16 21" fill="none" xmlns="http://www.w3.org/2000/svg">
<path d="M7.55082 5.62382C7.63229 5.45873 7.86771 5.45873 7.94918 5.62382L8.74279 7.23183C8.77514 7.29739 8.83768 7.34283 8.91003 7.35334L10.6846 7.6112C10.8668 7.63767 10.9395 7.86156 10.8077 7.99007L9.5236 9.24173C9.47125 9.29276 9.44736 9.36628 9.45972 9.43834L9.76285 11.2057C9.79397 11.3872 9.60352 11.5255 9.44057 11.4399L7.85336 10.6054C7.78865 10.5714 7.71135 10.5714 7.64664 10.6054L6.05943 11.4399C5.89648 11.5255 5.70603 11.3872 5.73715 11.2057L6.04028 9.43834C6.05264 9.36628 6.02875 9.29276 5.9764 9.24173L4.69232 7.99007C4.56049 7.86156 4.63324 7.63767 4.81542 7.6112L6.58997 7.35334C6.66232 7.34283 6.72486 7.29739 6.75721 7.23183L7.55082 5.62382Z" fill="black"/>
<path d="M0.25 3C0.25 1.61929 1.36929 0.5 2.75 0.5H12.75C14.1307 0.5 15.25 1.61929 15.25 3V19.875C15.25 20.1055 15.1231 20.3173 14.9199 20.426C14.7167 20.5348 14.4701 20.5229 14.2783 20.395L7.75 16.8762L1.22169 20.395C1.0299 20.5229 0.783312 20.5348 0.580089 20.426C0.376865 20.3173 0.25 20.1055 0.25 19.875V3ZM2.75 1.75C2.05964 1.75 1.5 2.30964 1.5 3V18.7072L7.40331 15.605C7.61325 15.465 7.88675 15.465 8.09669 15.605L14 18.7072V3C14 2.30964 13.4404 1.75 12.75 1.75H2.75Z" fill="black"/>
</svg>
