<!-- Generated by IcoMoon.io -->
<svg version="1.1" xmlns="http://www.w3.org/2000/svg" width="32" height="32" viewBox="0 0 32 32">
<title>box-arrow-right</title>
<path d="M20 25c0 0.552-0.448 1-1 1h-16c-0.552 0-1-0.448-1-1v-18c0-0.552 0.448-1 1-1h16c0.552 0 1 0.448 1 1v4c0 0.552 0.448 1 1 1s1-0.448 1-1v-4c0-1.657-1.343-3-3-3h-16c-1.657 0-3 1.343-3 3v18c0 1.657 1.343 3 3 3h16c1.657 0 3-1.343 3-3v-4c0-0.552-0.448-1-1-1s-1 0.448-1 1v4z"></path>
<path d="M31.707 16.707c0.391-0.39 0.391-1.024 0-1.414l-6-6c-0.39-0.391-1.024-0.391-1.414 0s-0.391 1.024 0 1.414l4.293 4.293h-17.586c-0.552 0-1 0.448-1 1s0.448 1 1 1h17.586l-4.293 4.293c-0.391 0.39-0.391 1.024 0 1.414s1.024 0.391 1.414 0l6-6z"></path>
</svg>
