<!-- Generated by IcoMoon.io -->
<svg version="1.1" xmlns="http://www.w3.org/2000/svg" width="26" height="32" viewBox="0 0 26 32">
<title>capslock</title>
<path d="M13.967 29.906c-0.632 0.843-1.702 0.843-2.335 0l-10.153-13.538c-0.958-1.277-0.233-3.368 1.167-3.368h4.553v-2c0-1.105 0.716-2 1.6-2h8c0.884 0 1.6 0.895 1.6 2v2h4.553c1.401 0 2.125 2.091 1.167 3.368l-10.153 13.538zM2.646 15l10.153 13.538 10.153-13.538h-4.553c-0.884 0-1.6-0.895-1.6-2v-2h-8v2c0 1.105-0.716 2-1.6 2h-4.553z"></path>
<path d="M18.4 5c0 1.105-0.716 2-1.6 2h-8c-0.884 0-1.6-0.895-1.6-2v-2c0-1.105 0.716-2 1.6-2h8c0.884 0 1.6 0.895 1.6 2v2zM8.8 5h8v-2h-8v2z"></path>
</svg>
