<!-- Generated by IcoMoon.io -->
<svg version="1.1" xmlns="http://www.w3.org/2000/svg" width="32" height="32" viewBox="0 0 32 32">
<title>card-image</title>
<path d="M12.003 11c0 1.657-1.343 3-3 3s-3-1.343-3-3c0-1.657 1.343-3 3-3s3 1.343 3 3z"></path>
<path d="M3 4c-1.657 0-3 1.343-3 3v18c0 1.657 1.343 3 3 3h26c1.657 0 3-1.343 3-3v-18c0-1.657-1.343-3-3-3h-26zM29 6c0.552 0 1 0.448 1 1v11.998l-7.55-3.893c-0.385-0.193-0.85-0.117-1.154 0.187l-7.42 7.42-5.318-3.545c-0.397-0.264-0.925-0.212-1.262 0.125l-5.293 4.707v1.079c-0.002-0.026-0.003-0.052-0.003-0.079v-18c0-0.552 0.448-1 1-1h26z"></path>
</svg>
