<!-- Generated by IcoMoon.io -->
<svg version="1.1" xmlns="http://www.w3.org/2000/svg" width="30" height="32" viewBox="0 0 30 32">
<title>cash</title>
<path d="M12.19 15.619c1.683 0 3.048-1.364 3.048-3.048s-1.364-3.048-3.048-3.048c-1.683 0-3.048 1.364-3.048 3.048s1.364 3.048 3.048 3.048z"></path>
<path d="M0 6.476c0-0.842 0.682-1.524 1.524-1.524h21.333c0.842 0 1.524 0.682 1.524 1.524v12.19c0 0.842-0.682 1.524-1.524 1.524h-21.333c-0.842 0-1.524-0.682-1.524-1.524v-12.19zM4.571 6.476c0 1.683-1.364 3.048-3.048 3.048v6.095c1.683 0 3.048 1.364 3.048 3.048h15.238c0-1.683 1.364-3.048 3.048-3.048v-6.095c-1.683 0-3.048-1.364-3.048-3.048h-15.238z"></path>
</svg>
