<!-- Generated by IcoMoon.io -->
<svg version="1.1" xmlns="http://www.w3.org/2000/svg" width="32" height="32" viewBox="0 0 32 32">
<title>chat-left-text</title>
<path d="M28 2c1.105 0 2 0.895 2 2v16c0 1.105-0.895 2-2 2h-19.172c-1.061 0-2.078 0.421-2.828 1.172l-4 4v-23.172c0-1.105 0.895-2 2-2h24zM4 0c-2.209 0-4 1.791-4 4v25.586c0 0.891 1.077 1.337 1.707 0.707l5.707-5.707c0.375-0.375 0.884-0.586 1.414-0.586h19.172c2.209 0 4-1.791 4-4v-16c0-2.209-1.791-4-4-4h-24z"></path>
<path d="M6 7c0-0.552 0.448-1 1-1h18c0.552 0 1 0.448 1 1s-0.448 1-1 1h-18c-0.552 0-1-0.448-1-1zM6 12c0-0.552 0.448-1 1-1h18c0.552 0 1 0.448 1 1s-0.448 1-1 1h-18c-0.552 0-1-0.448-1-1zM6 17c0-0.552 0.448-1 1-1h10c0.552 0 1 0.448 1 1s-0.448 1-1 1h-10c-0.552 0-1-0.448-1-1z"></path>
</svg>
