<!-- Generated by IcoMoon.io -->
<svg version="1.1" xmlns="http://www.w3.org/2000/svg" width="30" height="32" viewBox="0 0 30 32">
<title>check-circle</title>
<path d="M15.238 29.483c-7.364 0-13.333-5.97-13.333-13.333s5.97-13.333 13.333-13.333c7.364 0 13.333 5.97 13.333 13.333s-5.97 13.333-13.333 13.333zM15.238 31.388c8.416 0 15.238-6.822 15.238-15.238s-6.822-15.238-15.238-15.238c-8.416 0-15.238 6.822-15.238 15.238s6.822 15.238 15.238 15.238z"></path>
<path d="M20.895 10.378c-0.014 0.013-0.026 0.028-0.038 0.043l-6.614 8.428-3.988-3.988c-0.558-0.558-1.462-0.558-2.020 0s-0.558 1.462 0 2.020l5.041 5.041c0.558 0.558 1.462 0.558 2.020 0 0.012-0.012 0.024-0.025 0.035-0.039l7.604-9.505c0.538-0.559 0.531-1.449-0.020-2-0.558-0.558-1.462-0.558-2.020 0z"></path>
</svg>
