<!-- Generated by IcoMoon.io -->
<svg version="1.1" xmlns="http://www.w3.org/2000/svg" width="56" height="32" viewBox="0 0 56 32">
<title>doublecheck</title>
<path d="M31.512 2.655c1.318-1.318 3.455-1.318 4.773 0 1.302 1.302 1.318 3.403 0.048 4.724l-17.965 22.456c-0.026 0.033-0.054 0.063-0.083 0.093-1.318 1.318-3.455 1.318-4.773 0l-11.909-11.909c-1.318-1.318-1.318-3.455 0-4.773s3.455-1.318 4.773 0l9.421 9.421 15.626-19.911c0.028-0.035 0.058-0.069 0.089-0.101z"></path>
<path d="M27.37 25.786l4.142 4.142c1.318 1.318 3.455 1.318 4.773 0 0.029-0.029 0.057-0.060 0.083-0.093l17.965-22.456c1.27-1.321 1.254-3.422-0.048-4.724-1.318-1.318-3.455-1.318-4.773 0-0.032 0.032-0.062 0.066-0.089 0.101l-15.626 19.911-2.184-2.184-4.243 5.303z"></path>
</svg>
