<!-- Generated by IcoMoon.io -->
<svg version="1.1" xmlns="http://www.w3.org/2000/svg" width="32" height="32" viewBox="0 0 32 32">
<title>icon-envelope</title>
<path d="M0 8c0-2.209 1.791-4 4-4h24c2.209 0 4 1.791 4 4v16c0 2.209-1.791 4-4 4h-24c-2.209 0-4-1.791-4-4v-16zM4 6c-1.105 0-2 0.895-2 2v0.434l14 8.4 14-8.4v-0.434c0-1.105-0.895-2-2-2h-24zM30 10.766l-9.416 5.65 9.416 5.795v-11.444zM29.932 24.517l-11.281-6.942-2.652 1.591-2.652-1.591-11.281 6.942c0.228 0.854 1.007 1.483 1.932 1.483h24c0.926 0 1.704-0.629 1.932-1.483zM2 22.21l9.416-5.795-9.416-5.65v11.444z"></path>
</svg>
