<!-- Generated by IcoMoon.io -->
<svg version="1.1" xmlns="http://www.w3.org/2000/svg" width="30" height="32" viewBox="0 0 30 32">
<title>file-text</title>
<path d="M9.524 8c-0.526 0-0.952 0.426-0.952 0.952s0.426 0.952 0.952 0.952h11.429c0.526 0 0.952-0.426 0.952-0.952s-0.426-0.952-0.952-0.952h-11.429z"></path>
<path d="M8.571 12.762c0-0.526 0.426-0.952 0.952-0.952h11.429c0.526 0 0.952 0.426 0.952 0.952s-0.426 0.952-0.952 0.952h-11.429c-0.526 0-0.952-0.426-0.952-0.952z"></path>
<path d="M9.524 15.619c-0.526 0-0.952 0.426-0.952 0.952s0.426 0.952 0.952 0.952h11.429c0.526 0 0.952-0.426 0.952-0.952s-0.426-0.952-0.952-0.952h-11.429z"></path>
<path d="M9.524 19.429c-0.526 0-0.952 0.426-0.952 0.952s0.426 0.952 0.952 0.952h5.714c0.526 0 0.952-0.426 0.952-0.952s-0.426-0.952-0.952-0.952h-5.714z"></path>
<path d="M3.81 4.19c0-2.104 1.706-3.81 3.81-3.81h15.238c2.104 0 3.81 1.706 3.81 3.81v22.857c0 2.104-1.706 3.81-3.81 3.81h-15.238c-2.104 0-3.81-1.706-3.81-3.81v-22.857zM22.857 2.286h-15.238c-1.052 0-1.905 0.853-1.905 1.905v22.857c0 1.052 0.853 1.905 1.905 1.905h15.238c1.052 0 1.905-0.853 1.905-1.905v-22.857c0-1.052-0.853-1.905-1.905-1.905z"></path>
</svg>
