<!-- Generated by IcoMoon.io -->
<svg version="1.1" xmlns="http://www.w3.org/2000/svg" width="30" height="32" viewBox="0 0 30 32">
<title>file-plus</title>
<path d="M16.19 11.81c0-0.526-0.426-0.952-0.952-0.952s-0.952 0.426-0.952 0.952v2.857h-2.857c-0.526 0-0.952 0.426-0.952 0.952s0.426 0.952 0.952 0.952h2.857v2.857c0 0.526 0.426 0.952 0.952 0.952s0.952-0.426 0.952-0.952v-2.857h2.857c0.526 0 0.952-0.426 0.952-0.952s-0.426-0.952-0.952-0.952h-2.857v-2.857z"></path>
<path d="M3.81 4.19c0-2.104 1.706-3.81 3.81-3.81h15.238c2.104 0 3.81 1.706 3.81 3.81v22.857c0 2.104-1.706 3.81-3.81 3.81h-15.238c-2.104 0-3.81-1.706-3.81-3.81v-22.857zM22.857 2.286h-15.238c-1.052 0-1.905 0.853-1.905 1.905v22.857c0 1.052 0.853 1.905 1.905 1.905h15.238c1.052 0 1.905-0.853 1.905-1.905v-22.857c0-1.052-0.853-1.905-1.905-1.905z"></path>
</svg>
