<!-- Generated by IcoMoon.io -->
<svg version="1.1" xmlns="http://www.w3.org/2000/svg" width="32" height="32" viewBox="0 0 32 32">
<title>geo-alt</title>
<path d="M24.332 17.88c-1.048 2.124-2.467 4.241-3.92 6.141-1.449 1.894-2.903 3.533-3.996 4.701-0.145 0.155-0.284 0.302-0.415 0.439-0.131-0.138-0.27-0.284-0.415-0.439-1.094-1.167-2.547-2.807-3.996-4.701-1.453-1.9-2.872-4.017-3.92-6.141-1.059-2.145-1.668-4.156-1.668-5.88 0-5.523 4.477-10 10-10s10 4.477 10 10c0 1.724-0.61 3.734-1.668 5.88zM16 32c0 0 12-11.373 12-20 0-6.627-5.373-12-12-12s-12 5.373-12 12c0 8.627 12 20 12 20z"></path>
<path d="M16 16c-2.209 0-4-1.791-4-4s1.791-4 4-4c2.209 0 4 1.791 4 4s-1.791 4-4 4zM16 18c3.314 0 6-2.686 6-6s-2.686-6-6-6c-3.314 0-6 2.686-6 6s2.686 6 6 6z"></path>
</svg>
