<!-- Generated by IcoMoon.io -->
<svg version="1.1" xmlns="http://www.w3.org/2000/svg" width="30" height="32" viewBox="0 0 30 32">
<title>geo</title>
<path d="M15.238 2.667c-3.156 0-5.714 2.558-5.714 5.714s2.558 5.714 5.714 5.714c3.156 0 5.714-2.558 5.714-5.714s-2.558-5.714-5.714-5.714zM7.619 8.381c0-4.208 3.411-7.619 7.619-7.619s7.619 3.411 7.619 7.619c0 3.885-2.908 7.091-6.667 7.56v10.535c0 0.526-0.426 0.952-0.952 0.952s-0.952-0.426-0.952-0.952v-10.535c-3.758-0.469-6.667-3.675-6.667-7.56zM12.368 24.713c0.086 0.519-0.265 1.009-0.784 1.095-1.355 0.224-2.436 0.561-3.151 0.938-0.358 0.189-0.581 0.365-0.705 0.505-0.059 0.067-0.087 0.116-0.099 0.144-0.006 0.014-0.008 0.022-0.009 0.026s-0.001 0.007-0.001 0.007-0 0.005 0.003 0.015c0.003 0.011 0.011 0.032 0.030 0.063 0.040 0.066 0.123 0.165 0.277 0.287 0.314 0.248 0.829 0.513 1.549 0.753 1.43 0.477 3.467 0.788 5.76 0.788s4.329-0.311 5.76-0.788c0.72-0.24 1.234-0.505 1.549-0.753 0.154-0.122 0.237-0.221 0.277-0.287 0.019-0.031 0.027-0.052 0.030-0.063 0.003-0.010 0.003-0.014 0.003-0.014s0-0.003-0.001-0.007c-0.001-0.004-0.003-0.013-0.009-0.026-0.012-0.028-0.039-0.076-0.099-0.144-0.124-0.14-0.347-0.317-0.705-0.505-0.715-0.377-1.796-0.713-3.151-0.938-0.519-0.086-0.87-0.576-0.784-1.095s0.576-0.87 1.095-0.784c1.467 0.243 2.767 0.626 3.728 1.132 0.88 0.464 1.831 1.228 1.831 2.368 0 0.811-0.494 1.433-1.037 1.86-0.553 0.436-1.294 0.787-2.125 1.064-1.672 0.557-3.921 0.886-6.362 0.886s-4.69-0.328-6.362-0.886c-0.831-0.277-1.572-0.628-2.125-1.064-0.542-0.427-1.036-1.049-1.036-1.86 0-1.14 0.951-1.904 1.831-2.368 0.961-0.506 2.26-0.889 3.728-1.132 0.519-0.086 1.009 0.265 1.095 0.784z"></path>
</svg>
