<!-- Generated by IcoMoon.io -->
<svg version="1.1" xmlns="http://www.w3.org/2000/svg" width="30" height="32" viewBox="0 0 30 32">
<title>google</title>
<path d="M29.61 13.404c0.179 1.019 0.263 2.060 0.263 3.096 0 4.636-1.657 8.555-4.541 11.209h0.006c-2.525 2.329-5.991 3.678-10.1 3.678-5.761 0-11.030-3.247-13.617-8.393-2.161-4.306-2.161-9.378 0-13.684 2.587-5.151 7.855-8.398 13.617-8.398 3.785-0.045 7.441 1.377 10.196 3.964l-4.35 4.35c-1.573-1.501-3.673-2.318-5.845-2.284-3.975 0-7.351 2.682-8.555 6.293-0.638 1.892-0.638 3.942 0 5.834h0.006c1.209 3.606 4.58 6.288 8.555 6.288 2.055 0 3.819-0.526 5.185-1.456h-0.006c1.607-1.064 2.704-2.738 3.046-4.63h-8.23v-5.868h14.372z"></path>
</svg>
