<!-- Generated by IcoMoon.io -->
<svg version="1.1" xmlns="http://www.w3.org/2000/svg" width="29" height="32" viewBox="0 0 29 32">
<title>heart-pulse</title>
<path d="M14.222 5.496l-1.274-1.473c-2.994-3.463-8.478-2.267-10.458 2.083-0.858 1.885-1.103 4.54 0.192 7.894h-1.916c-3.784-11.394 7.403-17.66 13.145-11.714 0.106 0.11 0.21 0.224 0.312 0.342 0.102-0.118 0.206-0.232 0.312-0.342 5.742-5.946 16.929 0.32 13.145 11.714h-1.916c1.295-3.354 1.050-6.009 0.192-7.894-1.98-4.35-7.464-5.546-10.458-2.083l-1.274 1.473zM3.933 20h2.338c1.895 2.367 4.488 4.916 7.952 7.589 3.464-2.673 6.057-5.223 7.952-7.589h2.337c-2.249 3.133-5.581 6.5-10.29 10-4.708-3.5-8.040-6.867-10.29-10zM18.532 6.732c-0.118-0.332-0.439-0.548-0.791-0.531s-0.652 0.261-0.738 0.602l-2.908 11.45-2.674-7.521c-0.104-0.292-0.368-0.498-0.677-0.528s-0.607 0.121-0.765 0.388l-3.323 5.608h-5.766c-0.442 0-0.8 0.358-0.8 0.8s0.358 0.8 0.8 0.8h6.222c0.283 0 0.544-0.149 0.688-0.392l2.685-4.532 2.984 8.392c0.118 0.332 0.439 0.548 0.791 0.531s0.652-0.261 0.738-0.602l2.908-11.45 2.674 7.521c0.113 0.319 0.415 0.532 0.754 0.532h6.222c0.442 0 0.8-0.358 0.8-0.8s-0.358-0.8-0.8-0.8h-5.658l-3.366-9.468z"></path>
</svg>
