<!-- Generated by IcoMoon.io -->
<svg version="1.1" xmlns="http://www.w3.org/2000/svg" width="32" height="32" viewBox="0 0 32 32">
<title>message</title>
<path d="M26.998 4.076c1.050 0 1.902 0.852 1.902 1.902v15.217c0 1.051-0.852 1.902-1.902 1.902h-18.233c-1.009 0-1.977 0.401-2.69 1.114l-3.804 3.804v-22.038c0-1.051 0.852-1.902 1.902-1.902h22.826zM4.173 2.174c-2.101 0-3.804 1.703-3.804 3.804v24.334c0 0.847 1.024 1.272 1.624 0.672l5.428-5.428c0.357-0.357 0.841-0.557 1.345-0.557h18.233c2.101 0 3.804-1.703 3.804-3.804v-15.217c0-2.101-1.703-3.804-3.804-3.804h-22.826z"></path>
<path d="M6.075 8.831c0-0.525 0.426-0.951 0.951-0.951h17.119c0.525 0 0.951 0.426 0.951 0.951s-0.426 0.951-0.951 0.951h-17.119c-0.525 0-0.951-0.426-0.951-0.951zM6.075 13.587c0-0.525 0.426-0.951 0.951-0.951h17.119c0.525 0 0.951 0.426 0.951 0.951s-0.426 0.951-0.951 0.951h-17.119c-0.525 0-0.951-0.426-0.951-0.951zM6.075 18.342c0-0.525 0.426-0.951 0.951-0.951h9.511c0.525 0 0.951 0.426 0.951 0.951s-0.426 0.951-0.951 0.951h-9.511c-0.525 0-0.951-0.426-0.951-0.951z"></path>
</svg>
