<!-- Generated by IcoMoon.io -->
<svg version="1.1" xmlns="http://www.w3.org/2000/svg" width="34" height="32" viewBox="0 0 34 32">
<title>message-plus</title>
<path d="M32.062 1.371c0.149-0.371 0.062-0.796-0.221-1.079s-0.707-0.37-1.079-0.221l-29.094 11.638c-1.135 0.454-1.279 2.002-0.248 2.658l9.989 6.357 3.063 4.813c0.296 0.466 0.915 0.603 1.381 0.307s0.603-0.915 0.307-1.38l-2.751-4.323 14.988-14.988-3.791 9.477c-0.205 0.513 0.044 1.095 0.557 1.3s1.095-0.044 1.3-0.557l5.6-14zM26.982 3.738l-14.988 14.988-8.677-5.522 23.665-9.466z"></path>
<path d="M32.134 25c0 3.866-3.134 7-7 7s-7-3.134-7-7 3.134-7 7-7c3.866 0 7 3.134 7 7zM25.134 21c-0.552 0-1 0.448-1 1v2h-2c-0.552 0-1 0.448-1 1s0.448 1 1 1h2v2c0 0.552 0.448 1 1 1s1-0.448 1-1v-2h2c0.552 0 1-0.448 1-1s-0.448-1-1-1h-2v-2c0-0.552-0.448-1-1-1z"></path>
</svg>
