<!-- Generated by IcoMoon.io -->
<svg version="1.1" xmlns="http://www.w3.org/2000/svg" width="34" height="32" viewBox="0 0 34 32">
<title>minecart-loaded</title>
<path d="M8.8 30c-1.105 0-2-0.895-2-2s0.895-2 2-2c1.105 0 2 0.895 2 2s-0.895 2-2 2zM8.8 32c2.209 0 4-1.791 4-4s-1.791-4-4-4c-2.209 0-4 1.791-4 4s1.791 4 4 4z"></path>
<path d="M24.8 30c-1.105 0-2-0.895-2-2s0.895-2 2-2c1.105 0 2 0.895 2 2s-0.895 2-2 2zM24.8 32c2.209 0 4-1.791 4-4s-1.791-4-4-4c-2.209 0-4 1.791-4 4s1.791 4 4 4z"></path>
<path d="M1.030 6.361c0.19-0.229 0.472-0.361 0.77-0.361h30c0.297 0 0.58 0.132 0.769 0.361s0.268 0.531 0.213 0.823l-3 16c-0.089 0.473-0.502 0.816-0.983 0.816h-24c-0.481 0-0.894-0.343-0.983-0.816l-3-16c-0.055-0.292 0.023-0.594 0.213-0.823zM3.005 8l2.625 14h22.34l2.625-14h-27.59z"></path>
<path d="M12.8 2c0.911-1.212 2.363-2 4-2s3.090 0.787 4 2c1.637 0 3.090 0.788 4 2 1.341 0 3.103 1.142 4 2h-4c-0.628 0-1.223-0.298-1.599-0.799-0.549-0.731-1.42-1.201-2.401-1.201-0.628 0-1.223-0.298-1.599-0.799-0.549-0.731-1.42-1.201-2.401-1.201s-1.852 0.47-2.401 1.201c-0.376 0.501-0.971 0.799-1.599 0.799-1.014 0-1.91 0.502-2.455 1.275-0.183 0.259-0.389 0.502-0.616 0.725h-2.929c0.259-0.294 0.803-0.864 1.124-1.090 0.304-0.214 0.572-0.482 0.786-0.786 0.903-1.282 2.398-2.124 4.090-2.124z"></path>
</svg>
