<svg width="21" height="20" viewBox="0 0 21 20" fill="none" xmlns="http://www.w3.org/2000/svg">
<path d="M10.3241 1.30097C10.1744 1.24107 10.0073 1.24107 9.85762 1.30097L2.36151 4.29941L5.38068 5.50708L13.11 2.41534L10.3241 1.30097ZM14.801 3.09174L7.07169 6.18348L10.0909 7.39115L17.8202 4.29941L14.801 3.09174ZM18.8832 5.22702L10.7189 8.49274V18.4444L18.8832 15.1786V5.22702ZM9.46284 18.4444V8.49274L1.29853 5.22702V15.1786L9.46284 18.4444ZM9.39113 0.134755C9.84032 -0.0449183 10.3414 -0.0449184 10.7906 0.134755L19.7445 3.7163C19.9829 3.81168 20.1392 4.04261 20.1392 4.29941V15.1786C20.1392 15.6922 19.8265 16.1541 19.3497 16.3449L10.3241 19.9551C10.1744 20.015 10.0073 20.015 9.85762 19.9551L0.832044 16.3449C0.355175 16.1541 0.0424805 15.6922 0.0424805 15.1786V4.29941C0.0424805 4.04261 0.198828 3.81168 0.437262 3.7163L9.39113 0.134755Z" fill="black"/>
</svg>
