<!-- Generated by IcoMoon.io -->
<svg version="1.1" xmlns="http://www.w3.org/2000/svg" width="34" height="32" viewBox="0 0 34 32">
<title>packet</title>
<path d="M16.519 2.082c-0.24-0.096-0.507-0.096-0.746 0l-11.994 4.797 4.831 1.932 12.367-4.947-4.457-1.783zM23.682 4.947l-12.367 4.947 4.831 1.932 12.367-4.947-4.831-1.932zM30.213 8.363l-13.063 5.225v15.923l13.063-5.225v-15.923zM15.141 29.511v-15.923l-13.063-5.225v15.923l13.063 5.225zM15.026 0.216c0.719-0.287 1.52-0.287 2.239 0l14.326 5.73c0.381 0.153 0.632 0.522 0.632 0.933v17.407c0 0.822-0.5 1.561-1.263 1.866l-14.441 5.776c-0.24 0.096-0.507 0.096-0.746 0l-14.441-5.776c-0.763-0.305-1.263-1.044-1.263-1.866v-17.407c0-0.411 0.25-0.78 0.632-0.933l14.326-5.73z"></path>
</svg>
