<!-- Generated by IcoMoon.io -->
<svg version="1.1" xmlns="http://www.w3.org/2000/svg" width="30" height="32" viewBox="0 0 30 32">
<title>people</title>
<path d="M28.571 27.429c0 0 1.905 0 1.905-1.905s-1.905-7.619-9.524-7.619c-7.619 0-9.524 5.714-9.524 7.619s1.905 1.905 1.905 1.905h15.238zM13.376 25.524c-0.007-0.001-0.016-0.002-0.027-0.004-0.005-0.001-0.010-0.002-0.015-0.003 0.003-0.503 0.318-1.961 1.446-3.278 1.055-1.231 2.902-2.43 6.173-2.43s5.117 1.199 6.173 2.43c1.128 1.316 1.444 2.775 1.446 3.278-0.005 0.001-0.010 0.002-0.016 0.003-0.011 0.002-0.020 0.003-0.027 0.004h-15.153z"></path>
<path d="M20.952 14.095c2.104 0 3.81-1.706 3.81-3.81s-1.706-3.81-3.81-3.81c-2.104 0-3.81 1.706-3.81 3.81s1.706 3.81 3.81 3.81zM26.667 10.286c0 3.156-2.558 5.714-5.714 5.714s-5.714-2.558-5.714-5.714c0-3.156 2.558-5.714 5.714-5.714s5.714 2.558 5.714 5.714z"></path>
<path d="M13.211 18.438c-0.701-0.224-1.479-0.387-2.342-0.47-0.427-0.041-0.875-0.063-1.345-0.063-7.619 0-9.524 5.714-9.524 7.619 0 1.27 0.635 1.905 1.905 1.905h8.031c-0.268-0.541-0.412-1.183-0.412-1.905 0-1.924 0.719-3.89 2.076-5.531 0.464-0.561 1.002-1.084 1.612-1.555zM9.371 19.81c-1.138 1.739-1.752 3.722-1.752 5.713h-5.714c0-0.497 0.313-1.962 1.446-3.284 1.039-1.212 2.844-2.393 6.021-2.429z"></path>
<path d="M2.857 11.238c0-3.156 2.558-5.714 5.714-5.714s5.714 2.558 5.714 5.714c0 3.156-2.558 5.714-5.714 5.714s-5.714-2.558-5.714-5.714zM8.571 7.429c-2.104 0-3.81 1.706-3.81 3.81s1.706 3.81 3.81 3.81c2.104 0 3.81-1.706 3.81-3.81s-1.706-3.81-3.81-3.81z"></path>
</svg>
