<!-- Generated by IcoMoon.io -->
<svg version="1.1" xmlns="http://www.w3.org/2000/svg" width="30" height="32" viewBox="0 0 30 32">
<title>pin-angle</title>
<path d="M18.721 2.137c0.253 0 0.495 0.1 0.674 0.279l9.428 9.428c0.372 0.372 0.372 0.975 0 1.347-0.915 0.915-2.042 1.121-2.862 1.121-0.338 0-0.639-0.034-0.878-0.075l-5.969 5.969c0.013 0.053 0.027 0.109 0.040 0.169 0.103 0.445 0.218 1.065 0.264 1.761 0.089 1.338-0.060 3.214-1.371 4.525-0.372 0.372-0.975 0.372-1.347 0l-5.387-5.388-6.061 6.061c-0.372 0.372-2.322 1.719-2.694 1.347s0.975-2.322 1.347-2.694l6.061-6.061-5.387-5.388c-0.372-0.372-0.372-0.975 0-1.347 1.311-1.311 3.187-1.46 4.525-1.371 0.696 0.046 1.316 0.162 1.761 0.264 0.059 0.014 0.115 0.027 0.169 0.040l5.969-5.969c-0.041-0.239-0.075-0.54-0.075-0.878 0-0.82 0.206-1.947 1.121-2.862 0.179-0.179 0.421-0.279 0.673-0.279zM18.953 6.16l-0.002-0.004zM18.951 6.156l0.002 0.004c0.112 0.341 0.022 0.716-0.232 0.97l-6.734 6.734c-0.255 0.255-0.632 0.344-0.974 0.23l-0.029-0.009c-0.024-0.007-0.061-0.019-0.111-0.033-0.1-0.029-0.25-0.069-0.436-0.112-0.376-0.087-0.892-0.182-1.459-0.22-0.803-0.054-1.592 0.015-2.237 0.284l10.494 10.494c0.27-0.646 0.338-1.434 0.285-2.237-0.038-0.567-0.133-1.083-0.22-1.459-0.043-0.187-0.084-0.336-0.112-0.436-0.014-0.050-0.026-0.088-0.033-0.112l-0.008-0.025-0.001-0.003c-0.114-0.342-0.025-0.72 0.23-0.975l6.734-6.734c0.255-0.255 0.631-0.344 0.973-0.231 0.007 0.002 0.021 0.006 0.040 0.011 0.039 0.011 0.102 0.027 0.183 0.043 0.165 0.033 0.395 0.066 0.655 0.066 0.216 0 0.438-0.022 0.653-0.078l-7.704-7.704c-0.056 0.216-0.078 0.437-0.078 0.653 0 0.26 0.033 0.49 0.066 0.655 0.016 0.081 0.032 0.144 0.043 0.183 0.005 0.020 0.009 0.033 0.011 0.040z"></path>
</svg>
