<!-- Generated by IcoMoon.io -->
<svg version="1.1" xmlns="http://www.w3.org/2000/svg" width="30" height="32" viewBox="0 0 30 32">
<title>pin-map</title>
<path d="M5.905 21.714c0.18-0.24 0.462-0.381 0.762-0.381h4.762c0.526 0 0.952 0.426 0.952 0.952s-0.426 0.952-0.952 0.952h-4.286l-4.286 5.714h24.762l-4.286-5.714h-4.286c-0.526 0-0.952-0.426-0.952-0.952s0.426-0.952 0.952-0.952h4.762c0.3 0 0.582 0.141 0.762 0.381l5.714 7.619c0.216 0.289 0.251 0.675 0.090 0.997s-0.491 0.526-0.852 0.526h-28.571c-0.361 0-0.691-0.204-0.852-0.526s-0.127-0.709 0.090-0.997l5.714-7.619z"></path>
<path d="M15.238 2.286c-3.156 0-5.714 2.558-5.714 5.714s2.558 5.714 5.714 5.714c3.156 0 5.714-2.558 5.714-5.714s-2.558-5.714-5.714-5.714zM7.619 8c0-4.208 3.411-7.619 7.619-7.619s7.619 3.411 7.619 7.619c0 3.885-2.908 7.091-6.667 7.56v10.535c0 0.526-0.426 0.952-0.952 0.952s-0.952-0.426-0.952-0.952v-10.535c-3.758-0.469-6.667-3.675-6.667-7.56z"></path>
</svg>
