<!-- Generated by IcoMoon.io -->
<svg version="1.1" xmlns="http://www.w3.org/2000/svg" width="32" height="32" viewBox="0 0 32 32">
<title>question-circle</title>
<path d="M16 30c-7.732 0-14-6.268-14-14s6.268-14 14-14c7.732 0 14 6.268 14 14s-6.268 14-14 14zM16 32c8.836 0 16-7.164 16-16s-7.164-16-16-16c-8.837 0-16 7.163-16 16s7.163 16 16 16z"></path>
<path d="M10.51 11.572c-0.015 0.272 0.21 0.493 0.482 0.493h1.649c0.276 0 0.496-0.225 0.533-0.499 0.178-1.312 1.079-2.269 2.684-2.269 1.371 0 2.628 0.686 2.628 2.336 0 1.27-0.749 1.854-1.93 2.742-1.346 0.978-2.412 2.12-2.336 3.974l0.006 0.434c0.004 0.273 0.226 0.493 0.5 0.493h1.622c0.276 0 0.5-0.224 0.5-0.5v-0.211c0-1.435 0.546-1.854 2.019-2.971 1.219-0.927 2.488-1.955 2.488-4.113 0-3.021-2.552-4.481-5.345-4.481-2.534 0-5.311 1.181-5.5 4.572zM13.624 23.098c0 1.066 0.851 1.854 2.019 1.854 1.219 0 2.057-0.787 2.057-1.854 0-1.104-0.838-1.879-2.057-1.879-1.168 0-2.019 0.774-2.019 1.879z"></path>
</svg>
