<!-- Generated by IcoMoon.io -->
<svg version="1.1" xmlns="http://www.w3.org/2000/svg" width="32" height="32" viewBox="0 0 32 32">
<title>refresh</title>
<path d="M22.393 14.017h7.765c0.419 0 0.647 0.488 0.379 0.81l-3.883 4.659c-0.197 0.237-0.561 0.237-0.759 0l-3.883-4.659c-0.268-0.322-0.039-0.81 0.379-0.81z"></path>
<path d="M0.671 17.967h7.765c0.419 0 0.647-0.488 0.379-0.81l-3.883-4.659c-0.197-0.237-0.561-0.237-0.758 0l-3.883 4.659c-0.268 0.322-0.039 0.81 0.379 0.81z"></path>
<path d="M15.414 6.118c-3.066 0-5.804 1.396-7.617 3.591-0.347 0.42-0.97 0.48-1.39 0.133s-0.48-0.97-0.133-1.39c2.172-2.629 5.46-4.308 9.14-4.308 5.809 0 10.64 4.179 11.653 9.695 0.011 0.059 0.021 0.119 0.031 0.178h-2.008c-0.914-4.507-4.9-7.899-9.676-7.899zM5.738 17.967c0.914 4.507 4.9 7.899 9.676 7.899 3.066 0 5.805-1.396 7.617-3.591 0.347-0.42 0.969-0.48 1.39-0.133s0.48 0.97 0.133 1.39c-2.172 2.63-5.46 4.308-9.14 4.308-5.809 0-10.64-4.179-11.653-9.695-0.011-0.059-0.021-0.119-0.031-0.178h2.008z"></path>
</svg>
