<!-- Generated by IcoMoon.io -->
<svg version="1.1" xmlns="http://www.w3.org/2000/svg" width="32" height="32" viewBox="0 0 32 32">
<title>return</title>
<path d="M30.878 2.931c0.601 0 1.088 0.487 1.088 1.088v10.449c0 3.006-2.437 5.442-5.442 5.442h-21.318l7.285 7.285c0.425 0.425 0.425 1.114 0 1.539s-1.114 0.425-1.539 0l-9.143-9.143c-0.425-0.425-0.425-1.114 0-1.539l8.707-8.707c0.425-0.425 1.114-0.425 1.539 0s0.425 1.114 0 1.539l-6.849 6.849h21.318c1.803 0 3.265-1.462 3.265-3.265v-10.449c0-0.601 0.487-1.088 1.088-1.088z"></path>
</svg>
