<!-- Generated by IcoMoon.io -->
<svg version="1.1" xmlns="http://www.w3.org/2000/svg" width="32" height="32" viewBox="0 0 32 32">
<title>share</title>
<path d="M27 2c-1.657 0-3 1.343-3 3s1.343 3 3 3c1.657 0 3-1.343 3-3s-1.343-3-3-3zM22 5c0-2.761 2.239-5 5-5s5 2.239 5 5c0 2.761-2.239 5-5 5-1.518 0-2.878-0.676-3.795-1.744l-13.435 6.241c0.149 0.475 0.23 0.98 0.23 1.504s-0.081 1.029-0.23 1.504l13.435 6.241c0.917-1.068 2.277-1.744 3.795-1.744 2.761 0 5 2.239 5 5s-2.239 5-5 5c-2.761 0-5-2.239-5-5 0-0.524 0.081-1.029 0.23-1.504l-13.435-6.241c-0.917 1.068-2.277 1.744-3.795 1.744-2.761 0-5-2.239-5-5s2.239-5 5-5c1.518 0 2.878 0.676 3.795 1.744l13.435-6.241c-0.149-0.475-0.23-0.98-0.23-1.504zM5 13c-1.657 0-3 1.343-3 3s1.343 3 3 3 3-1.343 3-3c0-1.657-1.343-3-3-3zM27 24c-1.657 0-3 1.343-3 3s1.343 3 3 3c1.657 0 3-1.343 3-3s-1.343-3-3-3z"></path>
</svg>
