<!-- Generated by IcoMoon.io -->
<svg version="1.1" xmlns="http://www.w3.org/2000/svg" width="32" height="32" viewBox="0 0 32 32">
<title>textarea-resize</title>
<path d="M0 9c0-2.761 2.239-5 5-5h22c2.761 0 5 2.239 5 5v14c0 2.761-2.239 5-5 5h-22c-2.761 0-5-2.239-5-5v-14zM5 6c-1.657 0-3 1.343-3 3v14c0 1.657 1.343 3 3 3h22c1.657 0 3-1.343 3-3v-14c0-1.657-1.343-3-3-3h-22zM26.707 15.293c0.391 0.391 0.391 1.024 0 1.414l-6 6c-0.39 0.391-1.024 0.391-1.414 0s-0.391-1.024 0-1.414l6-6c0.39-0.391 1.024-0.391 1.414 0zM26.707 20.293c0.391 0.39 0.391 1.024 0 1.414l-1 1c-0.39 0.391-1.024 0.391-1.414 0s-0.391-1.024 0-1.414l1-1c0.39-0.391 1.024-0.391 1.414 0z"></path>
</svg>
