<!-- Generated by IcoMoon.io -->
<svg version="1.1" xmlns="http://www.w3.org/2000/svg" width="32" height="32" viewBox="0 0 32 32">
<title>truck-front</title>
<path d="M10 22c0 1.105-0.895 2-2 2s-2-0.895-2-2c0-1.105 0.895-2 2-2s2 0.895 2 2z"></path>
<path d="M26 22c0 1.105-0.895 2-2 2s-2-0.895-2-2c0-1.105 0.895-2 2-2s2 0.895 2 2z"></path>
<path d="M14 20c-1.105 0-2 0.895-2 2s0.895 2 2 2h4c1.105 0 2-0.895 2-2s-0.895-2-2-2h-4z"></path>
<path d="M8 4c-1.105 0-2 0.895-2 2v7.801c0 1.249 1.124 2.182 2.34 1.986 1.811-0.292 5.245-0.787 7.66-0.787s5.849 0.495 7.66 0.787c1.215 0.196 2.34-0.737 2.34-1.986v-7.801c0-1.105-0.895-2-2-2h-16zM8 6h16v7.801c0 0.003-0 0.001 0 0 0-0-0.001 0.004-0.004 0.007s-0.007 0.004-0.009 0.005c-0.001 0-0.003 0.001-0.008 0-1.804-0.291-5.384-0.813-7.979-0.813s-6.175 0.521-7.979 0.813c-0.005 0.001-0.007 0-0.008 0-0.002-0.001-0.005-0.002-0.009-0.005s-0.004-0.005-0.004-0.005c0.001 0.001 0 0.003 0 0l0-7.803z"></path>
<path d="M2 5c0-2.761 2.239-5 5-5h18c2.761 0 5 2.239 5 5v18c0 1.636-0.786 3.088-2 4v4c0 0.552-0.448 1-1 1h-4c-0.552 0-1-0.448-1-1v-3h-12v3c0 0.552-0.448 1-1 1h-4c-0.552 0-1-0.448-1-1v-4c-1.214-0.912-2-2.365-2-4v-18zM7 2c-1.657 0-3 1.343-3 3v18c0 1.657 1.343 3 3 3h18c1.657 0 3-1.343 3-3v-18c0-1.657-1.343-3-3-3h-18z"></path>
</svg>
