<svg  viewBox="0 0 16 11" fill="none" xmlns="http://www.w3.org/2000/svg">
<path d="M0.359375 0.887451H15.3594V10.8875H0.359375V0.887451Z" fill="#E30A17"/>
<path d="M5.67187 8.38745C7.05259 8.38745 8.17187 7.26816 8.17187 5.88745C8.17187 4.50674 7.05259 3.38745 5.67187 3.38745C4.29116 3.38745 3.17188 4.50674 3.17188 5.88745C3.17188 7.26816 4.29116 8.38745 5.67187 8.38745Z" fill="white"/>
<path d="M6.29687 7.88745C7.40144 7.88745 8.29687 6.99202 8.29687 5.88745C8.29687 4.78288 7.40144 3.88745 6.29687 3.88745C5.19231 3.88745 4.29688 4.78288 4.29688 5.88745C4.29688 6.99202 5.19231 7.88745 6.29687 7.88745Z" fill="#E30A17"/>
<path d="M7.65039 5.88743L9.91165 6.62217L8.5141 4.69861V7.07626L9.91165 5.1527L7.65039 5.88743Z" fill="white"/>
</svg>
