<svg width="28" height="28" viewBox="0 0 28 28" fill="none" xmlns="http://www.w3.org/2000/svg">
<path d="M14 26.25C7.23451 26.25 1.75 20.7655 1.75 14C1.75 7.23451 7.23451 1.75 14 1.75C20.7655 1.75 26.25 7.23451 26.25 14C26.25 20.7655 20.7655 26.25 14 26.25ZM14 28C21.732 28 28 21.732 28 14C28 6.26801 21.732 0 14 0C6.26801 0 0 6.26801 0 14C0 21.732 6.26801 28 14 28Z" fill="#0069B4"/>
<path d="M7.49839 21.7574C7.91669 21.9994 8.45195 21.8564 8.69393 21.4381C9.75429 19.6051 11.734 18.375 14 18.375C16.2661 18.375 18.2458 19.6051 19.3062 21.4381C19.5481 21.8564 20.0834 21.9994 20.5017 21.7574C20.92 21.5154 21.063 20.9802 20.821 20.5619C19.4607 18.2103 16.916 16.625 14 16.625C11.0841 16.625 8.53942 18.2103 7.17912 20.5619C6.93714 20.9802 7.08009 21.5154 7.49839 21.7574Z" fill="#0069B4"/>
<path d="M12.25 11.375C12.25 12.8247 11.4665 14 10.5 14C9.5335 14 8.75 12.8247 8.75 11.375C8.75 9.92525 9.5335 8.75 10.5 8.75C11.4665 8.75 12.25 9.92525 12.25 11.375Z" fill="#0069B4"/>
<path d="M19.25 11.375C19.25 12.8247 18.4665 14 17.5 14C16.5335 14 15.75 12.8247 15.75 11.375C15.75 9.92525 16.5335 8.75 17.5 8.75C18.4665 8.75 19.25 9.92525 19.25 11.375Z" fill="#0069B4"/>
</svg>
