<svg width="28" height="28" viewBox="0 0 28 28" fill="none" xmlns="http://www.w3.org/2000/svg">
<path d="M14 26.25C7.23451 26.25 1.75 20.7655 1.75 14C1.75 7.23451 7.23451 1.75 14 1.75C20.7655 1.75 26.25 7.23451 26.25 14C26.25 20.7655 20.7655 26.25 14 26.25ZM14 28C21.732 28 28 21.732 28 14C28 6.26801 21.732 0 14 0C6.26801 0 0 6.26801 0 14C0 21.732 6.26801 28 14 28Z" fill="#f4a022"/>
<path d="M19.8005 17.5236C20.1405 17.4431 20.4957 17.5726 20.7042 17.8529C20.9127 18.1332 20.9344 18.5108 20.7595 18.8132C19.3992 21.1647 16.8545 22.75 13.9385 22.75C11.0226 22.75 8.4779 21.1647 7.1176 18.8132C6.94266 18.5108 6.96438 18.1332 7.17287 17.8529C7.38134 17.5726 7.73657 17.4431 8.07652 17.5236L8.08532 17.5256L8.11469 17.5325L8.23164 17.5592C8.33427 17.5825 8.48447 17.6159 8.67248 17.6561C9.04879 17.7366 9.57496 17.844 10.1732 17.9513C11.3848 18.1685 12.8366 18.375 13.9385 18.375C15.0404 18.375 16.4923 18.1685 17.7038 17.9513C18.3021 17.844 18.8283 17.7366 19.2046 17.6561C19.3926 17.6159 19.5428 17.5825 19.6454 17.5592L19.7624 17.5325L19.7917 17.5256L19.8005 17.5236Z" fill="#f4a022"/>
<path d="M8.32247 7.99136C9.65774 5.49898 15.3565 7.78029 9.98879 14C2.12156 11.2067 5.87631 6.47797 8.32247 7.99136Z" fill="#f4a022"/>
<path d="M19.6775 7.99136C22.1237 6.47797 25.8784 11.2067 18.0112 14C12.6435 7.78029 18.3423 5.49898 19.6775 7.99136Z" fill="#f4a022"/>
</svg>
