<svg width="28" height="28" viewBox="0 0 28 28" fill="none" xmlns="http://www.w3.org/2000/svg">
<path d="M14 26.25C7.23451 26.25 1.75 20.7655 1.75 14C1.75 7.23451 7.23451 1.75 14 1.75C20.7655 1.75 26.25 7.23451 26.25 14C26.25 20.7655 20.7655 26.25 14 26.25ZM14 28C21.732 28 28 21.732 28 14C28 6.26801 21.732 0 14 0C6.26801 0 0 6.26801 0 14C0 21.732 6.26801 28 14 28Z" fill="#f4a022"/>
<path d="M7 18.375C7 18.8582 7.39175 19.25 7.875 19.25H20.125C20.6082 19.25 21 18.8582 21 18.375C21 17.8918 20.6082 17.5 20.125 17.5H7.875C7.39175 17.5 7 17.8918 7 18.375Z" fill="#f4a022"/>
<path d="M12.25 11.375C12.25 9.92525 11.4665 8.75 10.5 8.75C9.5335 8.75 8.75 9.92525 8.75 11.375C8.75 12.8247 9.5335 14 10.5 14C11.4665 14 12.25 12.8247 12.25 11.375Z" fill="#f4a022"/>
<path d="M19.25 11.375C19.25 9.92525 18.4665 8.75 17.5 8.75C16.5335 8.75 15.75 9.92525 15.75 11.375C15.75 12.8247 16.5335 14 17.5 14C18.4665 14 19.25 12.8247 19.25 11.375Z" fill="#f4a022"/>
</svg>
