<svg width="28" height="28" viewBox="0 0 28 28" fill="none" xmlns="http://www.w3.org/2000/svg">
<path d="M14 26.25C7.23451 26.25 1.75 20.7655 1.75 14C1.75 7.23451 7.23451 1.75 14 1.75C20.7655 1.75 26.25 7.23451 26.25 14C26.25 20.7655 20.7655 26.25 14 26.25ZM14 28C21.732 28 28 21.732 28 14C28 6.26801 21.732 0 14 0C6.26801 0 0 6.26801 0 14C0 21.732 6.26801 28 14 28Z" fill="#f4a022"/>
<path d="M7.49839 16.7426C7.91669 16.5006 8.45195 16.6436 8.69393 17.0619C9.75429 18.8949 11.734 20.125 14 20.125C16.2661 20.125 18.2458 18.8949 19.3062 17.0619C19.5481 16.6436 20.0834 16.5006 20.5017 16.7426C20.92 16.9846 21.063 17.5198 20.821 17.9381C19.4607 20.2897 16.916 21.875 14 21.875C11.0841 21.875 8.53942 20.2897 7.17912 17.9381C6.93714 17.5198 7.08009 16.9846 7.49839 16.7426Z" fill="#f4a022"/>
<path d="M12.25 11.375C12.25 12.8247 11.4665 14 10.5 14C9.5335 14 8.75 12.8247 8.75 11.375C8.75 9.92525 9.5335 8.75 10.5 8.75C11.4665 8.75 12.25 9.92525 12.25 11.375Z" fill="#f4a022"/>
<path d="M15.3245 10.6104C15.7468 10.3754 16.2796 10.5272 16.5146 10.9495C16.809 11.4785 17.3446 11.8125 17.9375 11.8125C18.5304 11.8125 19.066 11.4785 19.3604 10.9495C19.5954 10.5272 20.1282 10.3754 20.5505 10.6104C20.9728 10.8454 21.1246 11.3782 20.8896 11.8005C20.3107 12.8407 19.2141 13.5625 17.9375 13.5625C16.6609 13.5625 15.5643 12.8407 14.9854 11.8005C14.7504 11.3782 14.9022 10.8454 15.3245 10.6104Z" fill="#f4a022"/>
</svg>
